<?xml version="1.0" standalone="no"?>
<!DOCTYPE svg PUBLIC "-//W3C//DTD SVG 20010904//EN"
 "http://www.w3.org/TR/2001/REC-SVG-20010904/DTD/svg10.dtd">
<svg version="1.0" xmlns="http://www.w3.org/2000/svg"
 width="959.000000pt" height="1280.000000pt" viewBox="0 0 959.000000 1280.000000"
 preserveAspectRatio="xMidYMid meet">
<metadata>
Created by potrace 1.15, written by Peter Selinger 2001-2017
</metadata>
<g transform="translate(0.000000,1280.000000) scale(0.100000,-0.100000)"
fill="#000000" stroke="none">
<path d="M8970 12780 c0 -8 -9 -10 -26 -6 -14 4 -32 2 -40 -4 -7 -7 -18 -9
-24 -5 -10 6 -75 -12 -96 -27 -7 -5 -29 -9 -50 -10 -22 0 -43 -4 -49 -8 -5 -4
-17 -7 -25 -7 -8 0 -42 -6 -75 -13 -33 -7 -75 -15 -93 -17 -18 -3 -37 -14 -43
-24 -11 -22 -66 -52 -82 -46 -21 8 -32 7 -33 -3 -1 -5 -2 -13 -3 -17 0 -4 -7
1 -14 11 -12 16 -16 17 -49 3 -19 -8 -39 -20 -42 -26 -4 -6 -13 -11 -19 -11
-7 0 -6 4 3 10 28 18 2 10 -39 -12 -23 -12 -41 -25 -41 -30 0 -4 -18 -8 -39
-8 -22 0 -43 -4 -46 -10 -3 -5 -14 -10 -24 -10 -10 0 -24 -7 -31 -15 -7 -8
-21 -15 -31 -15 -10 0 -22 -8 -28 -17 -5 -10 -13 -15 -16 -11 -4 4 -14 1 -22
-7 -8 -8 -26 -15 -40 -15 -16 0 -27 -7 -30 -19 -5 -21 -29 -35 -44 -25 -5 3
-9 1 -9 -5 0 -6 -17 -19 -37 -29 -21 -10 -62 -33 -91 -50 -29 -18 -55 -32 -59
-32 -3 0 -50 -27 -105 -60 -54 -33 -103 -60 -107 -60 -5 0 -32 -16 -61 -35
-29 -19 -56 -32 -61 -29 -5 3 -17 0 -26 -5 -11 -6 -13 -11 -5 -11 7 0 10 -5 7
-10 -9 -14 -153 -112 -186 -126 -14 -7 -55 -39 -90 -73 -130 -126 -272 -251
-285 -251 -4 0 17 22 47 49 30 27 50 53 46 57 -4 5 -16 3 -25 -4 -9 -6 -35
-20 -57 -30 -22 -11 -71 -43 -108 -71 -38 -28 -85 -60 -106 -70 -20 -11 -67
-47 -104 -80 -36 -32 -82 -67 -101 -76 -20 -10 -36 -23 -36 -30 0 -6 -17 -29
-38 -51 -21 -21 -58 -64 -82 -94 -58 -74 -92 -106 -118 -114 -24 -8 -29 -22
-10 -28 11 -4 -75 -118 -110 -146 -15 -11 -15 -14 -2 -22 8 -5 10 -10 4 -10
-6 0 -17 -15 -24 -32 -20 -53 -32 -76 -52 -98 -10 -11 -16 -20 -13 -20 4 0 -5
-14 -19 -31 -14 -17 -26 -39 -26 -49 0 -10 -4 -21 -9 -24 -4 -3 -11 -18 -14
-33 -3 -16 -17 -45 -32 -67 -14 -21 -24 -41 -21 -44 3 -3 0 -12 -7 -20 -10
-12 -9 -16 1 -20 10 -3 9 -9 -5 -24 -19 -21 -26 -68 -9 -68 5 0 1 -9 -9 -20
-10 -11 -20 -35 -23 -53 -10 -64 -6 -232 6 -262 6 -16 14 -52 16 -80 2 -27 8
-59 12 -70 9 -20 11 -129 5 -195 -5 -47 -30 -120 -51 -145 -9 -11 -24 -39 -34
-61 -10 -23 -29 -47 -42 -53 -13 -6 -24 -15 -24 -21 0 -6 -20 -30 -43 -53 -24
-23 -42 -48 -40 -54 9 -26 -14 -12 -52 33 -164 192 -193 220 -236 234 -64 20
-70 27 -68 79 1 25 -8 76 -20 113 -27 85 -77 132 -150 142 l-48 6 -18 63 c-9
34 -18 74 -18 90 -1 15 -6 25 -12 23 -5 -1 -25 10 -43 25 -20 18 -45 29 -65
30 -154 5 -157 7 -197 91 -35 73 -64 118 -110 171 -28 33 -74 60 -84 49 -4 -3
-10 -2 -14 3 -20 29 -100 70 -155 80 -34 7 -70 16 -80 20 -15 6 -16 4 -8 -17
8 -23 6 -26 -28 -41 -47 -21 -61 -21 -89 -1 -21 15 -24 14 -42 -8 -16 -19 -19
-20 -20 -6 0 9 5 20 10 23 16 10 12 25 -5 19 -8 -4 -15 -1 -15 5 0 7 14 17 30
22 50 18 36 32 -22 24 -29 -4 -71 -9 -94 -10 -93 -7 -185 -45 -177 -74 5 -20
-45 -45 -62 -31 -16 13 -56 -10 -82 -49 -13 -19 -21 -36 -19 -38 2 -2 24 10
49 27 45 30 74 39 61 19 -3 -6 -1 -15 6 -19 8 -5 3 -12 -16 -22 -16 -8 -38
-19 -49 -25 -53 -27 -99 -48 -104 -47 -13 3 -59 -37 -82 -70 -13 -19 -32 -37
-42 -40 -15 -4 -16 -2 -5 11 10 13 7 20 -22 44 -19 16 -40 29 -46 29 -7 0 -14
7 -17 15 -4 8 -29 26 -58 40 -28 15 -79 45 -111 68 -33 23 -66 45 -74 50 -8 4
-22 11 -31 17 -10 5 -40 20 -68 34 -27 14 -57 30 -65 35 -35 23 -85 41 -111
41 -15 0 -29 4 -31 10 -1 5 -19 11 -38 14 -41 6 -71 15 -163 50 -74 28 -129
28 -146 -1 -6 -12 -22 -14 -77 -10 -72 6 -158 22 -176 33 -6 4 -25 8 -42 9
-70 6 -120 16 -132 26 -8 7 -14 7 -14 2 0 -11 -46 -5 -169 21 -40 8 -78 13
-82 10 -5 -3 -26 0 -47 6 -22 5 -59 12 -83 15 -24 2 -57 7 -74 10 -53 10 -249
26 -262 21 -7 -3 -15 -1 -18 3 -3 5 -22 5 -42 0 -49 -11 -55 -11 -48 1 4 6
-29 9 -92 8 -81 -1 -90 -2 -48 -8 47 -6 45 -7 -27 -8 -47 -1 -78 2 -78 8 0 6
-17 9 -37 9 l-38 -2 35 -7 c24 -5 -3 -8 -85 -10 -148 -3 -182 -6 -218 -19 -36
-14 -70 -14 -62 -1 3 6 1 10 -4 10 -6 0 -11 -4 -11 -9 0 -5 -11 -19 -25 -32
-13 -13 -25 -30 -25 -37 0 -7 -16 -28 -35 -46 -42 -40 -46 -73 -10 -82 30 -7
47 -27 51 -59 2 -21 -6 -30 -44 -49 -57 -30 -152 -109 -172 -145 -8 -14 -23
-32 -32 -39 -13 -9 -18 -27 -18 -62 0 -45 3 -50 42 -79 43 -32 72 -39 83 -21
9 15 57 12 99 -5 20 -9 42 -15 49 -14 15 3 77 -9 142 -27 77 -21 106 -26 157
-28 40 -2 53 -9 86 -42 23 -22 68 -51 108 -68 38 -16 73 -33 78 -38 6 -4 -7
-23 -30 -43 -25 -24 -35 -38 -26 -41 7 -3 20 -13 29 -22 9 -10 29 -17 45 -17
38 0 113 -60 137 -111 17 -36 32 -48 97 -80 42 -21 95 -55 118 -76 22 -20 55
-47 73 -60 17 -13 68 -51 114 -86 46 -34 101 -68 124 -74 22 -6 45 -15 50 -19
6 -4 28 -11 50 -15 74 -13 245 -78 245 -92 0 -21 -114 -53 -238 -67 -57 -6
-66 -10 -83 -39 -27 -45 -25 -98 7 -135 14 -17 34 -31 44 -31 10 0 25 -11 34
-25 9 -14 21 -25 27 -25 13 0 109 -71 129 -95 16 -20 151 -85 176 -85 8 0 25
-6 37 -14 12 -8 38 -17 57 -21 58 -11 163 -45 185 -59 11 -7 55 -16 98 -21 96
-9 106 -22 51 -71 -21 -18 -44 -34 -51 -34 -6 0 -32 -23 -57 -51 -26 -28 -66
-65 -90 -81 -66 -43 -126 -109 -126 -137 0 -13 17 -53 37 -88 30 -51 51 -72
99 -103 54 -34 63 -44 73 -83 13 -54 46 -96 93 -118 36 -18 148 -45 218 -54
100 -13 109 -16 115 -35 4 -11 12 -18 18 -14 7 3 3 -3 -9 -13 -27 -24 -44 -75
-33 -95 7 -12 1 -19 -24 -31 -17 -9 -45 -19 -60 -22 -36 -9 -58 -43 -62 -95
-1 -23 -5 -44 -9 -47 -3 -4 -6 -27 -6 -52 l0 -45 33 32 c18 18 42 32 53 32 17
0 20 -6 20 -40 -1 -22 -4 -40 -8 -40 -5 0 -8 6 -8 13 -1 7 -6 5 -14 -5 -8 -12
-16 -14 -23 -7 -5 5 -18 6 -28 3 -17 -7 -16 -8 4 -16 19 -7 20 -10 9 -20 -25
-23 -57 -38 -71 -32 -10 3 -13 -7 -13 -43 1 -44 -1 -48 -21 -47 -26 1 -29 -6
-10 -25 10 -11 4 -12 -33 -6 -25 4 -51 12 -58 18 -9 7 -18 5 -30 -5 -9 -7 -30
-20 -45 -28 -45 -23 -78 -61 -71 -82 3 -10 0 -26 -7 -34 -12 -15 -26 -134 -15
-134 4 0 19 15 36 33 20 22 27 39 23 54 -3 13 -2 30 1 40 6 14 8 14 21 -3 8
-12 10 -23 4 -29 -14 -14 -11 -45 5 -45 11 0 12 -5 3 -23 -8 -17 -18 -23 -34
-21 -13 1 -20 -2 -17 -7 3 -6 0 -17 -8 -26 -11 -15 -11 -16 7 -10 16 6 15 3
-5 -13 -14 -11 -30 -20 -36 -20 -6 0 -9 -10 -7 -24 3 -13 0 -27 -6 -30 -7 -5
-11 1 -11 14 0 12 -4 18 -11 15 -5 -4 -8 -12 -6 -18 2 -7 -2 -24 -10 -39 -10
-21 -10 -28 -1 -28 6 0 4 -6 -7 -13 -13 -10 -16 -21 -12 -39 6 -22 4 -25 -12
-21 -11 3 -30 -5 -47 -21 -16 -14 -41 -35 -57 -47 -15 -11 -25 -25 -21 -30 3
-5 -2 -16 -10 -25 -20 -20 -21 -45 -1 -38 8 4 15 2 15 -2 -1 -17 -39 -54 -55
-54 -10 0 -35 -19 -57 -42 -22 -24 -48 -43 -57 -43 -12 0 -15 -9 -13 -34 2
-26 -2 -34 -18 -38 -24 -6 -25 -16 -4 -34 14 -11 18 -10 30 6 13 18 14 17 8
-13 -5 -24 -3 -33 10 -38 18 -7 21 -46 5 -76 -14 -27 -29 -7 -29 40 0 22 -5
32 -15 32 -8 0 -15 7 -15 15 0 8 -4 15 -10 15 -12 0 -13 -12 -1 -42 5 -13 12
-34 15 -48 9 -38 35 -68 45 -52 7 11 11 11 22 -1 18 -18 27 -14 117 47 104 70
171 107 201 110 15 2 32 14 41 29 14 26 121 107 140 107 21 0 41 -33 35 -59
-3 -17 5 -47 25 -89 17 -37 30 -80 30 -102 0 -22 7 -65 15 -97 8 -31 15 -78
15 -104 0 -25 11 -81 25 -123 14 -42 25 -85 25 -94 0 -10 6 -42 14 -72 8 -30
17 -93 20 -140 3 -47 10 -104 15 -127 4 -24 5 -43 0 -43 -13 0 -10 -62 5 -88
36 -66 117 -79 187 -32 24 16 51 30 60 30 9 0 52 11 95 25 100 32 112 31 125
-2 5 -16 13 -35 16 -43 12 -28 10 -125 -4 -169 -8 -24 -14 -77 -15 -118 0 -40
-4 -76 -8 -78 -5 -3 -11 -33 -15 -67 -4 -35 -13 -88 -21 -119 -8 -31 -14 -70
-14 -86 0 -16 -3 -33 -7 -37 -5 -4 -9 -12 -9 -17 -1 -5 -2 -10 -3 -11 -4 -5
-12 -81 -15 -135 -1 -31 -9 -60 -19 -71 -10 -11 -19 -44 -22 -87 -6 -73 -23
-153 -35 -170 -4 -5 -11 -46 -15 -90 -3 -44 -13 -100 -22 -125 -8 -26 -17 -99
-20 -170 -2 -71 -11 -146 -20 -173 -13 -40 -13 -61 -3 -130 6 -45 9 -107 5
-137 -9 -75 -8 -320 0 -461 8 -113 7 -118 -19 -175 -48 -104 -87 -178 -106
-199 -33 -37 -50 -84 -50 -137 0 -72 -9 -83 -68 -84 -33 0 -69 -11 -112 -32
-35 -18 -79 -32 -98 -32 -47 0 -163 -62 -185 -99 -37 -63 -14 -149 53 -196 81
-57 92 -74 85 -125 -17 -111 -1 -331 27 -367 6 -7 7 -25 3 -41 -3 -16 -2 -39
3 -53 5 -13 7 -42 3 -64 -5 -27 -1 -63 12 -110 10 -38 23 -117 28 -175 13
-150 47 -252 102 -306 63 -62 105 -76 202 -69 l81 5 39 -52 c49 -65 90 -106
135 -137 19 -13 58 -47 85 -76 l50 -51 101 -14 c56 -7 114 -9 130 -5 41 11
117 12 130 3 14 -10 63 -15 229 -24 117 -6 136 -4 193 15 50 17 71 20 97 12
19 -5 43 -7 54 -4 10 3 28 0 39 -6 28 -15 218 -22 577 -23 383 -1 458 5 615
45 25 6 68 10 97 9 28 -1 71 4 95 12 74 24 99 27 114 15 7 -6 22 -8 31 -4 23
8 142 19 259 24 17 0 48 12 68 26 20 14 43 25 51 25 8 0 25 15 39 33 14 18 36
39 49 46 34 18 77 92 77 132 0 19 9 52 20 74 11 22 20 58 20 80 0 22 7 66 15
98 8 31 15 103 16 159 0 57 7 142 15 190 17 104 21 92 -124 390 -55 112 -110
226 -122 253 -13 28 -28 57 -35 65 -6 8 -33 63 -58 121 -26 58 -87 187 -135
285 -49 98 -99 206 -112 239 -12 33 -34 85 -47 115 -14 30 -38 89 -53 130 -15
41 -35 92 -44 114 -9 21 -16 51 -16 66 0 46 -12 90 -24 90 -6 0 -12 9 -12 20
0 11 5 20 12 20 18 0 33 353 15 364 -5 3 -7 15 -4 26 4 14 0 20 -11 20 -20 0
-20 7 -2 25 12 12 15 70 4 91 -2 5 -3 18 -2 29 1 11 4 34 5 50 1 17 6 35 10
40 7 11 6 44 -2 60 -5 9 -4 31 0 38 12 14 19 225 8 236 -5 5 -5 16 1 28 12 22
25 210 28 413 1 80 5 157 9 171 4 14 2 42 -3 62 -7 26 -7 37 1 41 9 3 8 5 0 5
-19 1 -16 28 4 39 15 9 15 13 -1 53 -14 34 -14 40 -3 30 22 -17 33 5 13 25
-20 20 -20 27 3 55 14 17 16 30 11 56 -5 18 -6 42 -3 52 3 10 0 22 -7 26 -8 5
-8 11 2 22 7 9 13 37 14 62 0 25 4 65 8 89 5 28 4 47 -4 57 -8 9 -8 20 -2 32
5 10 12 43 14 75 4 46 2 55 -10 50 -15 -5 -15 0 6 110 5 30 5 51 -1 57 -7 7
-7 15 0 23 16 21 11 397 -6 427 -22 39 -17 453 5 491 20 33 56 55 107 64 92
17 178 71 227 144 33 47 80 145 80 165 0 7 13 34 29 59 50 79 141 90 200 22
17 -19 31 -41 31 -48 0 -21 37 -48 57 -42 10 3 33 2 51 -3 24 -7 40 -6 60 5
15 7 32 14 39 14 6 0 43 35 81 77 68 74 71 79 91 167 12 50 21 105 21 121 1
49 28 147 48 175 31 42 60 51 141 46 87 -6 115 5 163 64 17 23 48 50 68 62 99
60 114 94 105 248 -4 63 -15 147 -25 185 -9 39 -21 94 -25 123 -4 30 -13 66
-21 80 -29 56 -5 104 34 69 9 -8 40 -26 67 -40 87 -43 219 -25 289 41 31 29
32 34 30 94 -2 34 -6 74 -9 87 -5 21 -4 23 17 16 13 -4 41 -10 64 -12 38 -4
43 -2 74 37 31 39 32 44 32 128 -1 76 -4 95 -31 150 -24 48 -31 76 -31 120 0
64 5 76 38 86 12 4 22 14 22 22 0 9 11 14 32 14 17 0 50 9 72 19 23 10 73 28
113 40 39 12 85 32 101 46 17 14 34 25 39 25 6 0 18 10 29 21 10 12 48 36 84
53 39 19 70 41 77 56 7 14 30 41 52 60 25 22 47 54 59 85 21 57 21 56 3 110
-18 54 -34 70 -89 90 -26 10 -54 23 -62 30 -22 17 -135 65 -154 65 -9 0 -16 4
-16 9 0 5 -24 8 -52 6 -29 -1 -77 0 -106 3 -46 4 -55 9 -63 31 -14 36 1 63 55
97 25 16 46 35 46 42 0 7 5 10 10 7 6 -3 10 1 10 9 0 9 5 16 10 16 6 0 28 16
49 36 21 19 56 47 77 61 46 30 209 215 243 275 12 23 42 65 65 93 24 27 63 77
88 110 25 33 59 74 74 90 37 39 84 94 109 129 11 15 31 43 45 61 61 78 119
236 91 247 -5 2 -11 15 -14 29 -6 22 6 39 79 119 107 117 142 181 128 236 -10
38 -91 94 -136 94 -63 0 -51 30 33 81 71 42 124 88 287 244 109 104 304 322
319 356 6 15 29 35 50 45 32 16 42 30 65 84 38 93 37 149 -3 195 -41 46 -64
57 -179 85 -113 28 -140 49 -140 111 0 70 -60 109 -170 109 -19 0 -42 -4 -50
-10 -9 -5 -19 -5 -27 2 -9 7 -13 7 -13 -2z m-8017 -1997 c-7 -2 -21 -2 -30 0
-10 3 -4 5 12 5 17 0 24 -2 18 -5z m1787 -3078 c-6 -15 -13 -25 -16 -23 -2 3
1 17 7 32 7 14 14 24 16 22 2 -2 -1 -16 -7 -31z"/>
<path d="M7028 11953 c7 -3 16 -2 19 1 4 3 -2 6 -13 5 -11 0 -14 -3 -6 -6z"/>
<path d="M6797 11757 l-19 -32 26 24 c26 24 33 41 19 41 -5 0 -16 -15 -26 -33z"/>
<path d="M5560 10230 c0 -11 4 -20 8 -20 4 0 8 9 9 20 1 11 -2 20 -8 20 -5 0
-9 -9 -9 -20z"/>
<path d="M2449 7172 c-10 -2 -19 -12 -22 -22 -4 -16 -2 -18 11 -11 10 4 23 6
30 4 6 -3 12 -1 12 4 0 16 -15 29 -31 25z"/>
<path d="M2250 6830 c0 -5 5 -10 10 -10 6 0 10 5 10 10 0 6 -4 10 -10 10 -5 0
-10 -4 -10 -10z"/>
</g>
</svg>
