<?xml version="1.0" standalone="no"?>
<!DOCTYPE svg PUBLIC "-//W3C//DTD SVG 20010904//EN"
 "http://www.w3.org/TR/2001/REC-SVG-20010904/DTD/svg10.dtd">
<svg version="1.0" xmlns="http://www.w3.org/2000/svg"
 width="939.000000pt" height="1280.000000pt" viewBox="0 0 939.000000 1280.000000"
 preserveAspectRatio="xMidYMid meet">
<metadata>
Created by potrace 1.15, written by Peter Selinger 2001-2017
</metadata>
<g transform="translate(0.000000,1280.000000) scale(0.100000,-0.100000)"
fill="#000000" stroke="none">
<path d="M1264 12284 c-32 -36 -63 -79 -68 -97 -13 -51 0 -118 38 -191 20 -38
36 -74 36 -81 0 -7 23 -56 50 -110 28 -54 50 -103 50 -109 0 -7 14 -34 31 -62
18 -27 38 -69 46 -94 8 -25 21 -59 29 -77 8 -17 14 -34 14 -37 0 -14 -87 -4
-182 19 -56 14 -115 25 -133 25 -17 0 -51 6 -76 14 -172 55 -219 66 -275 66
-34 0 -74 4 -90 9 -16 5 -48 12 -71 15 -47 7 -58 -2 -134 -100 -32 -42 -40
-61 -45 -110 -5 -51 -2 -65 20 -107 14 -26 26 -58 26 -69 0 -12 6 -29 14 -37
16 -19 86 -175 94 -211 3 -14 16 -42 28 -62 19 -29 32 -38 61 -43 48 -8 63
-10 203 -36 63 -12 124 -23 135 -25 18 -3 125 -23 200 -39 37 -7 191 -35 225
-40 30 -4 213 -39 295 -56 62 -12 105 -40 105 -68 0 -9 9 -27 20 -41 11 -14
20 -31 20 -38 0 -8 17 -44 39 -80 21 -37 60 -112 87 -167 l48 -99 3 -211 c3
-170 0 -220 -13 -265 -9 -30 -18 -95 -21 -145 -3 -49 -8 -94 -13 -100 -4 -5
-13 -28 -20 -50 -7 -22 -28 -57 -48 -77 -32 -34 -35 -41 -38 -111 -2 -42 -12
-101 -24 -133 -12 -36 -20 -83 -20 -125 0 -106 -10 -159 -30 -159 -15 0 -16
-5 -5 -47 7 -27 15 -104 19 -173 8 -131 16 -153 61 -170 24 -9 25 -29 24 -330
0 -168 2 -210 15 -235 9 -16 16 -47 16 -68 0 -20 9 -54 20 -74 16 -30 20 -57
20 -129 0 -77 4 -98 25 -140 14 -27 25 -62 25 -78 0 -17 8 -39 19 -50 15 -17
20 -42 24 -132 5 -118 28 -184 77 -229 12 -11 31 -38 42 -60 27 -53 135 -163
175 -180 20 -8 33 -21 33 -32 1 -25 42 -95 63 -105 9 -4 25 -12 35 -16 18 -9
53 -56 98 -130 19 -32 23 -47 15 -55 -23 -23 -12 -73 27 -118 20 -24 48 -66
61 -94 14 -27 36 -68 50 -90 13 -22 39 -67 55 -99 17 -33 54 -85 83 -116 28
-31 55 -69 59 -86 4 -16 13 -38 20 -49 6 -11 15 -31 19 -45 3 -14 24 -61 45
-105 64 -137 78 -169 86 -200 4 -16 15 -47 25 -67 12 -23 19 -59 19 -93 0 -31
6 -65 14 -78 10 -15 17 -70 21 -182 5 -110 12 -167 21 -182 19 -30 59 -49 114
-56 25 -3 71 -14 103 -23 53 -16 61 -16 114 -1 32 8 61 13 65 11 12 -7 10
-114 -3 -176 -6 -29 -28 -87 -48 -128 -55 -110 -70 -161 -111 -380 -5 -25 -9
-86 -9 -136 -1 -90 -1 -90 -37 -125 -20 -18 -47 -54 -62 -79 -14 -25 -33 -54
-43 -65 -16 -19 -69 -126 -69 -140 0 -7 -20 -55 -42 -102 -6 -12 -31 -32 -56
-44 -83 -39 -222 -157 -222 -190 0 -18 -30 -49 -49 -49 -24 0 -87 -40 -121
-77 -44 -47 -70 -85 -98 -143 -12 -25 -38 -65 -57 -90 -19 -25 -38 -52 -42
-60 -4 -8 -31 -43 -61 -76 -43 -50 -63 -64 -100 -74 -64 -17 -181 -71 -234
-108 -25 -17 -73 -45 -109 -63 -35 -18 -87 -51 -115 -74 -43 -34 -94 -60 -161
-80 -6 -2 -14 -17 -18 -33 -3 -17 -15 -38 -26 -48 -10 -9 -19 -23 -19 -29 0
-7 -7 -18 -15 -25 -12 -10 -15 -42 -15 -165 l0 -152 45 -42 c24 -22 49 -41 54
-41 5 0 57 -42 115 -94 61 -55 118 -97 135 -101 16 -3 51 0 78 8 41 12 54 13
80 2 17 -7 34 -18 37 -24 4 -6 25 -20 46 -31 62 -32 107 -76 114 -113 7 -36
26 -49 131 -87 33 -12 101 -41 150 -65 50 -24 111 -53 138 -64 26 -11 47 -24
47 -29 0 -5 -11 -19 -24 -31 -13 -13 -27 -35 -31 -49 -3 -15 -24 -45 -45 -67
-47 -50 -53 -69 -37 -124 12 -38 19 -45 56 -58 41 -14 44 -13 65 6 16 15 35
21 69 21 40 0 47 3 47 20 0 15 7 20 29 20 17 0 38 10 55 26 18 19 29 24 38 17
7 -6 38 -13 68 -16 30 -3 75 -11 100 -16 60 -14 185 -13 235 0 22 6 51 21 65
34 21 19 40 23 113 28 56 3 94 10 105 19 9 9 41 28 71 44 60 32 113 36 266 20
78 -8 81 -8 104 18 14 14 32 26 41 26 9 0 25 9 35 20 13 15 31 20 65 20 49 0
90 -24 148 -86 16 -17 34 -24 59 -24 21 0 57 -12 89 -31 53 -30 56 -30 142
-24 79 6 89 5 114 -14 44 -35 153 -64 213 -56 30 3 72 1 99 -6 34 -8 53 -9 69
-1 12 6 60 13 107 16 47 2 109 9 139 16 47 10 55 9 73 -7 15 -14 42 -19 112
-23 67 -4 102 -11 134 -28 23 -12 60 -22 82 -22 21 0 51 -5 67 -11 21 -8 44
-7 87 3 51 11 62 18 82 50 29 46 30 69 3 126 -21 42 -21 52 -17 400 3 231 9
367 16 385 7 15 15 85 18 155 6 111 9 130 28 152 31 34 52 70 59 100 3 14 26
52 50 85 95 133 117 192 134 370 3 32 13 58 26 73 20 22 24 22 149 16 106 -6
131 -4 146 8 9 8 25 18 34 21 21 7 56 60 64 97 4 14 22 41 40 60 25 26 39 55
53 107 10 39 29 88 42 110 13 21 31 58 41 83 9 25 26 70 37 100 15 40 21 78
21 142 l0 87 48 55 c56 65 82 136 90 248 5 77 4 80 -25 111 -16 18 -41 50 -54
72 -13 21 -62 86 -109 142 -87 104 -93 112 -125 190 -10 23 -30 54 -46 69 -23
22 -29 37 -29 69 0 23 -6 63 -14 89 -8 26 -12 62 -9 80 9 58 -15 177 -47 229
-17 27 -30 51 -30 54 0 2 26 32 59 66 74 79 94 140 67 207 -9 23 -28 57 -41
75 -20 26 -25 43 -25 93 l0 62 38 0 c33 0 43 6 75 45 21 25 46 45 56 45 10 0
50 27 89 60 40 33 75 60 79 60 5 0 26 -9 48 -19 22 -11 48 -22 58 -25 13 -4
17 -16 17 -53 1 -26 8 -84 16 -128 9 -44 18 -96 21 -115 3 -19 11 -42 18 -50
14 -16 59 -161 69 -221 3 -19 15 -53 26 -74 11 -22 20 -46 20 -54 0 -24 32
-103 58 -141 13 -19 39 -69 59 -110 19 -41 52 -94 72 -117 20 -22 54 -65 76
-93 55 -72 130 -133 190 -155 28 -9 57 -26 65 -37 21 -25 127 -38 141 -17 5 8
9 9 9 4 0 -6 13 -12 30 -13 16 -1 41 -7 55 -12 38 -14 85 -13 85 3 0 10 15 12
62 9 51 -4 64 -2 75 14 21 29 16 58 -28 139 -36 68 -39 79 -26 93 27 31 29 60
8 108 -12 26 -21 54 -21 63 0 9 -11 39 -23 66 -13 28 -29 77 -36 110 -7 33
-22 87 -32 119 -10 33 -19 67 -19 75 0 8 -9 33 -19 55 -17 37 -20 80 -27 416
-5 206 -7 555 -4 775 l5 400 30 31 c17 17 37 41 45 53 13 20 19 21 43 12 35
-13 107 -14 127 -1 26 16 12 171 -24 252 -9 21 -16 46 -16 56 0 10 -7 34 -16
52 -10 20 -21 87 -29 179 -8 80 -16 157 -20 171 -3 14 -8 48 -12 75 -3 28 -14
64 -24 81 -25 42 -27 175 -3 195 9 7 27 36 41 64 l24 50 -6 225 c-4 137 -12
245 -20 275 -30 111 -35 134 -35 163 0 17 -5 43 -10 58 -7 19 -7 37 0 60 10
28 7 41 -14 89 -14 30 -26 59 -26 63 0 13 -45 116 -62 142 -9 14 -19 36 -23
50 -3 14 -15 43 -25 65 -11 22 -29 74 -41 115 -12 41 -27 82 -34 90 -7 8 -23
36 -35 63 -13 26 -32 55 -42 64 -10 9 -18 21 -18 27 0 19 -90 142 -172 235
-27 30 -48 63 -48 74 0 27 -18 57 -35 57 -8 0 -21 12 -30 28 -20 33 -96 92
-119 92 -9 0 -51 35 -94 78 -88 90 -114 108 -161 116 -18 2 -38 9 -44 15 -6 6
-25 11 -42 11 -17 0 -56 7 -86 16 -80 24 -300 15 -389 -15 -70 -24 -140 -82
-167 -136 -8 -16 -22 -43 -31 -60 -12 -21 -18 -61 -20 -137 -3 -96 0 -119 28
-220 18 -62 34 -142 36 -178 3 -36 6 -86 8 -111 3 -42 1 -47 -26 -57 -21 -8
-28 -17 -28 -37 0 -15 -10 -41 -22 -58 -26 -40 -140 -157 -151 -157 -4 0 -25
-11 -45 -25 -45 -30 -63 -31 -88 -4 -10 12 -49 39 -86 60 l-66 39 -164 0
c-129 0 -168 3 -184 15 -10 8 -27 15 -37 15 -34 0 -202 63 -234 87 -40 29 -41
41 -6 45 39 4 39 29 0 54 -26 16 -32 26 -30 52 2 59 11 81 31 75 41 -10 66 73
38 128 -18 35 -21 100 -7 115 15 14 34 93 36 149 1 28 8 63 14 80 14 33 10 42
-44 117 -22 30 -45 50 -62 53 -49 11 -58 20 -61 64 -3 36 0 43 17 48 25 6 27
39 7 95 -11 29 -11 42 0 66 10 26 10 33 -1 42 -11 9 -21 8 -42 -5 -22 -13 -37
-15 -63 -8 l-35 9 -8 80 c-4 43 -11 82 -16 87 -4 4 -20 3 -35 -3 -25 -9 -32
-7 -67 25 -23 20 -50 35 -64 35 -18 0 -25 5 -25 18 0 10 -11 29 -25 42 -21 20
-40 24 -130 31 -58 5 -114 13 -125 19 -31 16 -126 19 -183 5 -83 -20 -279 -93
-308 -114 -14 -11 -46 -22 -72 -26 -70 -11 -92 -40 -94 -128 -2 -80 -17 -239
-28 -305 -7 -38 -5 -46 18 -70 25 -26 26 -30 15 -65 -10 -33 -9 -43 6 -71 13
-25 16 -44 11 -77 -6 -44 -6 -44 39 -76 45 -32 46 -34 46 -87 0 -53 15 -89 61
-154 9 -13 43 -34 75 -47 37 -15 60 -31 63 -42 2 -10 12 -30 22 -45 11 -14 19
-32 19 -40 0 -7 6 -23 14 -34 8 -11 16 -31 18 -44 2 -17 12 -28 33 -35 47 -16
55 -24 55 -59 0 -53 -40 -80 -122 -82 -47 -1 -71 3 -79 12 -15 18 -28 18 -51
-2 -14 -13 -21 -14 -32 -5 -11 9 -20 10 -35 2 -11 -6 -59 -11 -106 -11 -47 0
-96 -5 -108 -11 -12 -7 -69 -15 -128 -19 -83 -6 -118 -13 -160 -33 -30 -14
-72 -27 -94 -29 -39 -3 -43 0 -101 63 -36 40 -66 84 -74 110 -13 41 -25 63
-87 167 -42 71 -53 104 -53 168 0 78 21 144 66 205 l34 47 0 118 c0 109 -2
123 -26 169 -59 113 -146 167 -295 186 -166 20 -234 22 -280 6 -54 -19 -60
-14 -101 72 -17 36 -37 78 -44 93 -8 14 -14 34 -14 43 0 18 -1 19 110 -4 30
-6 87 -15 125 -21 39 -5 113 -19 165 -30 163 -34 263 -50 322 -50 l57 0 53 60
c65 73 88 115 87 155 0 17 -42 111 -97 219 -115 224 -129 240 -240 255 -40 5
-79 14 -85 19 -7 5 -34 13 -62 17 -27 4 -99 18 -160 32 -60 14 -146 31 -190
38 -44 7 -110 20 -148 29 -37 9 -97 23 -135 32 -37 9 -92 20 -122 26 -30 5
-61 14 -69 21 -8 7 -27 41 -43 77 -30 67 -81 169 -176 350 -77 147 -92 178
-92 187 0 14 -110 225 -131 251 -10 14 -19 29 -19 35 0 6 -11 27 -25 47 -20
29 -38 41 -83 55 -31 10 -66 21 -77 25 -44 17 -63 22 -145 35 -47 8 -110 21
-140 30 -91 25 -100 22 -166 -51z"/>
</g>
</svg>
