<?xml version="1.0" encoding="utf-8"?>

<!DOCTYPE svg PUBLIC "-//W3C//DTD SVG 1.1//EN" "http://www.w3.org/Graphics/SVG/1.1/DTD/svg11.dtd">
<svg version="1.1" id="Layer_1" xmlns="http://www.w3.org/2000/svg" xmlns:xlink="http://www.w3.org/1999/xlink" x="0px" y="0px"
	 viewBox="0 0 1077.265 1648" enable-background="new 0 0 1077.265 1648" xml:space="preserve">
<g>
	<path d="M595.714,1131.407c-14.323,6.48-18.895,5.336-15.631,13.107c9.959,23.711,8.632,34.104,6.534,94.807
		c-2.466,71.37-12.149,77.87-5.138,110.588c0.865,4.039,2.684,8.422,1.874,12.174c-2.938,13.613,1.058,26.467,2.871,39.612
		c5.688,41.246-3.343,37.657-2.608,50.951c0.528,9.564-19.352,12.05-39.05,13.832c-7.771,0.703-1.031-3.167-5.136-7.019
		c-6.862-6.442,3.525-13.183-8.808-22.337c7.046-3.145,4.798-11.891,10.363-17.442c1.308,8.497,4.5,5.218,7.899,2.261
		c1.885-1.641,4.468-2.554,6.139-4.35c3.025-3.253,5.005-3.039,6.919,2.167c0.196-6.694,6.711-7.18,8.189-12.39
		c1.211,2.208,1.983,3.616,2.755,5.023c0.982-17.545-7.572-20.353-3.203-27.52c0.911-1.495-1.558-1.836-2.788-2.039
		c-5.367-0.888-3.943-5.289-4.709-8.665c-1.021-4.503,2.187-3.285,4.49-3.781c3.1-0.669,1.799-3.891,2.07-12.118
		c5.694-172.567-13.394-179.368-15.652-213.162c-0.211-3.162-1.552-6.131-5.519-5.614c-7.177,0.936-2.758,8.653,0.84,31.383
		c2.346,14.822,10.611,28.322,9.459,43.96c-0.402,5.451-0.275,10.964,0.356,16.507c4.207,36.948,0.511,40.35,1.935,53.707
		c1.244,11.672,0.414,22.978-6.043,33.609c1.464-28.279-7.673-54.895-12.068-82.267c4.832,13.406,8.822,37.26,12.887,43.596
		c1.333-10.516-3.854-20.023-4.048-30.344c-0.191-10.154-1.604-20.363-10.055-27.958c-1.105,1.508,0.445,3.371-1.689,4.739
		c-0.607-3.104-2.055-5.865-1.405-7.981c3.033-9.866-3.083-19.22-1.197-28.961c0.254-1.311-0.82-4.286-2.54-2.809
		c-3.177,2.728-3.68,5.599-2.403-32.154c0.629-18.58-5.071-11.219-11.857-51.453c-0.754-4.47,2.734-5.675,4.778-1.924
		c2.138,3.924,18.066,15.751,16.059,4.136c-2.184-12.651-7.774-20.33-0.875-29.655c27.632-37.353,9.075-68.558,18.318-102.22
		c1.308-4.765,3.477-10.334,0.5-14.769c-6.618-9.859,5.863-10.634,10.653-51.305c1.064-9.035,0.716-18.055-1.708-27.302
		c-10.895,20.202-35.715,56.58-57.895,54.198c12.978-9.221,21.359-21.848,33.036-30.419c10.314-7.571,15.217-19.283,16.136-24.955
		c1.258-7.771,10.583-6.98,13.589-12.885c0.114-0.223,1.491-0.174,1.901,0.183c4.197,3.655,7.09-0.723,10.541-1.608
		c2.963-0.76,2.37-4.397-0.646-4.191c-4.231,0.289-11.605-1.039-11.35-6.195c0.11-2.225,1.929-1.142,3.142-1.294
		c5.019-0.632,7.963-4.357,11.478-7.056c-1.744-2.956-7.203-0.439-6.41-5.425c1.518-9.537-17.115,3.793-24.229,8.508
		c-3.18,2.108-6.096,5.395-12.34,4.272c9.282-6.206,17.299-11.566,25.317-16.927c-17.977,6.693-25.589-6.621-34.605,5.754
		c-1.896,2.602-6.685,5.733-9.527,2.536c-3.746-4.216,10.649-8.92,6.68-14.475c-1.76-2.464-4.696-5.943-6.97-4.808
		c-14.404,7.191-2.698-9.817-51.102,27.699c-3.842,2.978-4.024,5.863,2.223,7.845c-5.469,1.226-9.562,0.362-13.653-0.039
		c-2.8-0.275-5.445,0.041-5.558,3.448c-0.196,5.954-0.764,12.082,0.361,17.836c2.176,11.134-8.279,6.504-7.692,11.952
		c0.603,5.594,22.074,4.993,26.269,5.222c-6.62,4.236-13.114,3.264-19.378,3.726c-2.437,0.18-7.323-1.24-6.597,2.155
		c0.756,3.54-2.523,9.288,4.396,11.11c14.554,3.833,20.51-0.087,20.802,4.004c0.246,3.455-10.885,3.88-16.596,10.193
		c-10.008,11.062,6.019,11.997,5.832,16.76c-0.154,3.904-7.697,2.81-7.409,6.14c0.51,5.888,21.144,3.298,28.045,1.596
		c2.185-0.539,4.501-1.768,7.312-0.169c-11.576,9.98-23.751,7.464-36.394,3.787c-1.869-0.543-3.888-2.081-5.632,0.228
		c-3.391,4.489-1.491,12.007,3.746,14.581c4.036,1.984,8.012,4.009,11.841,7.403c-11.294,1.91-11.65,1.934-10.868,13.317
		c1.373,19.965,2.999,39.953,8.09,59.396c8.883,33.922-1.747,56.736,16.919,56.737c2.382,0,5.113,0.776,5.154,3.567
		c0.843,57.571-31.871-14.584,15.884,150.13c7.166,24.716,18.93,47.974,23.3,73.62c7.881,46.259,18.376,64.848,3.116,64.306
		c-5.875-0.209-3.813-3.758-3.831-6.676c-0.408-65.851-21.532-98.581-39.93-148.047c-0.482-1.295-1.164-2.585-3.298-2.049
		c-0.57,7.519-3.326,377.604-3.337,378.987h124.352v-223.143h-0.192c0,0,0.211,7.2,0.044-247.096
		C601.522,1134.232,602.75,1128.224,595.714,1131.407z M519.832,1213.407c-1.322-44.874-18.081-5.164-27.881-27.406
		c-4.288-9.734,1.444-12.923,0.87-42.315c-0.021-1.095,0.223-2.696,0.952-3.23c9.917-7.252,5.892-19.622,10.634-28.852
		c2.659-5.174,3.337-11.366,5.273-18.432c2.934,23.884-6.96,26.995,0.856,48.43c12.473,34.207,9.851,41.276,18.896,131.086
		c0.25,2.484,0.273,4.991,0.402,7.487C525.27,1258.045,520.497,1236.006,519.832,1213.407z M522.996,1414.075
		c1.332,8.108,7.652,14.431,7.582,23.009C529.379,1429.814,519.826,1422.843,522.996,1414.075z"/>
	<path d="M974.848,432.209c-2.258,0.274-6.067,1.03-6.841-1.452c-0.952-3.052,0.891-2.225,23.292-14.245
		c1.431-0.768,4.174-1.085,3.149-3.612c-1.662-4.096-9.558,2.188-14.545,1.297c5.047-5.4,7.105-6.375,4.617-10.273
		c-1.214-1.902-2.941-1.697-4.885-1.334c-14.409,2.692-23.027,13.901-33.33,22.612c-1.643,1.389,0.323,2.969,0.287,4.453
		c-0.077,3.151-0.003,7.944-3.443,7.892c-7.862-0.119-1.492,6.435-5.88,13.024c-8.979,13.482-1.403,17.682-12.159,25.453
		c-3.642,2.631-4.143-2.112-6.229-3.244c-0.988-0.537-3.201,0.66-2.769-1.746c0.272-1.52,1.866-1.951,3.267-2.029
		c4.675-0.261,6.812-3.894,9.822-6.424c-3.838-1.239-7.785,5.572-10.736,0.739c-1.878-3.075,1.448-4.98,3.54-6.568
		c12.891-9.78-1.505-13.29,19.151-32.227c2.133-1.956,5.56-1.978,7.726-5.222c-23.187,0.235-31.106,29.209-38.859,33.763
		c-1.228-4.258,2.174-6.243,5.633-11.877c8.808-14.349,5.509-10.899-76.089-11.986c-274.407-3.653-104.567-3.132-235.812-3.132
		c0-22.819,0.106-400.84-0.252-402.073H492.543c-2.075,13.606-1.396-53.066-1.396,393.435c-297.164,0-289.056-5.439-285.199,2.625
		c16.261,33.996,4.402,20.688,60.867,52.199c38.053,21.236,68.359,17.201,99.474,42.947c1.553,1.285,3.472,2.478,5.401,2.907
		c27.475,6.109,60.961,15.906,60.961,15.906c7.517,4.783,15.354-0.755,51.524,5.022c11.204,1.789,4.395,20.127-9.2,15.608
		c-15.333-5.098-20.092-0.546-27.941-1.911c-47.552-8.265-57.416-25.56-89.383-27.286c-8.88-0.479-17.556,3.777-26.782-1.758
		c-3.098-1.858-8.746-1.618-12.732-3.874c-1.382-0.782-44.454-25.286-45.742-26.786c-15.929-18.547-71.967-37.983-67.433-43.117
		c4.694-5.316,0.333-9.628-1.473-13.875c-6.443-15.147-11.205-31.72-28.75-38.596c-2.085-0.817-3.998-5.216-5.925-2.336
		c-1.959,2.927,3.834,7.544,7.413,8.125c7.683,1.248,13.382,14.641,5.111,10.045c-19.006-10.56-19.018-14.809-55.594-26.068
		c8.678,6.098,18.099,11.136,25.619,19.13c-3.459,1.841-6.084,0.289-8.312-0.971c-5.585-3.159-11.836-5.161-16.716-9.584
		c-1.425-1.292-3.527-3.62-5.139-1.067c-3.033,4.805,21.197,10.376,19.562,16.448c-0.711,2.643,0.397,1.798-31.399,0.743H25.841
		c3.594,135.853-1.702,122.997,14.536,123.266c262.27,4.337,261.412,5.914,251.895-0.136c-3.778-2.402-7.937-4.178-11.565-6.821
		c-3.703-2.697-7.051-5.96-10.591-8.871c-7.283-5.988-14.772-11.725-22.452-17.196c-15.002-10.688-30.727-20.342-46.974-29.018
		c-4.537-2.423-9.114-4.771-13.727-7.048c6.496,0.15,12.957-1.001,21.092,1.016c-6.997,2.65-5.323,4.376-1.616,6.553
		c69.701,40.924,64.078,38.904,68.436,39.81c26.231,5.455,87.417,39.214,93.925,32.413c-3.821-4.27-9.711-5.086-13.335-9.384
		c15.141,3.932,5.581-8.98,65.652,15.221c7.241,2.917,15.499,4.339,21.608,8.617c7.848,5.496,16.344,5.679,24.773,7.04
		c15.581,2.516,18.503,22.529,7.443,18.283c-9.407-3.611-19.391-6.229-24.961-15.892c-1.065-1.847-38.726-15.953-39.778-10.336
		c-0.991,5.291,17.254,5.017,25.101,12.575c20.821,20.056,35.037,9.272,36.932,23.171c6.397,46.938,11.387,62.165,11.084,81.391
		c-0.051,3.258-0.341,102.633,2.62,103.813c5.62-6.631,7.723-15.151,11.728-24.127c2.5,6.327,0.803,10.933-1.013,15.243
		c-30.398,72.155-27.305,38.904,48.916,46.737c4.543,0.467,9.2-0.101,13.8-0.295c2.984-0.126,5.07-1.384,6.294-4.419
		c15.23-37.777,3.853-59.61,28.408-65.23c7.396-1.693,11.844-6.811,11.111-14.509c-3.731-39.196-30.075-80.374-40.914-49.811
		c-7.48,21.094-7.237,23.909-10.168,23.226c-3.427-0.799-1.453-10.96-0.968-12.88c3.462-13.696-9.696-10.146-6.124-17.872
		c10.942-23.658,23.505-17.327,14.552-24.515c-6.474-5.198-11.322-4.299-23.999-7.833c-12.306-3.431-3.319-13.844,6.631-21.346
		c10.854-8.183,19.451-19.085,33.78-23.015c12.977-3.559,14.241-7.859,12.192-21.3c-2.741-17.989-5.601-9.251-15.195,2.406
		c-2.307,2.803-2.408,2.719-6.891,1.566c5.448-2.532,6.673-6.457,3.971-11.338c-5.705-10.306-20.288,8.214-26.171,4.289
		c-6.822-4.552,1.049-9.837-2.583-11.471c-1.871-0.842-2.724,1.094-3.872,2.129c-1.194,1.076,0.814,3.341-2.76,4.36
		c-0.475-9.419-5.966-14.733-14.613-17.418c-3.507-1.089-6.172-3.907-8.975-6.32c-3.224-2.776-3.615-5.439,0.247-8.426
		c-1.855,0.754-8.542,5.374-13.89-5.827c-0.776-1.626,0.093-1.8,0.974-2.581c16.723-14.82,23.219-6.475,32.894-19.766
		c1.47-2.019,3.001-4.066,7.451-2.161c4.272,1.829,12.769-0.406,13.372-5.371c1.005-8.276,16.922-11.04,12.182-17.312
		c-3.27-4.327-5.449,1.661-7.766,3.356c-6.724,4.917-11.611,3.699-12.809-3.735c-0.709-4.401,2.245-9.808-3.475-11.174
		c-4.207-1.005-1.86,2.621-2.748,3.865c-1.49,2.088-1.879,5.039-5.926,5.255c1.031-4.184-0.942-7.522,0.195-12.084
		c1.721-6.906-5.735-14.142-16.866-8.714c-13.255,6.464-6.938-8.609-9.641-9.111c-2.832,9.195-4.071,18.588-4.501,28.681
		c-1.143-13.356-11.266-3.378-16.805-3.579c-4.684-0.169-5.965,2.756-6.547,6.384c-2.151,13.404,1.057,18.12,5.23,14.502
		c7.797-6.76,19.687-0.683,26.303-9.505c12.045,2.399,27.893-7.111,28.055-0.719c0.064,2.538-2.097,1.623-3.599,1.672
		c-33.857,1.117-21.448,9.435-40.632,10.088c-17.909,0.609-8.823,17.905-19.489,6.923c-9.145-9.416,1.404-13.44,1.24-18.381
		c-0.4-12.052,7.536-16.343,17.314-19.47c2.609-0.834,8.586,0.056,7.268-3.727c-2.191-6.289-12.446,4.219-14.482,0.643
		c-2.105-3.698,7.239-8.243,12.465-9.884c1.33-0.418,3.421-0.119,3.224-2.647c-4.617-1.812-7.083,3.677-12.793,3.363
		c5.381-7.158,10.145-13.855,17.749-16.555c21.139-7.507,42.283-11.014,61.791,4.788c1.191,0.965,3.345,0.873,4.329,1.94
		c3.661,3.967,10.426,7.682,8.87,13.056c-5.265,18.18,20.452,15.557,22.499,40.032c0.247,2.953-0.703,6.169,0.136,8.88
		c2.618,8.45,0.774,15.856-3.922,22.944c-6.043,9.121,1.927,17.039,4.444,14.069c2.387-2.817,5.526-2.196,8.346-1.957
		c13.698,1.16,27.321-0.451,41.272,1.778c11.874,1.897,24.64,1.586,37.006,2.477c11.509,0.83,21.534-2.841,32.273-6.056
		c11.089-3.319,24.801-4.837,34.331-11.65c3.776-2.699,7.223-5.852,10.951-8.621c13.717-10.188,29.665-16.587,46.02-21.205
		c2.26-0.638,4.53-1.242,6.807-1.817c31.823-8.032,51.428-20.777,78.005-36.38c-9.538,14.01-14.601,30.542-29.57,41.858
		c8.032,1.087,15.018-11.37,28.479-15.82c2.515-0.831,5.331,1.515,6.527-0.682c5.501-10.105,31.209-3.344,45.873-19.732
		c5.737-6.411,5.51-6.809-2.729-11.326c12.175-2.511,16.837-15.86,15.027-17.824c-2.528-2.743-5.357,0.417-11.981,2.869
		c-2.53,0.937-3.86-2.098-2.478-2.912c9.869-5.809,22.479-10.031,20.827,1.177c-3.866,26.218-7.453,15.854-14.313,25.804
		c-11.193,16.232-32.81,17.842-70.007,41.703c-13.147,8.433-37.999,29.959-37.999,29.959s-8.564,6.305-12.056,9.551
		c0.045,0.048,0.089,0.077,0.133,0.121h215.262V436.934C1045.427,429.328,982.627,431.266,974.848,432.209z M159.372,443.228
		c-1.546,2.516-3.497,1.316-5.262,0.054c-1.245-0.89-3.324-1.396-2.824-3.382c1.149-4.566,13.775-2.349,16.167-2
		C164.3,440.309,161.034,440.523,159.372,443.228z M231.526,482.295c6.979,1.692,11.022,7.749,16.873,11.119
		C241.279,491.93,236.186,487.435,231.526,482.295z M518.819,736.311c13.922,1.193,16.491,7.104,15.055,9.395
		c-1.725,2.752-2.66-0.029-15.568-2.414C512.788,742.271,513.949,736.214,518.819,736.311z M497.556,482.371
		c-4.018,2.321-1.483,10.163-8.368,9.766c-4.301-0.248-1.761-3.454-1.889-5.143c-0.471-6.178,6.362-3.464,7.615-6.64
		C497.221,480.418,498.457,481.851,497.556,482.371z M512.348,483.217c-3.139,0.184-2.947-2.021-3.234-3.693
		c-0.491-2.867,1.831-2.69,3.509-2.841C516.608,476.324,517.526,481.234,512.348,483.217z M507.999,470.049
		c-0.649-0.83-0.762-2.511,0.527-2.929c3.565-1.156,5.311,2.707,8.325,3.5C513.739,470.919,510.474,473.214,507.999,470.049z"/>
	<path d="M610.562,903.623c-0.003-1.318,0.248-3.301-1.856-3.842c-6.116,5.922-10.133,51.707-10.613,55.317
		c-4.921,37.057-15.33,72.809-27.017,108.211c-13.256,40.151,4.54,72.924,10.625,66.481c1.941-2.055,2.306-6.484-0.782-9.391
		c-1.382-1.3-6.901-4.373-2.759-10.511c6.745-9.995,16.46-5.435,17.997-27.665c0.19-2.752,3.618-18.307,2.931-43.674
		c2.898,2.072,2.513,3.889,3.006,5.347c4.581,13.542,4.609,13.595,14.894,3.963c2.924-2.738,6.679-4.854,6.6-9.894
		C622.324,957.193,610.624,934.252,610.562,903.623z"/>
	<path d="M548.185,560.367c2.535,0.606,4.298-1.301,6.419-2.012c3.315-1.111,4.51-3.876,4.628-7.013
		c0.21-5.57-11.224-1.667-7.691-9.524c4.772-10.616-4.047-7.906-10.597-9.261c-10.775-2.228-14.332,0.46-15.005,11.367
		c9.455,6.05,7.203,14.176,12.266,13.724c2.214-0.198,1.79-2.046,2.168-3.615c1.225-5.087,5.981-4.632,8.832-3.487
		C554.27,552.579,544.99,557.578,548.185,560.367z"/>
	<path d="M719.649,560.227c-14.176,2.838-28.198,6.456-42.26,9.847c-2.106,0.508-5.298,1.031-4.602,3.966
		c1.476,6.229,85.384-22.665,91.527-24.863C759,545.961,735.757,557.002,719.649,560.227z"/>
	<path d="M457.846,851.83c6.989,11.294,24.761-24.854,62.132-28.297c-13.94-5.972-18.899-1.09-58.007,22.82
		C459.964,847.58,455.53,848.087,457.846,851.83z"/>
	<path d="M577.041,656.067c-2.699,7.569,32.64,14.552,34.768,4.754c0.396-1.825-1.129-2.684-2.353-2.794
		C603.8,657.52,579.046,650.444,577.041,656.067z"/>
	<path d="M457.875,827.876c-6.969,1.14-7.213,9.066,1.63,9.627c5.339-0.327,10.004-3.512,15.042-5.635
		c1.475-0.622,3.052-1.656,2.732-3.536C476.841,825.758,475.555,824.982,457.875,827.876z"/>
	<path d="M552.666,1440.902c-1.128-1.227-0.834-4.297-3.299-3.599c-6.911,1.957,1.698,36.006,8.135,22.255
		c0.924-1.974,0.69-4.017,0.371-6.588C559.508,1447.9,555.941,1444.466,552.666,1440.902z"/>
	<path d="M598.838,770.115c0.298-2.511-0.559-3.782-2.177-4.497c-4.005-1.769-4.79,0.441-11.967,14.56
		C583.15,783.218,586.933,792.159,598.838,770.115z"/>
	<path d="M631.031,843.194c-2.614-0.591-11.427,5.731-10.638,7.265c2.558,4.97,8.018,4.765,12.449,5.771
		c3.206,0.728,2.773-2.756,3.054-5.219C634.988,848.125,635.179,844.133,631.031,843.194z"/>
	<path d="M819.204,539.907c10.901-4.189,14.227-4.759,12.787-8.042C828.114,523.031,804.442,541.878,819.204,539.907z"/>
	<path d="M517.354,454.408c7.947,2.533,14.829,5.759,22.923,7.086C532.458,450.887,527.431,449.24,517.354,454.408z"/>
	<path d="M595.137,504.829c0.333-0.651,1.563,0.29,1.756,1.317c0.301,1.594-0.89,4.521,1.924,4.122
		c2.804-0.398,1.976-3.635,2.49-5.552c-0.232-1.715-0.04-4.374-1.923-3.933c-15.87,3.712-14.564,5.096-13.366,8.594
		c0.49,1.431,1.584,2.373,3.085,2.312c2.733-0.11,1.521-1.695,1.409-3.333C590.319,505.544,594.074,506.907,595.137,504.829z"/>
	<path d="M545.416,513.859c-1.766-3.547-4.237-1.262-6.215-0.286c-4.037,1.993-8.913,2.644-11.616,6.843
		C524.91,524.574,545.521,519.792,545.416,513.859z"/>
	<path d="M644.066,628.742c-0.359,1.404,0.06,3.272,1.682,3.148c3.725-0.284,3.309-2.595,6.076-11.342
		C652.174,616.747,647.1,616.892,644.066,628.742z"/>
	<path d="M597.983,495.057c-0.316-3.14-2.29-3.617-4.396-3.591c-9.448,0.118-12.22-4.936-15.08-2.419
		c-1.382,1.215,0.551,5.624,4.829,5.486C589.764,494.324,592.736,489.473,597.983,495.057z"/>
	<path d="M589.303,1113.707c0.072,1.964,2.472,2.889,4.315,2.223c4.722-1.706,4.048-5.737,4.095-10.339
		C593.536,1107.705,589.114,1108.54,589.303,1113.707z"/>
	<path d="M585.258,803.844c2.471-2.569,4.043-6.004,5.719-8.638c1.083-6.872-7.117-0.566-8.47,6.475
		C582.17,803.432,583.687,805.478,585.258,803.844z"/>
	<path d="M583.417,526.569c3.174-0.296,2.806-2.959,3.254-5.106c0.984-4.717-8.498-6.195-7.893-0.239
		C579.039,523.8,580.275,526.067,583.417,526.569z"/>
	<path d="M571.532,1438.256c-2.419,1.484-1.46,4.041-1.492,6.189c-0.023,1.483-0.255,3.266,1.884,4.45
		C578.595,1441.015,572.914,1437.408,571.532,1438.256z"/>
	<path d="M563.724,1457.571c1.654-3.974,2.996-7.573,1.022-11.608C562.235,1440.831,558.504,1453.333,563.724,1457.571z"/>
	<path d="M801.862,541.372c-1.766,0.16-4.008,0.416-4.043,2.779c-0.068,4.614,8.095,3.331,8.146-0.576
		C806,540.916,803.594,541.215,801.862,541.372z"/>
	<path d="M571.04,1457.93c-0.318,1.601,1.758,1.67,3.267,1.749c6.265-0.755,5.112-6.883,2.506-5.938
		C574.52,1454.573,571.589,1455.16,571.04,1457.93z"/>
	<path d="M525.755,543.873c0.021,0.015,0.162,0.115,0.178,0.135c0.002-0.03,0.005-0.055,0.007-0.085
		c-0.058-0.037-0.11-0.079-0.169-0.116C525.765,543.829,525.761,543.852,525.755,543.873z"/>
	<path d="M522.411,548.713c3.381,0.323,2.787-2.804,3.343-4.84C519.849,539.536,518.052,548.297,522.411,548.713z"/>
</g>
</svg>
