<?xml version="1.0" standalone="no"?>
<!DOCTYPE svg PUBLIC "-//W3C//DTD SVG 20010904//EN"
 "http://www.w3.org/TR/2001/REC-SVG-20010904/DTD/svg10.dtd">
<svg version="1.0" xmlns="http://www.w3.org/2000/svg"
 width="925.000000pt" height="1280.000000pt" viewBox="0 0 925.000000 1280.000000"
 preserveAspectRatio="xMidYMid meet">
<metadata>
Created by potrace 1.15, written by Peter Selinger 2001-2017
</metadata>
<g transform="translate(0.000000,1280.000000) scale(0.100000,-0.100000)"
fill="#000000" stroke="none">
<path d="M945 11744 c-11 -3 -39 -12 -62 -20 -72 -26 -66 -85 21 -181 27 -29
49 -65 53 -85 13 -70 121 -187 231 -249 56 -33 72 -53 72 -94 0 -14 18 -61 39
-104 32 -62 57 -94 129 -162 49 -46 104 -101 122 -122 30 -35 31 -39 16 -56
-9 -9 -16 -29 -16 -43 0 -29 56 -105 135 -183 107 -106 175 -183 175 -198 0
-9 -9 -21 -20 -27 -10 -6 -22 -26 -26 -45 -12 -64 94 -217 269 -391 23 -23 47
-46 52 -53 48 -54 319 -311 328 -311 15 0 40 -38 33 -49 -3 -4 -19 -8 -36 -9
-37 -1 -188 -72 -214 -101 -23 -26 -33 -109 -16 -141 11 -21 9 -26 -23 -55
-51 -47 -63 -100 -42 -183 22 -87 36 -112 93 -163 48 -43 50 -46 55 -113 7
-80 20 -103 105 -190 49 -50 74 -67 117 -81 l55 -17 0 -43 c0 -24 5 -47 10
-50 13 -8 13 -52 0 -60 -17 -10 -40 -75 -40 -110 0 -21 12 -51 33 -81 36 -53
36 -67 0 -101 -41 -39 -27 -179 24 -235 24 -26 111 -69 149 -72 42 -4 64 -22
64 -52 0 -48 102 -136 174 -149 69 -13 74 -24 81 -175 4 -95 12 -152 27 -195
21 -64 68 -264 95 -410 18 -97 19 -131 8 -242 -14 -133 23 -450 58 -491 6 -7
25 -12 44 -10 18 1 37 -2 43 -8 12 -12 3 -64 -10 -64 -5 0 -11 -9 -15 -19 -3
-11 -24 -26 -45 -35 -34 -14 -40 -20 -40 -46 0 -41 22 -110 35 -110 6 0 26 16
45 35 27 27 37 32 52 24 24 -13 23 -29 -12 -133 -33 -95 -73 -252 -85 -326 -8
-53 -49 -291 -70 -405 -8 -44 -20 -123 -26 -175 -6 -52 -17 -131 -25 -175 -8
-44 -19 -120 -24 -170 -6 -49 -15 -119 -20 -155 -5 -36 -12 -128 -15 -205 -6
-152 -29 -318 -49 -350 -36 -58 -28 -89 42 -166 64 -70 129 -105 209 -114 54
-7 65 -5 89 14 59 46 65 20 40 -174 -8 -61 -17 -173 -21 -250 -3 -77 -8 -153
-11 -170 -3 -16 -7 -140 -10 -275 -3 -162 -9 -270 -19 -318 -21 -101 -6 -234
40 -342 12 -30 30 -81 40 -113 19 -66 16 -74 -45 -108 -30 -17 -45 -37 -71
-92 -26 -58 -57 -97 -161 -206 -71 -75 -140 -142 -153 -149 -46 -24 -41 -82 9
-123 12 -10 44 -20 73 -24 28 -3 57 -13 64 -21 9 -11 13 -96 13 -334 1 -175 5
-322 9 -327 5 -4 663 -9 1463 -11 l1454 -3 -3 353 c-2 251 -7 366 -16 398 -12
42 -12 48 13 94 39 73 35 98 -24 156 -28 27 -62 73 -75 102 -23 51 -85 295
-85 336 0 11 21 44 46 74 54 63 62 78 99 184 l29 81 -31 64 c-51 105 -70 191
-83 364 -6 88 -18 202 -26 253 -8 51 -14 117 -14 145 0 29 -6 90 -14 137 -8
47 -22 144 -31 215 -9 72 -25 164 -36 206 -10 41 -19 91 -19 110 0 20 -6 58
-14 85 -8 27 -17 81 -20 119 -4 39 -25 158 -46 265 -21 107 -46 245 -55 305
-9 61 -21 139 -26 175 -6 36 -12 85 -13 110 -2 25 -11 108 -19 185 -28 254
-32 344 -14 351 26 10 99 -30 166 -92 l65 -59 69 0 c60 0 71 3 88 24 12 15 19
39 19 68 0 25 11 87 25 138 34 128 45 238 45 450 0 128 -4 197 -15 238 -15 60
-13 83 34 372 34 204 38 488 11 680 -21 140 -22 183 -10 233 10 44 9 61 -10
133 -22 86 -21 109 5 109 24 0 197 85 223 110 31 29 43 64 40 113 -2 33 2 43
25 59 40 29 57 69 57 134 0 46 -5 64 -25 90 -14 18 -25 37 -25 41 0 5 14 22
31 39 39 37 69 95 69 133 0 25 10 36 69 75 39 26 86 69 109 99 45 60 92 148
92 173 0 28 40 83 84 114 23 17 56 54 74 83 43 72 54 128 40 200 l-11 58 35
37 c66 68 128 173 128 214 0 58 -80 138 -138 138 -11 0 -25 7 -32 15 -11 13
-9 23 8 58 12 24 27 66 33 94 18 75 2 106 -64 130 -32 11 -53 25 -55 36 -2 10
13 38 35 63 56 65 232 237 257 251 27 15 94 94 138 164 38 59 68 138 68 179 0
32 45 76 190 187 203 156 417 382 434 460 6 24 29 49 94 102 48 39 99 83 115
97 32 30 65 92 60 115 -2 9 15 28 44 49 88 61 143 121 150 163 4 27 13 42 28
49 13 6 29 21 36 34 20 38 1 73 -56 108 -47 29 -56 31 -141 30 -222 -2 -601
-140 -1001 -362 -158 -88 -231 -131 -291 -173 -30 -22 -59 -39 -64 -39 -5 0
-79 -53 -165 -117 -85 -65 -180 -135 -210 -156 -30 -21 -91 -73 -136 -115 -45
-42 -104 -93 -131 -112 -27 -19 -79 -62 -115 -96 -36 -33 -84 -71 -106 -83
-22 -13 -46 -32 -54 -43 -34 -49 -297 -331 -353 -380 -153 -132 -261 -258
-366 -431 -29 -46 -72 -48 -72 -3 0 13 -7 29 -15 36 -8 7 -15 20 -15 29 0 10
-13 30 -29 45 -29 28 -29 29 -15 68 31 88 10 186 -68 314 -37 62 -88 104 -197
160 -74 39 -74 39 -205 41 -129 2 -188 -5 -276 -34 -58 -18 -84 -36 -141 -92
-99 -99 -125 -169 -115 -306 l7 -93 -45 -45 c-45 -44 -60 -87 -36 -102 6 -3
10 -28 10 -55 0 -44 3 -51 28 -64 35 -18 109 -124 106 -153 -1 -25 -51 -72
-76 -73 -9 0 -30 -11 -46 -25 -27 -23 -36 -42 -48 -99 -2 -11 -8 -24 -14 -30
-16 -15 -31 7 -81 123 -23 53 -57 128 -74 166 -18 39 -40 93 -50 120 -36 99
-114 254 -139 276 -14 13 -26 29 -26 36 0 7 -27 43 -60 78 -33 35 -60 70 -60
77 0 7 -23 40 -52 73 -28 33 -86 105 -129 160 -99 128 -192 219 -263 258 -40
23 -125 100 -284 258 -125 124 -261 251 -302 282 -41 31 -109 82 -150 114 -41
32 -101 77 -132 98 -31 22 -93 67 -137 100 -103 78 -217 149 -260 164 -19 6
-50 23 -68 37 -54 41 -265 137 -418 190 l-140 48 -150 2 c-82 2 -159 1 -170
-2z"/>
</g>
</svg>
