<?xml version="1.0" encoding="UTF-8" standalone="no"?>
<svg id="svg4162" xmlns:rdf="http://www.w3.org/1999/02/22-rdf-syntax-ns#" xmlns="http://www.w3.org/2000/svg" height="238" viewBox="0 0 243 238" width="243" version="1.1" xmlns:cc="http://creativecommons.org/ns#" xmlns:dc="http://purl.org/dc/elements/1.1/">
<g id="g4172">
<path id="path4176" fill="#fe0000" d="m77.75 236.92c-2.0255-1.1797-2.5256-10.744-0.65934-12.611 0.78755-0.78755 0.23232-2.7191-1.9979-6.95-1.8718-3.5512-3.0894-7.3497-3.0907-9.6427-0.0017-3.002-0.73833-4.5195-3.567-7.3482-1.9607-1.9607-4.8369-5.3208-6.3915-7.467l-2.8267-3.9021-0.63984 2.7503c-1.861 7.99-7.341 14.25-12.482 14.25-1.583 0-2.096 0.63-2.096 2.57 0 4.79 1.66 6.43 6.5 6.43 5.915 0 7.9414 4.0235 5.8862 11.687-1.3614 5.0767-15.37 6.0861-20.526 1.4791-5.506-4.92-5.368-23.17 0.175-23.17 1.544 0 1.965-0.69 1.965-3.2 0-1.759 0.53237-6.8802 1.183-11.38 1.0804-7.4723 0.99244-8.9086-1.0135-16.552-3.201-12.2-3.012-15.87 0.815-15.87h2.9853l-1.9816-3.25c-1.3671-2.2422-1.9827-5.0331-1.9853-9l-0.004-5.75 3.25 0.00055 3.25 0.00054-0.14703-6.558c-0.10833-4.832-0.63471-7.0965-2-8.6041-2.877-3.18-3.196-17.91-0.546-25.275 1.955-5.437 1.957-5.565 0.097-5.565-1.703 0-1.904-0.793-1.904-7.5v-7.5h-3.025c-4.189 0-5.293-3.293-4.71-14.061 0.66-12.21 3.421-16.939 9.89-16.939 4.8239 0 4.8433 0.12221-1.1642-7.3061-5.667-7.008-15.965-15.445-19.879-16.287-1.436-0.31-3.587-1.034-4.779-1.61-1.193-0.575-5.001-1.553-8.4634-2.173-5.8503-1.047-6.3599-1.351-7.2078-4.308-6.3644-22.191 58.879-13.724 70.769 9.184l1.5571 3 0.0062-2.8489c0.024-11.336 23.914-19.723 32.696-11.477l2.31 2.175v-3.134c0-3.13 5.6632-9.6909 9.8352-11.394 8.42-3.4413 25.16 3.709 25.16 10.749v2.4895l2.75-1.9989c9.4712-6.8843 29.449-1.7925 32.028 8.1633l0.80169 3.0938 3.3582-4.24c15.038-18.987 66.094-24.768 60.502-6.8505-0.90787 2.9086-2.2191 3.7381-5.9397 3.7574-6.34 0.03284-21.319 10.61-23.063 16.286-0.37678 1.2261-1.7267 3.3543-2.9997 4.7293-1.2731 1.375-3.7388 4.1875-5.4794 6.25l-3.1647 3.75h5.0568 5.0568l2.1451 4.75c4.53 10.029 3.89 24.25-1.1 24.25h-2.95v9 9h-3.3486-3.3486l0.92568 5.75c1.6229 10.081 0.64791 17.113-3.0827 22.233-3.1797 4.3642-3.2118 4.5079-1.2062 5.4028 1.1332 0.50566 2.0604 1.5256 2.0604 2.2666 0 0.93 1.3935 1.3472 4.5 1.3472h4.5v5.3697c0 2.9534-0.9 8.187-2 11.63-1.1 3.4433-2 6.4269-2 6.6303 0 0.20335 1.35 0.36973 3 0.36973h3v6.2899c0 3.4594-0.64383 8.7618-1.4307 11.783-2.2967 8.8176-1.762 25.129 0.96305 29.381 10.257 16.002-7.132 37.324-23.357 28.64-6.6748-3.5723-3.9087-14.277 3.6056-13.954 8.2508 0.35529 14.121-12.326 6.9654-15.046-3.1-1.17-6.75-8.39-6.75-13.35 0-5.0994-1.7257-5.5714-3.7676-1.0305-2.0152 4.4814-10.115 12.582-14.324 14.325-2.5098 1.0396-2.9079 1.7401-2.9079 5.1169 0 3.4113-0.44827 4.1769-3.5 5.9774-1.925 1.1358-3.5 2.8599-3.5 3.8314s-0.92716 2.945-2.0604 4.3857c-1.1332 1.4406-2.3235 4.2407-2.645 6.2224-1.1458 7.0605-11.333 7.5521-13.253 0.63954-1.3102-4.7174-1.3265-9.8112-0.0393-12.217 2.3386-4.3697-1.1835-2.6696-5.0334 2.4295-11.043 14.627-31.507 14.796-43.469 0.35823l-5-6.0345-0.679 7.8759c-1.235 14.31-6.898 20.06-15.072 15.3z"/>
<path id="path4174" d="m77.75 236.92c-2.0255-1.1797-2.5256-10.744-0.65934-12.611 0.78755-0.78755 0.23232-2.7191-1.9979-6.95-1.8718-3.5512-3.0894-7.3497-3.0907-9.6427-0.0017-3.002-0.73833-4.5195-3.567-7.3482-1.9607-1.9607-4.8369-5.3208-6.3915-7.467l-2.8267-3.9021-0.63984 2.7503c-1.861 7.99-7.341 14.25-12.482 14.25-1.583 0-2.096 0.63-2.096 2.57 0 4.79 1.66 6.43 6.5 6.43 5.915 0 7.9414 4.0235 5.8862 11.687-1.3614 5.0767-15.37 6.0861-20.526 1.4791-5.506-4.92-5.368-23.17 0.175-23.17 1.544 0 1.965-0.69 1.965-3.2 0-1.759 0.53237-6.8802 1.183-11.38 1.0804-7.4723 0.99244-8.9086-1.0135-16.552-3.201-12.2-3.012-15.87 0.815-15.87h2.9853l-1.9816-3.25c-1.3671-2.2422-1.9827-5.0331-1.9853-9l-0.004-5.75 3.25 0.00055 3.25 0.00054-0.14703-6.558c-0.10833-4.832-0.63471-7.0965-2-8.6041-2.877-3.18-3.196-17.91-0.546-25.275 1.955-5.437 1.957-5.565 0.097-5.565-1.703 0-1.904-0.793-1.904-7.5v-7.5h-3.025c-4.189 0-5.293-3.293-4.71-14.061 0.66-12.21 3.421-16.939 9.89-16.939 4.8239 0 4.8433 0.12221-1.1642-7.3061-5.667-7.008-15.965-15.445-19.879-16.287-1.436-0.31-3.587-1.034-4.779-1.61-1.193-0.575-5.001-1.553-8.4634-2.173-5.8503-1.047-6.3599-1.351-7.2078-4.308-6.3644-22.191 58.879-13.724 70.769 9.184l1.5571 3 0.0062-2.8489c0.024-11.336 23.914-19.723 32.696-11.477l2.31 2.175v-3.134c0-3.13 5.6632-9.6909 9.8352-11.394 8.42-3.4413 25.16 3.709 25.16 10.749v2.4895l2.75-1.9989c9.4712-6.8843 29.449-1.7925 32.028 8.1633l0.80169 3.0938 3.3582-4.24c15.038-18.987 66.094-24.768 60.502-6.8505-0.90787 2.9086-2.2191 3.7381-5.9397 3.7574-6.34 0.03284-21.319 10.61-23.063 16.286-0.37678 1.2261-1.7267 3.3543-2.9997 4.7293-1.2731 1.375-3.7388 4.1875-5.4794 6.25l-3.1647 3.75h5.0568 5.0568l2.1451 4.75c4.53 10.029 3.89 24.25-1.1 24.25h-2.95v9 9h-3.3486-3.3486l0.92568 5.75c1.6229 10.081 0.64791 17.113-3.0827 22.233-3.1797 4.3642-3.2118 4.5079-1.2062 5.4028 1.1332 0.50566 2.0604 1.5256 2.0604 2.2666 0 0.93 1.3935 1.3472 4.5 1.3472h4.5v5.3697c0 2.9534-0.9 8.187-2 11.63-1.1 3.4433-2 6.4269-2 6.6303 0 0.20335 1.35 0.36973 3 0.36973h3v6.2899c0 3.4594-0.64383 8.7618-1.4307 11.783-2.2967 8.8176-1.762 25.129 0.96305 29.381 10.257 16.002-7.132 37.324-23.357 28.64-6.6748-3.5723-3.9087-14.277 3.6056-13.954 8.2508 0.35529 14.121-12.326 6.9654-15.046-3.1-1.17-6.75-8.39-6.75-13.35 0-5.0994-1.7257-5.5714-3.7676-1.0305-2.0152 4.4814-10.115 12.582-14.324 14.325-2.5098 1.0396-2.9079 1.7401-2.9079 5.1169 0 3.4113-0.44827 4.1769-3.5 5.9774-1.925 1.1358-3.5 2.8599-3.5 3.8314s-0.92716 2.945-2.0604 4.3857c-1.1332 1.4406-2.3235 4.2407-2.645 6.2224-1.1458 7.0605-11.333 7.5521-13.253 0.63954-1.3102-4.7174-1.3265-9.8112-0.0393-12.217 2.3386-4.3697-1.1835-2.6696-5.0334 2.4295-11.043 14.627-31.507 14.796-43.469 0.35823l-5-6.0345-0.679 7.8759c-1.235 14.31-6.898 20.06-15.072 15.3zm8.7444-7.5607c4.5566-10.906 2.6055-19.55-5.2258-23.153-5.7603-2.65-6.4652-1.086-2.7226 6.0412 3.941 7.505 4.6682 11.499 2.8077 15.42-1.717 3.62-1.173 5.33 1.693 5.33 1.2719 0 2.445-1.2384 3.4488-3.6408zm69.717-4.7128c0.43917-2.1137 1.6963-4.9845 2.7937-6.3796s1.9952-3.3313 1.9952-4.3028 1.575-2.6956 3.5-3.8314c4.8972-2.8894 4.5686-4.4888-0.73805-3.5923-6.3181 1.0674-12.356 6.3958-13.042 11.509-1.2322 9.187 3.7174 15.133 5.491 6.5967zm50.448 1.1494c4.01-4.01 5.023-12.453 2.1651-18.046-1.6615-3.2512-2.5891-1.779-3.0062 4.771-0.59566 9.3546-4.8842 12.811-12.568 10.13-2.8587-0.99769-3.291 3.6092-0.5 5.3276 3.041 1.8723 11.122 0.60434 13.909-2.1824zm-157.75 0.0872c5.3221-1.8553 4.131-6.4964-1.5595-6.0763-4.741 0.35-7.35-2.13-7.35-6.97 0-3.546-1.5947-4.4623-3.0462-1.7502-1.931 3.6082-0.30784 10.438 3.1778 13.371 3.4043 2.8645 4.2518 3.0022 8.7743 1.4257zm76.818-1.3937c5.1433-1.5274 8.1169-3.8605 14.026-11.005 5.0435-6.098 3.9417-8.4312-4-8.4707-7.4401-0.0369 1.9552-5.5457 15.25-8.9415 18.785-4.7981 31.327-18.309 29.593-31.879-1.274-9.9694-1.5489-9.2065 4.5392-12.596 12.655-7.0447 18.202-23.097 6.4351-18.623-6.0933 2.3167-11.869 1.0697-17.567-3.7927-4.6926-4.0044-3.4764-4.7173 5.4441-3.1914 17.928 3.0667 26.578-13.139 17.421-32.637-1.9674-4.1889-2.253-6.2665-2.0851-15.167 0.22456-11.903-0.58684-14.532-6.6445-21.531-4.7501-5.4883-4.6477-6.173 1.1569-7.7322 5.0279-1.3505 18.584-14.577 20.144-19.653 1.6964-5.5203 16.715-16.27 22.732-16.27 6.2619-0.000537 7.9411-3.0693 2.6826-4.9024-20.85-7.2823-56.85 13.525-56.85 32.85 0 5.3456-2.2885 5.3769-7.4397 0.10164-7.7028-7.8884-18.67-9.9678-29.251-5.5464-4.9982 2.0884-7.4397 1.1867-4.4156-1.6307 4.4497-4.1455-17.519-8.3135-26.202-4.9711l-2.8081 1.0811 1.7555 2.9719c2.183 3.6955 1.5933 4.3591-2.5808 2.904-8.4967-2.962-19.882 0.21947-27.017 7.5492-6.708 6.892-10.042 5.896-10.042-2.997 0-17.694-20.226-31.669-46-31.782-18.21-0.0802-26.561 5.402-12.155 7.98 3.4759 0.62189 7.2953 1.6019 8.4874 2.1777 1.1921 0.57586 3.3413 1.2996 4.776 1.6083 4.188 0.901 13.907 9.018 20.392 17.03 6.5572 8.101 9.6797 10.888 13.5 12.049 5.0723 1.5419 5.1197 2.3355 0.50138 8.4081-5.4537 7.1712-5.9037 8.9795-4.5883 18.437 1.1991 8.6209 0.8111 10.228-4.3511 18.021-13.69 20.667-5.6666 35.53 16.217 30.042 6.1629-1.5456 11.899-0.54145 6.6379 1.1621-1.0545 0.34148-3.5769 1.4944-5.6053 2.562-5.8145 3.0603-12.65 4.7832-16.5 4.1585l-3.5366-0.57392 0.68275 3.399c1.553 7.7314 4.7139 12.043 11.228 15.317 7.9833 4.0116 7.5461 3.3417 8.0378 12.315 0.9592 17.505 10.919 29.329 28.014 33.257 9.4273 2.1664 13.543 7.1641 5.5613 6.7524-6.7793-0.34971-8.1267 3.1872-3.1583 8.2907 1.8562 1.9067 4.8168 5.1506 6.5789 7.2085 6.513 7.6061 11.467 9.0797 21.004 6.2476zm-10.23-29.14c-1.65-0.89663-4.2286-2.2724-5.7301-3.0572-4.3525-2.2749-4.1644-3.0667 1.3986-5.8856 8.3078-4.2099 22.332-1.7055 22.332 3.9881 0 3.4416-13.796 7.2392-18 4.9548zm26.417-10.474c-7.1595-10.055-37.684-10.587-41.125-0.71732-1.3665 3.9198-3.2916 3.5425-5.1097-1.0015-0.84404-2.1094-2.593-5.147-3.8865-6.75s-3.5769-4.7389-5.0741-6.9686-4.2972-5.5805-6.2221-7.4462c-4.4529-4.3159-4.4047-5.6545 0.25017-6.9472 8.3923-2.3307 11.568-1.2544 15.731 5.3308 6.4007 10.126 18.974 7.2875 18.974-4.284 0-4.066-4.1808-10.786-7.3103-11.75-0.90432-0.27856-3.7865-1.4504-6.4049-2.604-4.3026-1.8957-5.4333-1.9934-11.751-1.0155-8.64 1.33-10.991 0.82-10.991-2.38 0-2.3993 0.33693-2.6359 7.5796-5.3215 1.6938-0.62806 5.7438-3.3577 9-6.0658 7.4769-6.2184 9.5993-6.6561 7.2475-1.4946-1.8888 4.1456-0.33861 4.5843 17.772 5.0293 19.131 0.47009 20.196 0.2087 18.536-4.5512-2.8537-8.1862-0.82555-7.8384 8.9927 1.5418 4.3176 4.125 8.4694 7.5 9.2263 7.5 2.2804 0 6.6458 4.0095 6.6458 6.104 0 2.909-2.7675 3.4481-8.0571 1.5694-8.1579-2.8974-13.039-2.2958-21.443 2.6428-10.155 5.9677-8.6642 19.913 2.2856 21.382 4.3715 0.58634 4.616 0.41557 11.514-8.0403 4.2613-5.2236 10.121-6.3939 15.235-3.0428 3.2968 2.1602 3.172 2.7314-1.9068 8.7255-2.4044 2.8377-5.1738 6.7345-6.1541 8.6595-1.9859 3.8994-8.9075 13.532-10.376 14.439-0.52014 0.32147-1.9519-0.82856-3.1817-2.5556zm14.614-72.833c-0.32287-0.5224 0.43808-1.4751 1.691-2.117 9.3447-4.788 6.1883-18.388-4.2676-18.388-9.1036 0.41709-11.981 11.244-10.432 15.705 1.7667 4.4675-1.8419 1.051-5.4929-5.2003-2.2326-3.8227-4.5206-7.2355-5.0846-7.5841-10.82-6.698-3.22-27.476 10.05-27.476 6.1633 0 6.6192 1.9926 1.0466 4.5744-10.576 4.9001-8.1456 11.225 3.842 9.997 3.5086-0.35947 7.5588-1.2573 9.0003-1.9953 10.594-5.4234 25.3-0.6797 27.714 8.9399 1.153 4.5941-0.34889 6.3003-2.8912 3.2845-2.68-3.181-5.74-4.8-9.08-4.8-3.4587 0-4.2081 1.7344-1.8683 4.324 1.8387 2.0351 4.1557 9.9933 4.5639 15.676 0.17306 2.4088-0.0392 2.5-5.8204 2.5-4.1057 0-6.7806 0.5525-8.4725 1.75-2.8169 1.9938-3.6655 2.1448-4.4965 0.80017zm-86.53-1.89c0-0.52031 0.67223-2.235 1.4938-3.8103 0.82161-1.5754 1.4966-5.3644 1.5-8.42 0.0048-4.351 0.54879-6.2912 2.5086-8.9476 4.2464-5.7557 0.476-6.5071-7.0441-1.4039-4.6568 3.1602-4.9622 2.8005-2.448-2.8834 4.148-9.3772 10.36-10.918 23.003-5.7038 14.83 6.1154 23.872 1.4076 15.37-8.0027l-3.61-3.998 2.8664 0.0037c6.0974 0.008 13.406 7.7886 13.344 14.206-0.04 3.954-11.28 23.79-13.49 23.79-0.18174 0-0.96841 0.24481-1.7482 0.54403-1.1465 0.43996-1.3327-0.48087-0.97339-4.8139 0.76963-9.2808-8.1297-16.054-14.397-10.958-6.8285 5.552-6.9255 12.593-0.23181 16.818 2.2252 1.4047 3.8907 2.6874 3.7013 2.8505-0.999 0.86-19.84 1.56-19.84 0.73zm78.571-5.7461c-1.9281-1.9281-2.0396-6.4061-0.22138-8.8926 2.68-3.663 11.65-0.518 11.65 4.095 0 5.219-7.7546 8.4801-11.429 4.8061zm-62.013-3.64c-3.081-4.401-0.55-8.78 5.072-8.78 3.841 0 5.371 1.614 5.371 5.665 0 5.3459-7.3456 7.5353-10.443 3.1127zm81.256 99.881c12.56-6.28 23.19-20.82 23.19-31.71 0-6.1578-2.026-6.3959-3.2203-0.37845-2.8831 14.527-10.356 23.631-25.78 31.404-5.4704 2.7571-5.3471 2.6515-4.5681 3.912 0.78309 1.2671 2.3905 0.76674 10.381-3.2312zm-81.81 0.77c0-0.17826-2.3625-1.8928-5.25-3.8101-6.6261-4.3997-9.8451-7.8129-13.318-14.121-1.5138-2.75-3.1302-5.675-3.592-6.5-0.46175-0.825-1.3065-2.8108-1.8771-4.4128-0.73745-2.0702-1.3473-2.6031-2.1084-1.8421-2.0328 2.0328 3.2411 14.733 9.0244 21.732 6.143 7.43 17.121 13.17 17.121 8.95zm-38.971-1.11c4.481-2.64 8.971-13.13 8.971-20.94 0-9.82-9.796-22.45-9.99-12.88-0.01115 0.55-1.1027-0.35-2.4257-2-3.3948-4.2339-3.746-3.0157-1.4456 5.0144 1.9964 6.969 2.1645 23.981 0.2988 30.236-0.8166 2.7378 0.62327 2.9177 4.5913 0.5737zm159.97-1.77c0-0.79912-0.514-2.581-1.1422-3.9598-1.2198-2.6772-0.0972-16.362 2.2835-27.837 1.4101-6.7963 0.53271-8.3182-2.5626-4.4452-1.992 2.4924-2.3871 2.6305-3.543 1.2377-5.5414-6.677-7.984 19.428-2.8338 30.286 2.3497 4.954 7.7982 8.2501 7.7982 4.7176zm-150-40.86c0-0.72278-2.0742-2.8603-4.6094-4.75s-5.6614-4.7721-6.9472-6.4054c-2.6643-3.3842-4.0039-2.8996-3.0034 1.0866 1.425 5.68 14.56 14.76 14.56 10.07zm143.24-1.6571c2.1028-2.456 6.9827-16.767 6.4552-18.931-0.23022-0.94442-1.5389 0.85578-3.2003 4.4022-1.546 3.3-4.0905 7.6398-5.6545 9.6439-4.4471 5.6985-2.2049 10.263 2.3997 4.8848zm5.57-77.78c-0.48-14.5-2.84-22.25-6.75-22.25-2.087 0-2.7821 1.4334-1.1763 2.4258 2.0042 1.2387 4.4602 11.292 4.2934 17.574-0.18514 6.9742 1.4601 15 3.0749 15 0.62166 0 0.83016-4.7299 0.56205-12.75zm-157.48-2.077c0.27548-5.8703 0.82192-12.18 1.2143-14.021 1.1484-5.3892-2.4778-3.8275-4.1314 1.7792-2.0584 6.9792-1.4592 26.417 0.75266 24.418 1.2827-1.159 1.7782-3.9469 2.1644-12.176zm-8.062-7.461c0.30348-2.9405 1.5625-7.4965 2.7978-10.125 1.8437-3.9223 2.0004-4.9301 0.87468-5.6258-4.2962-2.6552-9.7313 12.316-7.024 19.348 1.5157 3.9371 2.7057 2.6597 3.3515-3.5979zm172.23 1.288c1.2735-5.7983-3.1644-18-6.5468-18-2.5258 0-2.4614 1.0539 0.41424 6.7832 1.3021 2.5942 2.6797 6.8543 3.0613 9.4668 0.79015 5.4094 2.1032 6.1576 3.0713 1.75zm-38.68-41.776c0.77413-8.0435-8.8536-15.09-18.225-13.339-2.8478 0.53203-5.9784 2.1482-8.7402 4.5122-5.9251 5.0716-8.3361 4.6211-8.3926-1.5683-0.0477-5.2214-1.6754-7.1599-9.1119-10.852-6.94-3.4411-17.35 2.9228-17.35 10.598 0 4.5319-6.0828 5.0944-10 0.92481-4.9546-5.2739-20.082-2.0611-23.421 4.9739-3.0347 6.3951-1.2321 8.5054 5.2003 6.0879 2.047-0.769 7.321-1.64 11.721-1.936 4.4-0.29564 9.9887-1.2565 12.419-2.1352 7.649-2.7652 15.661-2.9719 25.098-0.64751 4.9155 1.2107 11.636 2.0751 15.982 2.0557 5.8527-0.0261 8.8179 0.52607 13.5 2.514 8.0475 3.4167 10.901 3.1168 11.315-1.1892z"/>
</g>
</svg>
