<?xml version="1.0" encoding="UTF-8"?>
<!DOCTYPE svg PUBLIC "-//W3C//DTD SVG 1.1//EN" "http://www.w3.org/Graphics/SVG/1.1/DTD/svg11.dtd">
<svg version="1.1" xmlns="http://www.w3.org/2000/svg" xmlns:xlink="http://www.w3.org/1999/xlink" x="0" y="0" width="271" height="532" viewBox="0, 0, 271, 532">
  <g id="Layer_1">
    <path d="M118.331,104.597 L119.358,104.139 C119.691,103.977 120.056,103.864 120.353,103.604 C120.31,104.04 120.002,104.356 119.764,104.678 C119.496,104.973 119.214,105.258 118.913,105.508 C118.309,106.009 117.663,106.438 116.986,106.808 C116.307,107.174 115.599,107.487 114.861,107.73 C114.49,107.85 114.106,107.943 113.719,108.021 C113.328,108.073 112.92,108.163 112.509,108.059 C112.857,107.867 113.148,107.623 113.46,107.402 C113.773,107.185 114.08,106.96 114.396,106.757 C115.028,106.343 115.67,105.959 116.327,105.601 C116.982,105.241 117.65,104.909 118.331,104.597 M94.398,92.775 C95.346,92.853 96.259,92.664 97.217,92.572 C97.459,92.558 97.704,92.551 97.96,92.587 C98.212,92.621 98.496,92.707 98.717,92.921 C98.937,93.137 99.034,93.432 99.062,93.694 C99.09,93.954 99.101,94.172 99.122,94.412 C99.205,95.348 99.246,96.294 99.391,97.198 C99.427,97.419 99.474,97.647 99.537,97.825 L99.575,97.912 C99.623,97.931 99.721,97.955 99.818,97.966 C100.235,98.02 100.698,97.996 101.138,97.939 C102.007,97.82 102.949,97.562 103.458,96.961 C103.711,96.669 103.794,96.294 103.731,95.891 C103.649,95.487 103.503,94.965 103.466,94.489 C103.362,93.528 103.499,92.438 104.16,91.649 C104.839,90.881 105.842,90.588 106.774,90.541 C105.862,90.742 104.94,91.125 104.433,91.867 C103.912,92.588 103.853,93.537 104.01,94.418 C104.088,94.881 104.209,95.266 104.335,95.782 C104.449,96.303 104.341,96.94 103.972,97.375 C103.617,97.811 103.144,98.076 102.674,98.26 C102.202,98.446 101.715,98.559 101.224,98.618 C100.73,98.673 100.243,98.697 99.723,98.628 C99.589,98.606 99.46,98.586 99.289,98.512 L99.127,98.408 L99.018,98.269 L98.915,98.046 C98.823,97.777 98.792,97.537 98.756,97.293 C98.639,96.327 98.603,95.385 98.586,94.438 C98.561,93.96 98.633,93.473 98.397,93.23 C98.17,92.965 97.674,92.922 97.226,92.919 C96.304,92.893 95.324,93.015 94.398,92.775 M99.956,103.26 C100.415,105.781 109.009,113.23 107.404,113.918 C105.799,114.605 102.935,111.052 102.706,112.886 C102.477,114.719 101.79,116.668 101.102,115.407 C100.415,114.146 99.956,111.511 99.956,111.511 C99.956,111.511 99.498,100.739 99.956,103.26 M105.685,96.728 C105.685,96.728 113.592,92.833 114.166,91.801 C114.738,90.769 119.207,97.301 118.863,100.281 C118.519,103.26 109.697,106.125 107.991,106.125 C106.286,106.125 106.143,96.958 105.685,96.728 M97.09,98.333 C97.09,100.309 96.805,108.389 95.859,108.059 C94.914,107.729 89.07,107.038 89.242,108.069 C89.352,108.838 84.33,99.939 86.822,98.908 C89.314,97.877 97.09,96.356 97.09,98.333 M207.083,205.848 C209.696,211.788 212.046,217.849 214.067,224.029 C216.048,230.218 217.709,236.524 218.882,242.933 C219.467,246.137 219.918,249.368 220.241,252.61 C220.567,255.853 220.765,259.111 220.758,262.373 C220.758,265.633 220.628,268.895 220.291,272.136 C219.958,275.38 219.41,278.598 218.692,281.771 C217.244,288.116 214.926,294.25 211.797,299.899 C217.072,288.083 219.1,275.157 218.613,262.416 C218.347,256.039 217.597,249.681 216.324,243.42 C215.696,240.287 214.995,237.168 214.179,234.076 C213.358,230.985 212.442,227.919 211.452,224.875 C207.529,212.682 202.349,200.898 196.544,189.435 C193.623,183.711 190.546,178.058 187.314,172.487 C185.717,169.69 184.057,166.929 182.395,164.166 C180.742,161.398 179,158.677 177.42,155.858 C178.309,157.205 179.283,158.492 180.224,159.802 L183.03,163.752 C184.886,166.396 186.687,169.08 188.459,171.785 C191.974,177.212 195.328,182.753 198.434,188.436 C201.572,194.103 204.426,199.929 207.083,205.848 M182.878,317.704 L182.541,323.978 C182.341,326.065 182.201,328.153 181.952,330.233 C181.459,334.39 180.753,338.542 179.483,342.528 C181.339,334.374 181.599,326.003 181.53,317.683 C181.493,309.355 181.046,301.03 180.492,292.716 C179.89,284.404 179.232,276.094 178.375,267.799 C177.551,259.503 176.663,251.211 175.657,242.931 C173.713,226.365 171.47,209.831 169.081,193.316 C167.869,185.06 166.627,176.808 165.279,168.575 C164.613,164.456 163.943,160.336 163.182,156.235 C162.816,154.18 162.406,152.136 161.987,150.093 C161.761,149.076 161.577,148.046 161.318,147.038 L160.941,145.519 L160.46,144.031 C162.017,147.919 162.907,152.031 163.892,156.086 C164.855,160.155 165.728,164.242 166.596,168.332 C168.264,176.522 169.795,184.741 171.192,192.981 C172.623,201.215 173.875,209.479 175.106,217.748 C176.298,226.02 177.367,234.311 178.387,242.609 C179.35,250.913 180.22,259.229 180.969,267.558 C181.674,275.89 182.286,284.236 182.634,292.597 C183.005,300.954 183.164,309.331 182.878,317.704 M152.185,254.416 C152.124,263.499 151.966,272.582 151.766,281.665 C151.512,290.746 151.208,299.827 150.769,308.903 C150.293,317.98 149.772,327.056 148.973,336.114 C148.203,345.175 147.234,354.224 145.825,363.22 C145.087,367.708 144.269,372.192 143.166,376.614 C142.621,378.825 141.989,381.019 141.247,383.173 C140.461,385.308 139.56,387.435 138.23,389.282 C139.444,387.357 140.203,385.204 140.852,383.044 C141.483,380.872 142.016,378.673 142.455,376.454 C143.349,372.019 143.959,367.528 144.49,363.032 C145.574,354.04 146.25,345.001 146.833,335.956 C147.375,326.907 147.845,317.853 148.167,308.79 C148.527,299.73 148.81,290.664 149.019,281.595 C149.271,272.528 149.437,263.457 149.589,254.385 L149.993,227.166 L150.606,172.703 L150.933,179.507 L151.186,186.313 L151.637,199.928 C151.872,209.007 152.048,218.086 152.13,227.169 C152.246,236.251 152.218,245.333 152.185,254.416 M133.466,188.455 L132.417,196.805 L130.284,213.503 C128.802,224.627 127.279,235.746 125.673,246.852 C124.101,257.963 122.41,269.058 120.72,280.152 C119.003,291.242 117.223,302.323 115.408,313.399 C111.706,335.538 107.829,357.651 103.401,379.667 C101.199,390.675 98.861,401.659 96.284,412.591 L94.262,420.769 C93.54,423.483 92.868,426.21 92.106,428.913 C90.624,434.329 89.002,439.716 87.038,444.974 C90.333,434.243 92.736,423.286 94.967,412.3 C97.226,401.319 99.276,390.294 101.294,379.265 C103.278,368.228 105.25,357.189 107.114,346.128 C109.02,335.077 110.882,324.019 112.697,312.95 C114.563,301.89 116.35,290.816 118.156,279.746 L128.958,213.307 L134.448,180.094 L133.466,188.455 z M92.6,357.075 C92.815,355.278 93.102,353.495 93.263,351.692 C93.621,348.093 94.009,344.499 94.337,340.899 L95.301,330.097 L96.179,319.288 C96.487,315.687 96.717,312.077 97.009,308.474 C97.289,304.87 97.57,301.265 97.804,297.657 L98.597,286.839 L99.335,276.017 L102.333,232.721 L103,223.396 C103.709,222.873 104.357,222.373 104.882,221.958 C104.758,225.586 104.622,229.214 104.468,232.84 C104.407,234.412 104.338,235.982 104.268,237.552 C104.016,243.212 103.714,248.872 103.419,254.532 C103.239,258.146 102.993,261.757 102.772,265.37 L102.077,276.207 L101.277,287.038 L100.4,297.863 C100.1,301.47 99.753,305.075 99.41,308.681 C99.069,312.284 98.739,315.89 98.317,319.487 C96.786,333.884 94.929,348.286 91.951,362.468 L92.6,357.075 z M99.709,226.055 L99.739,226.054 C100.701,226.054 100.428,229.902 100.293,229.903 C100.155,229.903 97.297,226.736 97.297,226.736 C97.297,226.736 98.71,226.139 99.709,226.055 M95.467,226.017 L95.379,226.012 C93.455,225.751 93.061,224.99 93.79,224.504 C93.963,224.388 94.715,223.87 95.742,223.209 L95.787,223.222 L96.009,223.223 C96.663,223.223 97.229,222.679 97.65,222.016 C99.838,220.698 102.377,219.354 103.666,219.354 C104.311,219.354 104.642,219.693 104.451,220.544 C104.451,220.544 100.873,223.413 98.099,224.997 C97.418,225.199 96.86,225.428 96.762,225.469 L95.467,226.017 z M86.382,186.828 C86.255,182.378 86.643,177.872 87.956,173.579 C88.609,171.439 89.528,169.36 90.793,167.503 C92.075,165.672 93.716,164.039 95.715,163.078 C93.88,164.306 92.415,165.975 91.359,167.861 C90.276,169.733 89.528,171.78 88.983,173.871 C88.46,175.969 88.095,178.112 87.92,180.274 C87.728,182.434 87.669,184.611 87.756,186.783 C87.898,191.125 88.5,195.467 89.658,199.652 C89.939,200.632 90.255,201.605 90.617,202.558 C90.527,202.706 90.461,202.853 90.414,203 C90.304,203.338 90.277,203.636 90.294,203.897 L90.263,203.899 C89.619,202.63 89.081,201.311 88.633,199.967 C87.229,195.725 86.552,191.28 86.382,186.828 M79.612,199.16 C79.129,197.362 78.855,195.509 78.75,193.65 C78.64,192.719 78.698,191.79 78.727,190.859 L78.771,189.463 C78.77,188.997 78.874,188.541 78.921,188.078 C79.056,187.159 79.177,186.237 79.323,185.321 L79.985,182.62 C80.103,182.171 80.209,181.72 80.337,181.277 L80.803,179.97 C81.111,179.099 81.431,178.232 81.752,177.368 C82.482,175.676 83.32,174.032 84.131,172.387 C85.088,170.816 86.039,169.248 87.038,167.718 C86.3,169.401 85.515,171.044 84.735,172.684 L83.736,175.218 C83.42,176.068 83.032,176.888 82.752,177.748 C82.49,178.613 82.225,179.477 81.949,180.335 L81.538,181.624 C81.427,182.059 81.343,182.502 81.244,182.94 L80.643,185.569 L80.287,188.235 C79.879,191.788 79.934,195.402 80.656,198.913 C81.402,202.404 82.691,205.846 84.859,208.799 C82.24,206.208 80.576,202.735 79.612,199.16 M96.861,122.969 C96.581,122.358 96.191,121.994 95.754,121.775 C95.95,121.696 96.143,121.617 96.335,121.535 C96.783,121.352 97.243,121.167 97.652,121.134 C98.058,121.09 98.346,121.29 98.626,121.611 C99.162,122.265 99.543,123.218 99.949,124.075 C100.133,124.505 100.316,124.95 100.372,125.326 C100.403,125.512 100.401,125.706 100.411,125.979 C100.418,126.249 100.453,126.534 100.499,126.799 C100.531,126.938 100.518,127.025 100.643,127.319 C100.752,127.558 100.945,127.753 101.131,127.877 L101.144,127.883 C100.787,128.27 101.017,128.616 101.431,129.136 C101.499,129.378 101.603,129.612 101.789,129.803 C101.876,129.894 101.98,129.964 102.089,130.025 C102.34,130.41 102.581,130.875 102.76,131.445 C102.591,133.068 102.521,134.693 102.515,136.321 C102.517,137.025 102.544,137.728 102.594,138.43 C101.24,133.962 97.862,125.152 96.861,122.969 M91.951,121.594 C91.737,120.907 90.33,114.49 90.101,112.427 C90.057,112.032 89.888,111.493 89.636,110.872 C89.79,110.784 90.032,110.711 90.282,110.675 C90.979,110.572 91.768,110.62 92.542,110.674 C93.322,110.732 94.108,110.817 94.905,110.855 C95.302,110.872 95.705,110.88 96.106,110.832 C96.305,110.799 96.507,110.77 96.694,110.679 C96.878,110.598 97.047,110.449 97.09,110.25 C96.919,110.637 96.46,110.659 96.096,110.66 C95.711,110.651 95.327,110.586 94.944,110.513 C94.179,110.365 93.419,110.168 92.643,109.994 C91.863,109.828 91.084,109.651 90.208,109.647 C89.887,109.658 89.535,109.671 89.164,109.818 C87.939,107.276 85.841,104.069 84.773,103.26 C83.617,102.384 85.626,98.422 86.296,95.88 C86.861,95.395 87.468,94.944 88.129,94.481 C88.624,94.104 89.248,93.664 89.561,92.908 C89.868,92.166 89.803,91.429 89.699,90.788 C89.205,88.383 89.005,85.951 88.854,83.498 C88.722,81.048 88.682,78.589 88.854,76.141 C88.926,75.169 89.032,74.196 89.205,73.236 C92.026,71.397 94.656,70.255 97.098,69.682 C99.982,70.482 102.757,71.752 105.22,73.497 C107.01,74.78 108.632,76.336 109.834,78.2 C111.037,80.052 111.782,82.255 111.702,84.525 C111.957,82.271 111.379,79.95 110.279,77.938 C109.182,75.915 107.618,74.164 105.853,72.683 C104.212,71.309 102.386,70.167 100.456,69.225 C108.183,68.97 113.794,74.398 117.65,79.676 L118.131,84.503 C118.241,85.567 118.344,86.663 118.316,87.659 C118.316,87.783 118.293,87.873 118.288,87.981 L118.273,88.14 L118.247,88.233 C118.201,88.319 118.212,88.325 118.071,88.373 C117.771,88.44 117.218,88.344 116.719,88.23 C115.69,87.983 114.604,87.668 113.475,87.565 C112.361,87.46 111.124,87.609 110.245,88.306 C111.273,87.886 112.353,87.962 113.365,88.227 C114.391,88.474 115.366,88.906 116.428,89.259 C116.972,89.422 117.501,89.647 118.29,89.554 C118.487,89.519 118.712,89.457 118.916,89.307 C119.122,89.169 119.272,88.964 119.375,88.766 C119.418,88.671 119.455,88.574 119.49,88.475 L119.537,88.229 C119.564,88.069 119.604,87.891 119.612,87.744 C119.691,86.559 119.583,85.478 119.5,84.374 C119.415,83.544 119.302,82.722 119.191,81.9 C119.352,82.147 119.511,82.392 119.666,82.633 C124.937,90.884 126.083,98.906 126.083,98.906 C125.911,99.198 125.783,99.501 125.685,99.813 L125.455,99.807 C124.629,99.854 123.764,100.101 123.061,100.667 C122.347,101.217 121.891,102.112 121.788,102.976 C121.676,103.418 121.73,103.838 121.72,104.273 C121.737,104.702 121.833,105.106 121.891,105.526 C122.089,106.332 122.356,107.128 122.586,107.818 C122.649,108.007 122.7,108.198 122.755,108.388 L122.537,108.467 C122.689,108.797 122.853,109.109 123.019,109.414 C123.06,109.595 123.108,109.778 123.14,109.958 C123.238,110.645 123.289,111.343 123.112,111.813 C122.85,112.686 121.382,113.11 119.908,113.428 C118.418,113.775 116.887,114.099 115.353,114.495 C114.582,114.695 113.786,114.917 112.963,115.305 C112.682,115.437 112.402,115.616 112.128,115.814 L109.009,112.886 L111.658,116.195 C111.332,116.494 111.04,116.829 110.823,117.199 C110.423,117.852 110.185,118.508 109.998,119.15 C109.85,118.961 109.703,118.772 109.55,118.59 C109.109,118.061 108.657,117.546 108.197,117.041 C108.463,117.67 108.718,118.302 108.958,118.937 C109.076,119.253 109.188,119.572 109.291,119.887 C109.391,120.198 109.488,120.526 109.52,120.788 L109.593,120.762 C109.507,121.17 109.429,121.577 109.35,121.982 L109.34,122.028 L109.338,122.054 C109.327,122.195 109.29,122.342 109.239,122.491 L108.637,121.654 C108.164,121.014 107.683,120.384 107.196,119.761 C107.485,120.498 107.763,121.238 108.031,121.977 L108.415,123.088 C108.468,123.257 108.523,123.43 108.573,123.599 C108.46,123.729 108.348,123.858 108.221,123.98 C107.897,124.296 107.533,124.588 107.144,124.859 L104.826,120.563 L106.212,125.436 L106.04,125.536 C105.85,125.638 105.656,125.738 105.46,125.832 C105.213,125.872 104.971,125.946 104.76,126.084 L104.635,126.19 L104.509,126.238 C104.468,126.112 104.425,125.988 104.384,125.858 C104.211,125.36 104.023,124.876 103.824,124.397 C103.425,123.441 103,122.502 102.534,121.586 C102.786,122.582 102.99,123.586 103.164,124.588 C103.25,125.089 103.325,125.591 103.379,126.087 C103.393,126.216 103.407,126.352 103.418,126.487 C103.024,126.357 102.522,126.277 102.1,126.501 L101.889,126.657 L101.846,126.509 C101.791,126.296 101.747,126.095 101.719,125.876 C101.692,125.66 101.67,125.36 101.594,125.067 C101.443,124.479 101.191,124.032 100.955,123.581 C100.71,123.133 100.455,122.709 100.189,122.288 C99.958,121.948 99.735,121.603 99.444,121.282 C99.242,120.287 99.079,119.27 98.935,118.255 C98.858,117.705 98.787,117.153 98.728,116.6 C98.7,116.324 98.674,116.046 98.656,115.769 C98.653,115.497 98.597,115.206 98.696,114.949 C98.569,115.199 98.595,115.497 98.57,115.77 C98.559,116.05 98.556,116.33 98.556,116.609 C98.558,117.169 98.572,117.727 98.592,118.286 C98.624,119.089 98.671,119.891 98.735,120.697 C98.648,120.647 98.564,120.594 98.466,120.558 C98.329,120.489 98.16,120.486 98.008,120.457 C97.858,120.458 97.701,120.461 97.56,120.489 C96.996,120.619 96.566,120.886 96.134,121.128 C95.859,121.288 95.586,121.447 95.313,121.604 C93.85,121.204 92.101,122.08 91.951,121.594 M88.497,73.696 C88.651,73.589 88.8,73.501 88.952,73.399 C88.758,74.294 88.622,75.201 88.512,76.108 C88.224,78.568 88.149,81.047 88.167,83.52 C88.204,85.987 88.293,88.49 88.677,90.937 C88.751,91.503 88.738,92.051 88.543,92.449 C88.369,92.849 87.93,93.164 87.44,93.495 C87.111,93.704 86.771,93.927 86.431,94.16 L86.406,94.064 C85.634,92.46 84.141,83.779 88.497,73.696 M121.269,129.387 C120.705,130.708 119.055,134.815 117.912,137.38 C118.014,136.936 118.047,136.472 118,136.019 C117.914,135.036 117.572,134.095 117.142,133.22 C116.507,131.937 115.698,130.757 114.842,129.628 C115.136,129.48 115.568,129.261 116.075,128.972 C116.306,128.947 116.542,128.886 116.791,128.76 C117.148,128.579 117.396,128.339 117.535,128.047 C117.745,127.9 117.955,127.746 118.167,127.579 C118.486,127.502 118.798,127.297 119.098,126.961 C119.257,126.783 119.366,126.602 119.447,126.42 C119.743,126.112 120.022,125.781 120.28,125.428 C120.643,125.338 120.985,125.119 121.297,124.767 C121.696,124.321 121.849,123.846 121.752,123.355 C121.713,123.158 121.625,122.977 121.522,122.806 C121.995,120.835 121.615,118.424 119.575,115.538 C119.843,115.473 120.109,115.41 120.378,115.342 C121.147,115.135 121.933,114.929 122.754,114.538 C122.956,114.458 123.165,114.322 123.368,114.196 C123.575,114.086 123.771,113.902 123.963,113.73 C124.325,113.4 124.599,112.948 124.771,112.482 C124.957,112.84 125.13,113.203 125.275,113.572 C125.607,114.42 125.797,115.32 125.689,116.231 C125.587,117.142 125.17,118.025 124.593,118.802 C125.293,118.142 125.899,117.321 126.194,116.338 C126.497,115.359 126.466,114.286 126.266,113.289 C125.863,111.287 124.918,109.481 124.476,107.765 L124.23,107.854 C124.164,107.67 124.101,107.483 124.029,107.302 C123.713,106.542 123.46,105.87 123.222,105.188 C123.148,104.845 123.028,104.496 122.984,104.151 C122.968,103.812 122.882,103.452 122.946,103.128 C122.964,102.447 123.231,101.835 123.688,101.371 C124.146,100.905 124.809,100.608 125.523,100.485 C124.911,104.277 128.48,109.35 128.604,114.949 C128.747,121.366 121.957,127.783 121.269,129.387 M107.73,125.946 C107.73,125.832 107.75,125.733 107.804,125.656 C108.015,125.354 108.631,125.292 108.95,125.292 L108.982,125.292 C109.323,125.515 110.012,126.076 110.046,126.625 C110.063,126.895 109.916,127.149 109.593,127.401 C109.245,127.676 108.942,127.772 108.696,127.69 C108.238,127.536 107.956,126.804 107.886,126.536 L107.868,126.482 C107.82,126.375 107.788,126.277 107.764,126.185 L107.845,126.158 L107.73,125.946 z M119.861,124.807 C119.201,124.777 118.643,124.071 118.593,124.005 C118.4,123.715 118.347,123.458 118.432,123.217 C118.618,122.692 119.414,122.308 119.83,122.158 C120.227,122.376 120.982,122.898 121.099,123.485 C121.154,123.763 121.057,124.039 120.801,124.324 C120.498,124.664 120.183,124.823 119.861,124.807 M117.793,126.944 C117.331,126.876 116.939,126.224 116.826,125.98 L116.798,125.932 C116.58,125.606 116.513,125.344 116.6,125.155 C116.755,124.82 117.37,124.657 117.663,124.609 C118.012,124.759 118.776,125.184 118.902,125.7 C118.963,125.956 118.864,126.222 118.601,126.517 C118.315,126.838 118.046,126.984 117.793,126.944 M110.015,124.014 C110.298,123.513 111.177,123.267 111.626,123.187 C111.993,123.481 112.667,124.148 112.679,124.765 C112.685,125.059 112.538,125.321 112.226,125.566 C111.856,125.857 111.517,125.961 111.183,125.887 C110.518,125.739 110.077,124.92 110.038,124.846 C109.894,124.516 109.885,124.244 110.015,124.014 M118.883,117.352 C118.802,117.633 118.583,117.839 118.214,117.982 C117.774,118.151 117.417,118.151 117.123,117.983 C116.531,117.645 116.35,116.733 116.335,116.65 C116.293,116.293 116.368,116.031 116.558,115.849 C116.976,115.455 117.886,115.477 118.341,115.533 C118.604,115.923 119.052,116.761 118.883,117.352 M112.679,127.533 C112.812,127.406 113.041,127.367 113.263,127.367 C113.453,127.367 113.64,127.395 113.761,127.42 C114.007,127.665 114.514,128.278 114.45,128.757 C114.417,128.994 114.246,129.188 113.924,129.351 C113.577,129.528 113.298,129.56 113.098,129.445 C112.73,129.233 112.612,128.551 112.598,128.306 L112.59,128.256 C112.513,127.908 112.542,127.664 112.679,127.533 M110.384,128.989 C110.632,128.701 111.228,128.659 111.532,128.662 C111.731,128.9 112.082,129.419 112.01,129.819 C111.975,130.009 111.845,130.16 111.613,130.278 C111.336,130.418 111.102,130.442 110.896,130.351 C110.485,130.17 110.306,129.583 110.292,129.529 C110.239,129.296 110.27,129.12 110.384,128.989 M113.712,120.811 C113.805,121.065 113.734,121.351 113.498,121.685 C113.242,122.047 112.978,122.235 112.719,122.216 C112.237,122.198 111.759,121.576 111.616,121.338 L111.583,121.293 C111.32,120.983 111.22,120.722 111.289,120.518 C111.409,120.156 112.019,119.917 112.315,119.835 C112.691,119.949 113.524,120.295 113.712,120.811 M115.503,119.179 C115.231,119.563 114.933,119.761 114.592,119.784 C113.941,119.836 113.259,119.169 113.201,119.109 C112.968,118.833 112.884,118.574 112.944,118.318 C113.074,117.756 113.846,117.271 114.254,117.068 C114.689,117.247 115.524,117.695 115.711,118.284 C115.799,118.563 115.733,118.856 115.503,119.179 M106.57,130.696 C106.885,130.49 107.477,130.608 107.764,130.697 C107.89,130.981 108.084,131.577 107.907,131.941 C107.822,132.114 107.657,132.223 107.4,132.273 C107.093,132.333 106.862,132.291 106.69,132.147 C106.344,131.859 106.333,131.246 106.333,131.191 C106.347,130.954 106.425,130.792 106.57,130.696 M104.561,131.533 L104.565,131.496 C104.582,131.229 104.653,131.059 104.778,130.993 L104.969,130.952 C105.185,130.952 105.445,131.063 105.58,131.134 C105.712,131.369 105.947,131.905 105.8,132.237 C105.73,132.4 105.567,132.504 105.302,132.556 C105.014,132.613 104.808,132.579 104.688,132.455 C104.466,132.227 104.521,131.711 104.561,131.533 M108.68,130.343 L108.675,130.306 C108.616,130.045 108.638,129.862 108.742,129.764 C108.839,129.67 109.01,129.64 109.178,129.64 C109.32,129.64 109.46,129.661 109.55,129.68 C109.735,129.863 110.115,130.322 110.066,130.68 C110.042,130.857 109.914,131.003 109.673,131.125 C109.412,131.256 109.204,131.281 109.054,131.195 C108.778,131.036 108.691,130.526 108.68,130.343 M117.047,127.606 C117.001,127.861 116.829,128.061 116.517,128.219 C116.147,128.407 115.833,128.438 115.559,128.317 C115.01,128.074 114.771,127.291 114.75,127.219 C114.681,126.908 114.723,126.671 114.875,126.496 C115.136,126.192 115.692,126.087 116.114,126.065 L116.233,126.282 C116.302,126.427 116.583,126.965 117.045,127.312 C117.058,127.413 117.064,127.512 117.047,127.606 M106.531,126.556 L106.544,126.605 L106.626,126.578 C106.746,126.604 106.858,126.633 106.946,126.661 C107.138,127.09 107.432,127.994 107.163,128.545 C107.034,128.809 106.783,128.974 106.394,129.049 C105.933,129.139 105.581,129.077 105.319,128.859 C104.794,128.422 104.777,127.493 104.776,127.409 C104.797,127.049 104.916,126.804 105.136,126.66 C105.493,126.426 106.076,126.465 106.531,126.556 M103.702,127.453 C103.899,127.842 104.167,128.546 103.971,128.995 C103.863,129.243 103.616,129.401 103.214,129.48 C102.778,129.564 102.464,129.512 102.283,129.326 C101.947,128.98 102.03,128.2 102.09,127.928 L102.098,127.872 C102.122,127.467 102.229,127.21 102.419,127.109 C102.502,127.065 102.603,127.046 102.709,127.046 C102.949,127.046 103.224,127.137 103.434,127.228 L103.411,127.429 L103.702,127.453 z M114.417,140.298 C113.334,140.627 111.044,138.119 109.74,138.338 C108.513,138.545 108.271,141.488 107.153,141.556 C104.898,141.696 103.165,141.514 103.165,140.846 C103.165,140.599 103.071,140.138 102.908,139.529 C102.865,138.462 102.88,137.394 102.918,136.33 C102.95,135.529 103.013,134.729 103.085,133.931 C103.333,134.185 104.622,133.837 106.265,133.246 L106.304,133.299 C106.447,133.506 106.579,133.725 106.7,133.95 C106.821,134.175 106.928,134.408 107.015,134.649 C107.098,134.89 107.169,135.141 107.156,135.403 C107.227,135.149 107.213,134.874 107.182,134.61 C107.149,134.343 107.091,134.082 107.019,133.824 C106.948,133.567 106.862,133.314 106.762,133.064 C107.402,132.825 108.08,132.557 108.761,132.28 C109.039,132.569 109.307,132.893 109.513,133.246 C109.752,133.657 109.939,134.129 109.838,134.629 C110.055,134.166 109.982,133.598 109.828,133.109 C109.71,132.733 109.542,132.384 109.348,132.039 C110.021,131.76 110.685,131.477 111.308,131.208 C111.549,131.469 111.779,131.753 111.959,132.063 C112.2,132.473 112.386,132.947 112.286,133.447 C112.501,132.982 112.43,132.416 112.275,131.926 C112.169,131.591 112.023,131.278 111.858,130.969 C112.902,130.512 113.784,130.115 114.304,129.878 C115.213,131.005 116.102,132.139 116.788,133.403 C117.23,134.239 117.614,135.115 117.771,136.046 C117.886,136.714 117.833,137.415 117.602,138.063 C117.48,138.331 117.362,138.58 117.259,138.784 C116.989,139.325 115.89,139.85 114.417,140.298 M125.394,167.89 C125.394,168.462 125.113,168.654 124.681,168.654 C124.523,168.654 124.337,168.623 124.146,168.58 C123.875,168.495 123.574,168.408 123.261,168.331 C122.611,168.122 121.926,167.89 121.384,167.89 C119.894,167.89 113.535,165.197 113.535,165.197 L112.447,164.281 C112.148,163.682 111.718,161.277 113.421,161.277 C113.676,161.276 113.979,161.331 114.337,161.452 C117.087,162.389 125.394,166.171 125.394,167.89 M133.834,146.178 C134.464,145.366 135.106,144.563 135.775,143.782 C139.735,139.064 144.332,134.903 149.237,131.203 C151.713,129.381 154.242,127.631 156.866,126.038 C159.5,124.463 162.166,122.944 164.924,121.609 C170.417,118.913 176.125,116.613 182.058,115.159 C176.514,117.684 171.156,120.485 165.933,123.494 C163.339,125.028 160.755,126.566 158.254,128.232 C155.734,129.868 153.27,131.584 150.885,133.402 C149.672,134.283 148.502,135.219 147.323,136.143 C146.172,137.102 145.012,138.051 143.895,139.046 C142.746,140.01 141.661,141.042 140.556,142.054 L138.955,143.629 C138.406,144.142 137.882,144.678 137.367,145.221 C135.602,147.029 133.925,148.917 132.316,150.872 C130.1,153.563 128.018,156.382 126.056,159.322 C128.034,154.641 130.694,150.226 133.834,146.178 M134.612,125.035 C135.056,123.618 135.611,122.239 136.227,120.894 C137.462,118.205 138.932,115.642 140.479,113.137 C142.051,110.648 143.706,108.214 145.471,105.864 C146.256,104.812 147.061,103.775 147.885,102.754 C148.907,101.486 149.959,100.246 151.064,99.047 C149.74,101.201 148.379,103.318 147.019,105.432 C146.795,105.778 146.573,106.127 146.349,106.473 C144.773,108.937 143.179,111.385 141.645,113.865 C140.091,116.334 138.593,118.832 137.187,121.376 C136.499,122.654 135.825,123.942 135.245,125.27 C134.659,126.595 134.143,127.955 133.932,129.414 C133.835,127.934 134.19,126.451 134.612,125.035 M153.685,112.678 C155.137,111.714 156.646,110.837 158.2,110.047 C158.983,109.666 159.769,109.29 160.583,108.975 C160.989,108.818 161.4,108.67 161.817,108.541 C162.235,108.439 162.667,108.275 163.102,108.347 C162.67,108.345 162.28,108.57 161.89,108.734 C161.501,108.917 161.119,109.112 160.743,109.319 C159.99,109.73 159.252,110.171 158.529,110.633 C157.077,111.546 155.673,112.533 154.299,113.553 C151.564,115.613 148.958,117.836 146.523,120.234 C144.108,122.589 141.866,125.119 139.787,127.783 L139.705,127.885 C137.598,130.588 135.713,133.461 133.932,136.435 C135.198,133.21 136.858,130.122 138.836,127.253 C139.458,126.316 140.138,125.42 140.837,124.537 C141.221,124.051 141.61,123.569 142,123.089 C143.128,121.756 144.328,120.487 145.561,119.253 C148.066,116.822 150.771,114.595 153.685,112.678 M103.402,217.758 C103.725,217.701 104.01,217.663 104.218,217.663 L104.317,217.668 L104.833,217.739 L105.018,217.617 C105.009,217.861 105.003,218.105 104.995,218.349 C104.686,218.141 104.256,217.979 103.667,217.979 L103.666,217.979 C103.578,217.979 103.482,217.986 103.386,217.995 L103.402,217.758 z M98.263,219.136 C98.447,219.083 98.628,219.029 98.814,218.974 C99.043,218.907 99.274,218.839 99.506,218.771 L99.262,219.524 C98.993,219.665 98.715,219.814 98.426,219.974 L98.432,219.899 C98.434,219.62 98.37,219.365 98.263,219.136 M92.833,219.92 C92.833,219.92 95.71,219.557 96.707,219.557 L96.743,219.557 C97.693,219.568 96.201,221.848 96.009,221.848 L96.003,221.847 C95.839,221.795 92.835,220.101 92.833,219.92 M93.14,213.677 L93.677,213.686 C93.548,213.781 93.44,213.856 93.362,213.903 C93.299,213.849 93.223,213.772 93.14,213.677 M110.012,162.054 C110.207,162.054 110.335,162.106 110.384,162.217 C110.384,162.217 111.244,163.593 110.708,164.914 C110.174,166.235 103.508,167.375 103.165,168.551 C103.108,168.742 103.248,168.823 103.523,168.823 C104.943,168.823 110.005,166.687 110.708,166.687 C111.307,166.687 111.496,167.643 111.121,168.506 C110.926,168.734 110.757,168.978 110.625,169.23 L110.384,169.437 C109.497,170.077 103.805,171.204 101.044,172.187 C100.063,172.538 99.727,173.597 99.727,173.597 C99.727,173.597 106.086,172.015 107.773,171.932 L107.863,171.93 C109.396,171.93 107.76,174.043 106.602,175.109 C105.422,176.196 100.767,177.172 100.767,177.172 C100.767,177.172 100.541,177.162 100.207,177.162 C99.171,177.162 97.103,177.26 97.493,178.062 C97.649,178.383 98.311,178.492 99.224,178.492 C101.094,178.492 104.016,178.04 105.818,178.04 C106.041,178.04 106.247,178.045 106.43,178.062 C108.837,178.264 106.602,179.063 105.227,180.954 C105.227,180.954 103.409,181.363 100.917,181.363 C98.565,181.363 95.611,180.998 93.023,179.579 C87.695,176.657 94.914,169.265 100.071,166.859 C100.071,166.859 108.125,162.054 110.012,162.054 M115.798,168.419 C114.572,167.817 113.721,167.311 113.704,167.3 L113.596,167.254 L113.962,166.122 C114.543,166.362 115.357,166.691 116.247,167.034 L115.798,168.419 z M123.212,171.442 L123.168,171.447 C122.537,171.447 120.611,169.265 120.611,169.265 C120.732,168.91 121.133,168.782 121.648,168.782 C122.958,168.782 124.995,169.609 124.995,169.609 C124.995,169.609 123.792,171.328 123.212,171.442 M105.203,211.64 L105.199,211.753 L105.102,211.711 L105.203,211.64 M93.97,208.653 C94.156,208.588 94.345,208.516 94.54,208.431 L94.788,208.403 L94.945,208.413 C95.339,208.463 95.752,208.485 96.171,208.485 C99.438,208.485 103.186,207.128 103.186,207.128 L103.219,207.124 C103.876,207.124 106.333,210.926 103.054,210.926 C102.852,210.926 102.626,210.912 102.378,210.88 C101.889,210.82 101.392,210.794 100.892,210.794 C97.359,210.794 93.729,212.123 92.529,212.123 C92.389,212.123 92.285,212.105 92.214,212.066 C91.597,211.721 92.646,209.416 93.97,208.653 M92.593,205.151 C93.853,205.151 95.837,205.295 95.853,206.203 C95.853,206.203 93.648,207.51 92.879,207.51 L92.707,207.473 C92.192,207.187 91.576,205.181 91.576,205.181 C91.576,205.181 92.006,205.151 92.593,205.151 M91.722,203.422 C92.252,201.788 101.32,200.745 104.224,200.699 L104.295,200.698 C107.106,200.698 105.688,203.427 105.154,203.971 L103.836,204.508 C103.836,204.508 100.213,204.828 97.684,204.828 C97.308,204.828 96.968,204.818 96.657,204.802 C95.619,203.776 93.449,203.775 92.593,203.775 C92.198,203.775 91.867,203.789 91.669,203.798 C91.665,203.689 91.675,203.569 91.722,203.422 M112.833,172.384 C113.342,172.481 113.861,172.631 114.378,172.804 L113.937,174.169 C113.027,173.874 112.237,173.662 111.564,173.535 L112.007,172.166 C112.248,172.25 112.52,172.323 112.833,172.384 M119.563,176.445 L121.687,177.094 C121.167,177.476 120.7,177.732 120.55,177.748 C120.385,177.663 119.973,177.094 119.563,176.445 M109.568,176.146 C108.781,175.153 108.516,174.075 110.195,174.075 C111.066,174.075 112.462,174.366 114.582,175.109 C120.458,177.172 121.728,181.985 120.353,182.501 L120.156,182.531 C118.322,182.531 110.583,176.806 109.568,176.146 M115.655,184.105 C115.492,184.105 114.812,181.677 115.529,181.677 L115.655,181.698 C116.572,181.985 119.264,183.246 119.264,183.246 C119.207,183.418 115.827,184.105 115.655,184.105 M111.891,180.493 C110.968,179.634 110.304,179.168 109.822,178.918 L110.286,177.484 C111.02,178.002 111.72,178.489 112.39,178.95 L111.891,180.493 z M108.017,180.266 C108.08,179.591 108.347,179.307 108.75,179.307 C110.816,179.307 116.489,186.738 116.944,187.313 C117.378,187.864 117.077,188.359 115.959,188.359 C115.68,188.359 115.35,188.328 114.967,188.258 C113.055,187.915 108.017,180.266 108.017,180.266 M109.099,190.451 L109.095,190.45 C108.972,190.41 109.824,186.942 110.703,186.942 L110.835,186.969 C111.759,187.356 112.919,188.359 112.919,188.359 C112.919,188.359 109.297,190.451 109.099,190.451 M108.677,182.456 C109.204,183.204 109.819,184.049 110.47,184.882 L109.917,186.599 C108.889,187.539 108.428,190.083 108.423,190.114 C108.366,190.47 108.43,190.698 108.54,190.852 L105.719,199.567 C105.633,199.535 105.549,199.501 105.455,199.474 C105.255,199.418 105.029,199.38 104.784,199.355 C104.627,199.339 104.472,199.323 104.295,199.323 L104.204,199.324 C103.924,199.328 103.579,199.344 103.206,199.366 L105.283,192.948 C105.377,191.772 105.472,190.596 105.571,189.42 L105.554,192.107 L108.677,182.456 z M101.031,206.087 C101.435,206.064 101.823,206.04 102.174,206.015 C101.866,206.114 101.443,206.241 100.937,206.376 L101.031,206.087 z M104.962,206.786 L104.96,206.792 C104.747,206.528 104.511,206.297 104.262,206.122 L104.287,205.81 L104.356,205.782 L105.336,205.381 L105.318,206.268 C105.185,206.421 105.061,206.59 104.962,206.786 M113.245,167.865 L113.349,167.89 C113.349,167.89 117.431,170.339 120.869,170.984 C122.558,171.301 123.792,175.969 122.932,176.141 L122.869,176.146 C121.859,176.146 117.164,172.512 112.962,171.709 C108.874,170.926 112.413,167.865 113.245,167.865 M99.023,212.292 C99.644,212.217 100.272,212.169 100.892,212.169 C101.147,212.169 101.393,212.177 101.633,212.193 L101.538,212.492 C100.822,212.796 100.101,213.068 99.302,213.328 C99.07,213.403 98.844,213.468 98.625,213.523 L99.023,212.292 z M119.816,224.659 C118.999,224.816 118.175,224.882 117.37,224.882 C112.296,224.882 107.782,222.213 107.782,222.213 C107.159,220.31 105.691,218.975 106.758,218.975 C106.938,218.975 107.188,219.012 107.526,219.091 C109.593,219.573 113.964,221.99 115.548,221.99 C115.766,221.99 115.931,221.943 116.031,221.84 C116.848,220.989 113.188,219.987 113.188,219.987 C113.188,219.987 109.06,217.626 108.27,216.229 C107.561,214.973 106.741,212.758 107.73,212.758 C107.84,212.758 107.975,212.786 108.134,212.846 C109.712,213.444 115.279,216.905 115.279,216.905 C115.279,216.905 115.284,215.795 114.458,215.158 C112.133,213.373 107.065,210.55 106.417,209.669 C105.596,208.552 106.08,206.926 106.798,206.926 L106.955,206.952 C107.667,207.182 112.338,211.238 113.361,211.238 C113.485,211.238 113.556,211.178 113.558,211.046 C113.593,209.821 107.601,206.687 107.5,205.264 C107.397,203.843 108.637,202.799 108.637,202.799 L108.834,202.72 C110.293,202.72 117.023,210.387 117.023,210.387 C121.19,214.263 125.786,223.517 119.816,224.659 M93.311,215.324 L93.403,215.319 C93.611,215.298 93.896,215.17 94.249,214.945 L94.44,214.935 C95.052,214.935 95.767,215.142 96.805,215.142 C97.573,215.142 98.517,215.03 99.727,214.635 C100.995,214.223 102.047,213.801 103.165,213.268 C103.616,213.052 103.991,212.96 104.295,212.96 C105.919,212.96 105.581,215.587 104.506,216.304 C104.42,216.293 104.324,216.288 104.218,216.288 C102.752,216.288 99.435,217.38 96.612,218.184 C95.504,218.201 92.957,218.518 92.662,218.555 L91.858,218.656 C91.476,217.959 91.874,216.357 93.311,215.324 M87.241,504.216 C88.97,502.804 90.602,501.269 92.152,499.653 C93.703,498.04 95.207,496.378 96.642,494.655 C99.502,491.2 102.222,487.62 104.767,483.911 C107.342,480.224 109.804,476.446 112.157,472.603 C114.554,468.786 116.833,464.89 119.072,460.97 C121.34,457.065 123.486,453.089 125.663,449.126 C129.955,441.165 134.123,433.13 138.23,425.034 C135.166,433.587 131.518,441.917 127.566,450.101 C125.603,454.2 123.494,458.228 121.339,462.235 C119.163,466.23 116.871,470.163 114.494,474.05 C112.076,477.911 109.568,481.722 106.888,485.419 C105.542,487.263 104.155,489.079 102.723,490.86 C101.298,492.648 99.814,494.392 98.256,496.071 C95.16,499.442 91.819,502.63 88.057,505.292 C86.167,506.601 84.185,507.8 82.059,508.692 C79.943,509.591 77.686,510.19 75.416,510.29 C79.908,509.474 83.811,507.046 87.241,504.216 M141.877,481.097 C142.868,476.714 143.82,472.319 144.638,467.894 C145.492,463.476 146.29,459.044 147.017,454.599 C147.792,450.161 148.488,445.708 149.177,441.255 C149.897,436.804 150.525,432.339 151.212,427.88 C152.532,418.954 153.819,410.019 155.19,401.073 C154.952,410.124 154.253,419.148 153.334,428.148 C152.895,432.649 152.322,437.138 151.749,441.628 C151.144,446.112 150.454,450.585 149.728,455.056 C148.952,459.519 148.127,463.974 147.191,468.409 C146.215,472.837 145.206,477.263 143.958,481.63 C142.733,486.003 141.331,490.337 139.611,494.556 C138.728,496.655 137.781,498.733 136.652,500.718 C136.098,501.714 135.471,502.673 134.819,503.607 C134.131,504.517 133.4,505.392 132.572,506.165 C134.014,504.417 135.058,502.415 135.972,500.372 C136.878,498.325 137.66,496.222 138.344,494.087 C139.742,489.827 140.845,485.468 141.877,481.097 M178.22,481.118 C180.49,476.222 182.331,471.14 183.863,465.968 C185.368,460.792 186.743,455.569 187.742,450.261 C188.792,444.966 189.707,439.638 190.369,434.273 C191.798,423.556 192.58,412.743 193.022,401.913 C193.432,391.079 193.523,380.222 193.234,369.343 C193.985,374.737 194.402,380.173 194.729,385.61 C195.023,391.052 195.183,396.505 195.16,401.958 C195.171,407.413 194.957,412.868 194.656,418.319 C194.308,423.769 193.768,429.206 193.094,434.632 C192.379,440.05 191.433,445.444 190.291,450.798 L189.367,454.798 L188.324,458.773 C187.997,460.101 187.566,461.405 187.18,462.718 L186.576,464.681 C186.367,465.333 186.128,465.978 185.906,466.624 C185.442,467.915 185.03,469.222 184.521,470.495 L182.995,474.314 C181.863,476.812 180.76,479.319 179.43,481.72 C177.475,485.327 175.284,488.817 172.759,492.034 C172.65,491.944 172.542,491.855 172.438,491.765 C174.635,488.357 176.548,484.79 178.22,481.118 M88.222,147.284 C86.689,147.697 85.299,148.497 84.051,149.461 C82.819,150.451 81.71,151.607 80.714,152.862 C79.708,154.108 78.79,155.435 77.938,156.81 C76.205,159.543 74.701,162.437 73.2,165.34 C71.707,168.249 70.255,171.191 68.669,174.075 C69.735,170.961 70.914,167.897 72.235,164.881 C73.548,161.864 75.019,158.901 76.775,156.078 C78.556,153.293 80.619,150.56 83.415,148.597 C84.812,147.635 86.402,146.903 88.08,146.624 C89.76,146.366 91.473,146.538 93.023,147.091 C91.398,146.834 89.754,146.866 88.222,147.284 M188.37,121.403 C184.886,122.273 181.553,123.672 178.317,125.242 C175.094,126.846 171.952,128.628 168.915,130.586 C165.87,132.529 162.887,134.585 160.004,136.775 C157.089,138.923 154.263,141.196 151.501,143.544 C148.713,145.864 146.043,148.321 143.407,150.811 C140.798,153.328 138.241,155.909 135.891,158.665 C134.708,160.035 133.575,161.451 132.574,162.952 C132.069,163.699 131.599,164.471 131.225,165.289 C130.849,166.098 130.535,166.973 130.667,167.89 C130.373,167.003 130.577,166.022 130.835,165.141 C131.112,164.248 131.497,163.396 131.915,162.567 C132.75,160.903 133.776,159.359 134.826,157.836 C136.973,154.823 139.358,151.996 141.879,149.303 C144.378,146.588 147.06,144.053 149.793,141.579 C152.55,139.129 155.415,136.8 158.359,134.574 C164.292,130.192 170.58,126.198 177.431,123.296 C180.846,121.846 184.413,120.676 188.103,120.086 C189.892,119.814 191.738,119.689 193.555,119.796 L186.702,118.36 C187.39,109.74 184.983,112.543 170.888,109.792 C160.695,107.803 156.196,102.275 151.365,92.001 L168.603,38.726 C168.713,38.75 168.779,38.763 168.779,38.763 C168.779,38.763 170.96,32.188 174.402,31.056 C180.595,29.017 176.048,39.144 173.022,44.748 C210.379,56.586 258.665,117.08 270.652,138.773 C237.273,62.008 200.539,37.109 178.134,21.598 C173.785,25.068 174.07,18.424 174.07,18.424 L169.169,3.107 C169.169,3.107 165.28,14.182 162.516,23.136 C161.625,26.022 160.852,28.686 160.363,30.69 L117.826,162.151 C116.931,161.755 116.138,161.428 115.557,161.193 L143.509,74.807 C132.142,58.891 93.961,61.139 82.538,54.673 C70.391,47.797 66.953,60.632 73.371,62.695 C79.788,64.757 78.183,81.029 77.496,92.717 C76.808,104.406 67.412,129.845 70.62,133.97 C72.652,136.583 75.048,140.115 74.671,143.226 C75.991,142.736 77.339,142.322 78.706,141.966 C80.438,141.536 82.205,141.238 83.989,141.065 C87.545,140.77 91.246,141.001 94.627,142.373 C96.305,143.061 97.873,144.059 99.136,145.359 C100.372,146.687 101.271,148.301 101.692,150.014 C100.98,148.4 99.958,146.966 98.67,145.847 C97.373,144.737 95.848,143.938 94.249,143.377 C92.639,142.835 90.953,142.515 89.248,142.388 C87.544,142.248 85.822,142.27 84.111,142.433 C80.795,142.713 77.521,143.48 74.335,144.524 C73.798,145.82 72.649,147 70.62,147.951 C63.287,151.389 68.1,166.279 63.155,185.422 C60.874,190.233 46.47,207.801 53.285,216.607 C52.877,215.614 52.688,214.537 52.65,213.501 C52.577,210.671 53.351,207.996 54.284,205.457 C55.239,202.915 56.435,200.489 57.732,198.13 C60.374,193.435 63.434,189.017 66.663,184.742 C69.907,180.479 73.306,176.334 76.931,172.395 C80.548,168.451 84.298,164.624 88.295,161.057 L89.054,160.399 L89.438,160.073 L89.628,159.911 L89.883,159.731 C90.585,159.4 91.246,159.336 91.922,159.237 C93.269,159.08 94.615,159.054 95.958,159.104 C97.298,159.161 98.64,159.293 99.953,159.595 C100.604,159.753 101.252,159.955 101.855,160.259 C102.436,160.562 103.047,161.018 103.165,161.702 C103.013,161.028 102.394,160.621 101.81,160.352 C101.206,160.085 100.558,159.92 99.909,159.797 C98.607,159.553 97.276,159.471 95.95,159.467 C94.624,159.468 93.294,159.545 91.995,159.749 C91.361,159.859 90.673,159.983 90.174,160.25 L90.027,160.364 L89.842,160.533 L89.476,160.871 L88.749,161.553 C84.871,165.199 81.222,169.09 77.72,173.099 C74.24,177.128 70.833,181.222 67.663,185.494 C64.491,189.76 61.499,194.168 58.932,198.797 C57.64,201.104 56.451,203.471 55.509,205.921 C54.585,208.361 53.846,210.924 53.896,213.459 C53.937,214.717 54.202,215.938 54.837,216.988 C55.448,218.04 56.383,218.868 57.502,219.396 C58.622,219.924 59.882,220.191 61.164,220.308 C62.446,220.429 63.757,220.406 65.065,220.295 C67.682,220.075 70.289,219.546 72.868,218.92 C75.449,218.29 78.004,217.538 80.556,216.763 L88.225,214.456 C89.266,214.165 90.31,213.865 91.362,213.598 L91.503,213.809 C90.441,214.12 89.384,214.452 88.333,214.8 L80.758,217.4 C78.224,218.249 75.672,219.056 73.081,219.755 C70.492,220.449 67.863,221.049 65.163,221.34 C63.815,221.485 62.446,221.545 61.068,221.449 C60.845,221.434 60.623,221.405 60.399,221.378 C70.538,225.988 85.435,228.226 92.114,233.646 L94.21,227.167 C94.502,227.249 94.82,227.324 95.195,227.375 C95.296,227.387 95.403,227.395 95.515,227.395 C95.665,227.395 95.826,227.378 95.997,227.347 L96.277,227.658 C96.37,227.76 96.451,227.849 96.538,227.946 L0,526.294 L9.813,529.47 L93.234,271.653 C89.725,330.808 80.06,447.671 57.557,473.851 C45.737,487.603 19.054,512.812 32.347,511.437 C38.671,510.782 45.203,512.189 52.015,514.538 C46.784,519.233 37.633,526.339 28.723,527.882 C15.158,530.23 50.426,529.485 59.39,525.329 C63.621,523.368 66.421,522.282 69.245,521.558 C71.356,522.468 73.494,523.38 75.663,524.271 C84.749,528.001 129.617,521.542 165.617,509.983 C172.242,511.847 178.779,513.493 180.044,513.819 C182.71,514.507 202.285,516.544 202.285,516.544 L213.961,511.675 L202.072,510.118 C202.072,510.118 194.943,506.202 187.467,501.733 C203.128,494.661 213.714,486.501 212.867,477.976 C210.04,449.558 207.444,360.634 205.61,329.466 C205.474,327.163 205.525,324.974 205.725,322.884 C205.156,322.739 204.56,322.706 204,322.851 C203.426,322.983 202.917,323.306 202.484,323.696 C201.598,324.468 200.986,325.505 200.432,326.538 C199.34,328.636 198.538,330.882 197.774,333.132 C196.267,337.646 194.937,342.233 193.422,346.774 C190.379,355.831 186.666,364.814 181.181,372.827 C178.457,376.831 175.291,380.569 171.655,383.827 C168.035,387.097 163.939,389.855 159.55,392.011 C157.356,393.087 155.086,394.019 152.763,394.773 C150.531,395.515 148.414,396.355 146.366,397.431 C142.27,399.552 138.642,402.499 135.491,405.896 C132.315,409.284 129.636,413.153 127.246,417.198 C124.844,421.245 122.766,425.505 120.725,429.794 C116.642,438.37 112.991,447.263 108.016,455.55 C105.525,459.675 102.745,463.685 99.355,467.181 C95.986,470.679 92.045,473.673 87.659,475.774 C83.255,477.839 78.499,479.048 73.711,479.456 C68.92,479.927 64.106,479.591 59.391,478.892 C61.769,479.083 64.15,479.247 66.53,479.2 C67.719,479.22 68.907,479.142 70.092,479.095 C70.684,479.058 71.274,478.991 71.864,478.94 C72.456,478.898 73.044,478.825 73.629,478.735 C78.326,478.132 82.905,476.745 87.059,474.575 C91.214,472.401 94.908,469.429 98.044,465.956 C101.197,462.487 103.834,458.564 106.169,454.47 C110.818,446.245 114.392,437.407 118.372,428.698 C120.367,424.343 122.489,420.019 124.931,415.839 C127.373,411.667 130.136,407.622 133.476,404.024 C136.816,400.444 140.721,397.304 145.123,395.05 C147.304,393.911 149.638,392.999 151.937,392.249 C154.159,391.546 156.313,390.653 158.417,389.665 C162.62,387.671 166.552,385.105 170.057,382.023 C173.566,378.946 176.684,375.415 179.422,371.597 C184.892,363.935 188.827,355.222 192.152,346.321 C193.853,341.876 195.377,337.355 197.088,332.884 C197.957,330.655 198.858,328.423 200.07,326.335 C200.698,325.314 201.383,324.286 202.351,323.536 C202.824,323.157 203.375,322.855 203.977,322.749 C204.564,322.636 205.167,322.704 205.726,322.882 C208.25,296.67 235.191,286.445 235.404,275.944 C228.569,238.848 209.281,131.722 196.894,120.654 C194.021,120.339 191.134,120.695 188.37,121.403" fill="#0B0B09"/>
  </g>
</svg>
