<?xml version="1.0" encoding="UTF-8" standalone="no"?>
<!-- Generator: Adobe Illustrator 12.0.1, SVG Export Plug-In . SVG Version: 6.00 Build 51448)  -->
<svg
    xmlns:rdf="http://www.w3.org/1999/02/22-rdf-syntax-ns#"
    xmlns="http://www.w3.org/2000/svg"
    xmlns:cc="http://web.resource.org/cc/"
    xmlns:xlink="http://www.w3.org/1999/xlink"
    xmlns:dc="http://purl.org/dc/elements/1.1/"
    xmlns:svg="http://www.w3.org/2000/svg"
    xmlns:inkscape="http://www.inkscape.org/namespaces/inkscape"
    xmlns:sodipodi="http://sodipodi.sourceforge.net/DTD/sodipodi-0.dtd"
    xmlns:ns1="http://sozi.baierouge.fr"
    id="Layer_1"
    xml:space="preserve"
    overflow="visible"
    viewBox="0 0 248.323 306.63"
    version="1.1"
    enable-background="new 0 0 248.323 306.63"
  >
<g
      clip-rule="evenodd"
      fill-rule="evenodd"
    >
	<path
        d="m136.96 19.772c0.713 0.567 2.145 0.416 1.92 1.92-1.5 0.224-2.14-0.417-1.92-1.92z"
    />
	<path
        d="m134.56 22.653c0.223 1.502-0.417 2.143-1.92 1.92-0.22-1.503 0.42-2.143 1.92-1.92z"
    />
	<path
        fill="#FFFFFF"
        d="m122.56 26.013c1.256 0.504 2.139 1.381 2.4 2.88-0.861-0.061-1.012 0.588-1.92 0.48-0.15-1.127-0.76-1.802-0.48-3.36z"
    />
	<path
        fill="#FFFFFF"
        d="m141.76 26.013c1.694 2.039-1.65 3.131-1.439 5.28-0.945-0.655-2.742-0.458-3.841-0.96 0.842-1.719 3.281-1.839 5.28-2.4v-1.92z"
    />
	<path
        d="m132.64 26.493c0.645 0.316 0.895 1.026 0.96 1.92-1.44 0.483-0.85-1.07-0.96-1.92z"
    />
	<path
        d="m129.76 27.933h1.44v1.92c-0.7-0.417-1.52-0.719-1.44-1.92z"
    />
	<path
        d="m114.4 35.613c-2.67-0.352-3.557-1.671-5.76-3.36 0.115-0.845 0.826-1.094 1.92-0.96-0.14 2.861 3.8 1.645 3.84 4.32z"
    />
	<path
        fill="#FFFFFF"
        d="m138.88 32.253c1.4-0.706 1.4 2.146 0 1.44v-1.44z"
    />
	<path
        d="m115.84 35.133c0.58-1.66 2.587-1.893 4.32-2.4-0.43 1.807-1.96 2.522-4.32 2.4z"
    />
	<path
        fill="#FFFFFF"
        d="m140.8 35.613v1.92c-1.406-0.034-2.706-0.174-2.399-1.92 0.63-0.616 1.77-0.616 2.4 0z"
    />
	<path
        fill="#FFFFFF"
        d="m133.12 41.853c-0.61 1.48-2.662 2.152-2.88 0-1.769 2.336-2.181-1.02-6.72 0 2-1.311 6.13-0.538 9.6 0z"
    />
	<path
        d="m119.68 45.693c-1.265 0.145-1.576-0.665-1.44-1.92 1.27-0.145 1.58 0.665 1.44 1.92z"
    />
	<path
        fill="#FFFFFF"
        d="m127.84 43.772c0.854 0.352 0.069 0.873 0 1.44-0.85-0.351-0.07-0.872 0-1.44z"
    />
	<path
        fill="#FFFFFF"
        d="m131.68 44.253c0.388 0.333 1.315 0.747 1.44 0 2.11 0.683-2.25 1.977-1.44 0z"
    />
	<path
        fill="#FFFFFF"
        d="m121.12 50.493c-2.8 1.64-3.38-1.16 0 0z"
    />
	<path
        fill="#FFFFFF"
        d="m127.36 53.373c-1.917 1.605-5.893 1.62-10.561 0.96 1.23-2.324 9.14-3.345 10.56-0.96z"
    />
	<path
        fill="#FFFFFF"
        d="m124.96 56.253c-0.553 0.567-0.543 1.696-0.48 2.88-2.662-0.171-2.939-0.149-5.76-0.48-0.111 2.511 2.945 1.855 5.28 1.92-0.705 1.132-1.013 0.893-0.48 2.4-2.922 0.362-4.067-1.053-6.72-0.96 0.501-1.079 3.083-3.924 0-4.32 1.49-1.747 4.79-0.38 8.16-1.44z"
    />
	<path
        fill="#FFFFFF"
        d="m125.44 56.733c0.855 0.265 1.994 0.247 2.4 0.96 0.455 1.734-1.891 0.669-2.88 0.96 0.38-0.427 0.52-1.084 0.48-1.92z"
    />
	<path
        fill="#FFFFFF"
        d="m105.76 65.853c-1.23 1.33-2.562 2.558-4.32 3.36 1.09-1.477 1.64-3.48 4.32-3.36z"
    />
	<path
        d="m125.44 67.292c0.209 2.474-4.692 1.536-5.28 0.48 0.56-1.908 3.01 0.221 5.28-0.48z"
    />
	<path
        fill="#FFFFFF"
        d="m90.402 69.693c9.689 0.545 17.293 0.624 28.32 1.92-0.97 5.093-6.237 0.526-9.12 0-1.299-0.237-2.479 0.557-3.84 0.48-1.481-0.083-5.793-1.45-8.64-1.44-1.746 0.006-3.558 0.918-5.28 0.48 0.193-1.151-2.184 0.266-1.438-1.44z"
    />
	<path
        fill="#FFFFFF"
        d="m93.282 72.573c-0.03 1.89-3.513 0.327-3.36 2.4 2.286-1.084 5.362-0.317 6.72 0.96 0.157-1.29 0.685-1.724 1.92-2.88-0.272-0.334-3.476 1.438-4.32-0.48 0.382-1.671 4.805-1.194 4.8 0.48 1.693-0.255 2.146-1.408 3.84-0.48-2.244 2.905-3.521 5.109-2.88 8.16 0.705 3.354 8.288 7.738 12 8.16 1.989 0.226 3.806-0.731 5.76-0.48 0.562-0.077 0.405-0.875 0.48-1.44 1.073 0.207 0.194 2.366 0.479 3.36-2.538-0.153-5.696 1.533-8.64 0.96-1.348-0.263-2.231-1.798-3.84-2.88-2.333-1.57-5.167-2.167-6.24-3.84-1.709-2.666-1.053-5.794-0.48-8.64-1.35 0.73-1.514 2.646-2.4 3.84-0.797-1.442-2.064-2.416-3.36-3.36-1.313 0.437 0.852 1.682-0.48 2.4-1.364 0.084 0.581-3.14-1.44-2.4-0.812 0.688-0.378 4.191 0.96 4.32-0.068 1.852-1.622 2.218-1.44 4.32-1.665-0.385-1.845 0.715-3.36 0.48-0.339-5.257 0.051-8.566-2.88-12.48 1.751-0.993 6.241-2.64 8.162-0.48zm-4.32 4.32c0.563 0.606 1.995 0.385 1.92-0.96-1.094-0.135-1.804 0.115-1.92 0.96z"
    />
	<path
        fill="#FFFFFF"
        d="m78.402 72.573c0.636 4.713-1.214 4.775-2.88 7.68-3.572-0.125-7.017 1.032-7.2 3.84-8.24 2.158-14.521 8.122-21.6 12-5.575 3.054-11.4 5.391-16.8 8.64-1.572 0.946-3.837 1.544-4.8 3.36-1.503-1.262-3.202 0.353-4.8 0.48-0.149 1.909 1.109 2.411 0.96 4.32-2.67 0.431-3.431-1.049-4.8-1.92 0.729-1.511 2.138-2.342 2.4-4.32-0.617-1.774-1.426-1.927-3.36-1.44-0.18-2.061-2.248-2.232-1.92-4.8 1.585-1.463 4.308-0.959 5.76 0.96 12.693-1.244 22.57-7.927 31.68-13.44 8.285-5.014 16.085-9.957 23.52-15.36 1.28 0.003 2.561 0.003 3.84 0.003zm-3.84 3.84c1.193 0.953 2.708-0.845 3.36-1.92-1.165-0.926-3.147 0.406-3.36 1.92z"
    />
	<path
        fill="#FFFFFF"
        d="m228.16 99.933c0.651-0.148 0.398-1.202 0.479-1.92 1.743 0.018 3.79-0.269 4.32 0.96-0.914 2.926-4.489 3.191-4.8 6.72 0.56 2.076 2.791 3.688 1.439 6.24-4.44 1.6-4.016-4.63-7.68-5.28 1.626-1.125 3.067 2.036 5.28 1.92 0.651-0.148 0.398-1.202 0.479-1.92-1.271 0.04-3.259-1.403-5.279-1.92-0.405-0.104-2.127 0.395-1.92 0.48-2.278-0.937-5.981-4.176-8.641-5.76-2.789-1.662-6.046-3.339-9.12-4.8-6.475-3.078-14.226-5.383-19.199-8.64-0.575-0.376-0.848-1.464-1.44-1.92-1.562-1.2-3.854-1.893-5.76-3.36-3.344 1.863-7.625-0.95-10.08-2.88 2.396-0.757 2.315-3.572 1.92-4.8 0.386-0.254 0.779-0.501 1.439-0.48 9.828 4.595 18.167 10.776 27.841 15.36 9.27 4.393 18.37 11.033 30.72 12.003z"
    />
	<path
        fill="#FFFFFF"
        d="m139.84 73.053c2.112 1.545 0.14 5.652-1.439 7.2-0.756 0.741-2.213 1.226-2.881 1.44-0.587-2.188 1.317-1.883 0.96-3.84-2.466 0.894-5.011 1.709-8.159 1.92 0.435-2.071 3.188-2.641 4.319-1.44 0.562-0.077 0.405-0.875 0.48-1.44 2.097 0.653 2.835-0.304 4.8 0.48 1.27-0.81 1.22-2.942 1.92-4.32z"
    />
	<path
        d="m77.922 74.493c-0.651 1.075-2.167 2.873-3.36 1.92 0.213-1.514 2.195-2.846 3.36-1.92z"
    />
	<path
        fill="#FFFFFF"
        d="m80.802 74.493c0.861-0.061 1.013 0.587 1.92 0.48 1.9 3.687-1.139 12.915-5.76 10.08 0.899-3.902 4.572-5.029 3.84-10.56z"
    />
	<path
        fill="#FFFFFF"
        d="m164.32 74.973c2.08 0.694-0.506 1.072 0 2.88 0.798 1.281 1.288 0.52 2.88 1.44-0.923 2.233 0.485 4.914 1.92 6.24-4.644 2.471-6.97-5.009-8.16-9.12 0.76-0.845 2.57-0.63 3.36-1.44z"
    />
	<path
        d="m90.882 75.933c0.075 1.345-1.357 1.566-1.92 0.96 0.116-0.845 0.826-1.095 1.92-0.96z"
    />
	<path
        fill="#FFFFFF"
        d="m116.8 78.812c0.155 1.089-6.516-0.082-8.16-0.96 1.42-2.368 6.32-0.474 8.16 0.96z"
    />
	<path
        fill="#FFFFFF"
        d="m142.24 78.333h0.96v0.96h-0.96v-0.96z"
    />
	<path
        fill="#FFFFFF"
        d="m77.922 79.772c-0.316 1.604-1.493 2.348-1.92 3.84-1.7-0.22-2.772-1.068-4.8-0.96 1.671-1.04 4.879-0.909 6.72-2.88z"
    />
	<path
        fill="#FFFFFF"
        d="m109.6 84.093c-1.408-1.057-3.349 0.56-5.76 0v-1.44c1.56-0.829 5.63-0.687 5.76 1.44z"
    />
	<path
        fill="#FFFFFF"
        d="m98.562 84.093c1.049 0.07 1.031 1.209 0.96 2.4-1.202 0.399-1.885 1.315-3.36 1.44-1.111-2.035 1.39-2.562 2.4-3.84z"
    />
	<path
        fill="#FFFFFF"
        d="m149.44 87.933c-1.555 1.084-3.083-1.174-3.841-2.4 1.65-1.18 3.26 1.002 3.84 2.4z"
    />
	<path
        fill="#FFFFFF"
        d="m134.56 87.933c1.047 1.004-0.239 1.37 0 2.88-1.35 0.35-5.379-0.235-8.159 0-0.75-4.432 6.02-1.346 8.16-2.88z"
    />
	<path
        fill="#FFFFFF"
        d="m146.56 90.812c-0.902 1.814-4.591-0.475-6.72-0.48 1.38-2.762 4.36 0.099 6.72 0.48z"
    />
	<path
        d="m102.4 90.812c-0.145-1.265 0.665-1.575 1.92-1.44-0.42 0.703-0.72 1.522-1.92 1.44z"
    />
	<path
        fill="#FFFFFF"
        d="m127.84 93.693c0.994 0.286 3.153-0.593 3.36 0.48 0.26 1.798-3.52 0.677-3.36-0.48z"
    />
	<path
        fill="#FFFFFF"
        d="m151.36 93.693c0.651 0.148 0.397 1.202 0.479 1.92-1.11-0.134-1.1-1.282-0.48-1.92z"
    />
	<path
        fill="#FFFFFF"
        d="m92.322 94.173h0.96v0.96h-0.96v-0.96z"
    />
	<path
        fill="#FFFFFF"
        d="m132.16 94.173c1.664 0.797 2.556-0.417 4.319 0.48-0.36 0.638-4.69 1.203-4.32-0.48z"
    />
	<path
        d="m125.44 96.093v-1.44c1.4-0.706 1.4 2.145 0 1.44z"
    />
	<path
        fill="#FFFFFF"
        d="m101.44 98.013c-2.146 1.138-5.225 2.791-7.68 0.96 1.528-2.506 5.339-2.869 7.68-0.96z"
    />
	<path
        fill="#FFFFFF"
        d="m149.92 99.453c-2.132 1.538-3.157-1.444-5.28-1.44 1.2-2.603 4.47-0.411 5.28 1.44z"
    />
	<path
        fill="#FFFFFF"
        d="m156.64 99.453c4.047 7.351-2.192 14.883-9.6 15.36-0.712-0.568-0.747-1.813-1.44-2.4 0.357-1.083 2.692-0.188 3.841-0.48 1.247 0.582 0.426-1.605 1.439-1.92 0.235-0.073 0.942 0.821 1.44 0.48 3.2-2.19 5.08-6.14 4.32-11.037z"
    />
	<path
        fill="#FFFFFF"
        d="m90.882 100.41c0.56 0.72 1.386 1.174 1.44 2.4-0.963-0.163-1.501 0.099-1.44 0.96-1.025-0.3-0.449-2.95 0-3.36z"
    />
	<path
        fill="#FFFFFF"
        d="m133.12 100.41c2.352 0.369 5.082 0.358 5.28 2.88-2.11-0.61-4.29-1.14-5.28-2.88z"
    />
	<path
        fill="#FFFFFF"
        d="m152.8 101.85c1.614-0.115 2.48 1.783 1.44 2.88-1.03-0.4-1.7-1.18-1.44-2.88z"
    />
	<path
        fill="#FFFFFF"
        d="m139.36 102.81c0.567-1.292 2.502 0.002 3.359 0-0.697 0.743-1.872 1.008-3.359 0.96 0.3-0.42 0.58-0.86 0-0.96z"
    />
	<path
        fill="#FFFFFF"
        d="m109.6 106.65c0.562 0.078 0.405 0.875 0.48 1.44-3.299 1.153-5.082 3.087-8.64 2.88 1.55-2.61 5.87-2.45 8.16-4.32z"
    />
	<path
        fill="#FFFFFF"
        d="m141.28 109.53c0.907 0.532 2.268 0.612 3.359 0.96-1.07 0.81-3.67 1.58-3.36-0.96z"
    />
	<path
        fill="#FFFFFF"
        d="m97.123 115.29c-1.482 1.558-2.788 3.292-5.28 3.84 0.437-2.4 2.694-5.14 5.28-3.84z"
    />
	<path
        fill="#FFFFFF"
        d="m133.6 115.29c1.45 0.31 1.34 2.18 2.4 2.88 0.081 1.041-1.702 0.217-2.4 0.48-0.576-0.63-0.187-0.755 0-1.44-2.303 1.297-3.241-1.082-6.239-0.48 0.38-4.07 5.82 0.39 6.24-1.44z"
    />
	<path
        fill="#FFFFFF"
        d="m16.482 115.29c0.556 0.71 0.556 1.209 0 1.92 11.687 11.673 23.521 23.199 36 34.08 0.899 0.701 3.181 0.019 3.84 0.96 0.122 2.002-3.732 3.859-5.76 5.28-0.645-0.955-0.915-2.285-1.44-3.36-10.008-11.913-22.022-21.818-33.12-32.64-0.667-0.614-0.294-2.266-0.96-2.88-1.815-0.695-0.921 1.319-2.4 0.96-1.991-2.18-0.021-5.21 3.84-4.32z"
    />
	<path
        fill="#FFFFFF"
        d="m150.4 115.29c0.295 1.744 0.389 1.782 1.439 3.36 0.427-1.052 2.047-1.392 1.92 0.48-3.311 0.59-3.36-2.079-5.28-2.88 0.12-0.84 0.83-1.09 1.92-0.96z"
    />
	<path
        fill="#FFFFFF"
        d="m113.44 117.69c-1.247 0.994-3.896 0.583-4.8 1.92-1.05-1.08 5.03-6.04 4.8-1.92z"
    />
	<path
        fill="#FFFFFF"
        d="m102.4 117.69c0.209-0.591 0.614-0.986 1.44-0.96-0.21 0.59-0.61 0.99-1.44 0.96z"
    />
	<path
        fill="#FFFFFF"
        d="m226.72 116.73c2.33 0.071 3.843 2.976 2.88 4.8-1.84-0.78-5-2.94-2.88-4.8z"
    />
	<path
        fill="#FFFFFF"
        d="m142.24 117.21c1.882 1.158 4.313 1.767 5.279 3.84-2.05-0.99-4.68-1.39-5.28-3.84z"
    />
	<path
        fill="#FFFFFF"
        d="m226.72 122.01c-10.473 11.288-21.341 22.179-32.64 32.64-0.899 1.182-1.501 2.659-2.4 3.841-2.271-0.769-2.644-3.437-4.319-4.8 1.467 0.346 1.749-0.491 2.88-0.48 12.074-9.846 22.853-20.987 33.6-32.16 1.12 0.16 1.99 0.58 2.88 0.96z"
    />
	<path
        fill="#FFFFFF"
        d="m236.32 126.33c-1.038 1.083-1.638-0.397-3.36 0-0.136-1.944-0.752-3.408-2.4-3.84 2.32-2.6 4.77 2.03 5.76 3.84z"
    />
	<path
        fill="#FFFFFF"
        d="m88.482 122.49c0.775-0.135 0.826 0.454 1.44 0.48 0.227 1.507-1.292 1.268-1.44 2.4-1.068-0.2-0.376-2.54 0-2.88z"
    />
	<path
        d="m117.28 122.49c1.444-0.484 0.851 1.069 0.96 1.92-0.84-0.11-1.09-0.82-0.96-1.92z"
    />
	<path
        fill="#FFFFFF"
        d="m155.2 123.45c1.138-1.615 3.431 1.262 1.92 2.4-1.06-0.38-0.62-2.25-1.92-2.4z"
    />
	<path
        fill="#FFFFFF"
        d="m132.64 123.93c1.512-0.232 1.087 1.473 2.88 0.96-0.041 0.682-0.079 1.359 0.48 1.44-0.77 0.74-3.78-0.35-3.36-2.4z"
    />
	<path
        d="m127.36 127.29c-3.178-1.204-7.635 0.597-9.601-0.96 1.2-2.71 11.04-2.78 9.6 0.96z"
    />
	<path
        fill="#FFFFFF"
        d="m94.722 124.89c-1.568 1.312-2.086 3.674-4.32 4.32 1.061-1.82 1.234-4.52 4.32-4.32z"
    />
	<path
        fill="#FFFFFF"
        d="m107.68 124.89c1.212 0.908-0.443 1.683 0.48 2.88-1.376 0.864-3.383 1.097-4.32 2.4-0.814-0.312-0.3-1.104 0.48-0.96-1.04-2.24 2.53-2.52 3.36-4.32z"
    />
	<path
        fill="#FFFFFF"
        d="m138.4 128.25c0.407-1.409 1.208 0.624 2.399 0-0.12 1.13-2.11 0.28-2.4 0z"
    />
	<path
        fill="#FFFFFF"
        d="m131.2 130.65c-0.918-0.202-2.066-0.174-1.92-1.44 1.35-0.49 2.05-0.54 1.92 1.44z"
    />
	<path
        fill="#FFFFFF"
        d="m141.76 129.69c0.448 0.512 1.771 0.149 1.44 1.44-0.45-0.51-1.77-0.15-1.44-1.44z"
    />
	<path
        fill="#FFFFFF"
        d="m132.16 133.05c0.738 2.346-2.388 2.271-3.36 1.44-1.494 3.02-7.571 0.515-11.52 1.92 0.373-0.427 0.516-1.084 0.48-1.92-1.168 0.928-4.016 0.462-5.28 0 0.994-5.106 7.341 1.321 10.08-2.4 2.72 1.55 6.36 0.15 9.6 0.96z"
    />
	<path
        d="m126.4 139.77c-2.617 2.119-6.098 0.598-8.641 0.48 1.52-1.7 6.62-0.23 8.64-0.48z"
    />
	<path
        fill="#FFFFFF"
        d="m146.08 146.97c0.713 0.407 0.694 1.545 0.96 2.4-1.05-0.07-1.03-1.21-0.96-2.4z"
    />
	<path
        fill="#FFFFFF"
        d="m64.002 155.61c-0.696 1.864-2.521 2.601-4.32 3.36-0.357-1.478 1.318-0.922 0.96-2.4-3.825-0.145-3.894 3.467-8.16 2.881 1.598-5.01 7.48-6 11.52-3.84z"
    />
	<path
        d="m127.84 157.53c-1.662 0.336-1.722-1.684-0.96-2.4 0.71 0.41 1.04 1.21 0.96 2.4z"
    />
	<path
        fill="#FFFFFF"
        d="m159.04 169.53c-5.006 1.554-7.279 5.84-6.24 13.439 4.765 2.757 9.217 10.719 2.4 15.84-3.281 0.241-5.872-0.208-7.681-1.439 0.322-2.719 0.832-5.249 1.921-7.2-2.745-1.164-1.703 5.234-3.841 6.24 0.048-2.058 1.089-3.644-0.479-4.8-1.933 1.032 0.314 3.262-0.48 3.84-5.259-0.531-11.428 3.099-16.8 5.279-1.084 0.27 0.582 0.749-0.479 1.44-1.227-0.374-2.009-1.191-2.88-1.92 1.127-2.872 6.826-1.175 8.64-3.36 0.56-0.72 1.386-1.174 1.439-2.399 5.739-1.781 6.396-8.645 8.641-13.921-0.824-0.615-0.01-2.87-1.44-2.88-0.438 2.047-0.247 3.654-0.96 6.24-0.74-4.699-3.707-7.173-4.8-11.52-1.499-1.13-2.535-0.226-3.84-0.96 0.029-4.504 4.253-5.021 5.28-9.601 2.884-1.063 4.398-4.672 7.68-5.76 0.063-0.021 1.594 0.477 2.399 0 2.722-1.608 8.752 1.734 10.08 3.84 1.51 2.39 1.45 5.81 1.44 9.6zm-8.16 13.44c-1.456-0.016-1.196 1.685-1.439 2.88 4.735-0.768 1.03-7.812 0-10.08-0.23-3.27 0.233-5.846 0.479-8.64h-1.44c-2.17 5.51-0.32 11.64 2.4 15.84zm2.4-13.44h1.439v-1.44h-0.96c-0.02 0.62-0.61 0.67-0.48 1.44zm-2.4 4.8c1.873-0.047 0.941-2.899 1.92-3.84-2.19-0.27-1.78 2.07-1.92 3.84zm-1.44 14.88c1.992-0.248 2.239-2.24 5.279-1.44-0.42-2.92-5.86-1.13-5.28 1.44zm0 6.24c2.843-0.357 2.18-4.22 5.76-3.84 1.104 0.175 0.459 2.101 1.92 1.92 0.348-1.469-0.828-1.412-0.48-2.881-4.27-0.27-6.97 1.03-7.2 4.8zm4.8 0c1.848 0.378 1.848-2.299 0-1.92v1.92z"
    />
	<path
        fill="#FFFFFF"
        d="m182.08 156.57c-0.573 2.073 1.572 2.691 0.479 3.841-1.54-0.7-3.122-1.357-3.359-3.36 0.57-0.55 1.7-0.54 2.88-0.48z"
    />
	<path
        d="m95.203 157.53c-0.446 1.475-3.006 0.834-3.84 1.92 0.454 2.533-1.062 3.098-1.92 4.319 1.258 1.022 2.172 4.441-0.48 4.32-3.088-3.86 0.099-12.16 6.24-10.56z"
    />
	<path
        d="m102.88 158.97c-1.185-0.415-3.323 0.123-3.36-1.439 1.3-0.53 2.97-0.18 3.36 1.44z"
    />
	<path
        fill="#FFFFFF"
        d="m187.36 157.53c1.907-0.014 5.311 3.49 1.92 4.319-0.896-0.854 0.39-1.22 0-2.88-1.335 0.165-1.737 2.526-3.36 0.96-0.22-1.5 1.29-1.27 1.44-2.4z"
    />
	<path
        fill="#FFFFFF"
        d="m72.643 158.97c2.692 0.828 4.748 2.292 6.24 4.32-2.879-0.001-2.957-2.803-6.24-2.4v-1.92z"
    />
	<path
        fill="#FFFFFF"
        d="m184.48 159.45c1.004 0.436 1.463 1.416 1.439 2.88-1.113 0.153-1.843-0.077-2.399-0.48-0.41-1.53 0.76-1.48 0.96-2.4z"
    />
	<path
        fill="#FFFFFF"
        d="m170.08 160.89c-0.392 2.329-2.904 2.536-4.8 3.36 0.32-2.09 3.64-3.7 4.8-3.36z"
    />
	<path
        d="m126.88 161.85c1.083 0.357 0.188 2.692 0.48 3.84-2.57-0.31-1.85-2.88-0.48-3.84z"
    />
	<path
        fill="#FFFFFF"
        d="m188.32 161.85c0.656 0.614 0.656 2.267 0 2.88-1.478 0.357-0.923-1.317-2.4-0.96 0.09-1.35 0.84-2.04 2.4-1.92z"
    />
	<path
        fill="#FFFFFF"
        d="m79.362 163.77c0.775-0.135 0.827 0.454 1.44 0.48 0.191 0.93-2.186 0.7-1.44-0.48z"
    />
	<path
        fill="#FFFFFF"
        d="m164.8 164.25c0.542 2.301-1.83 1.689-2.399 2.88-1.05-0.93 1.12-2.69 2.4-2.88z"
    />
	<path
        d="m148.48 167.13h1.44c-0.246 2.794-0.71 5.37-0.479 8.64 1.03 2.268 4.735 9.312 0 10.08 0.243-1.195-0.017-2.896 1.439-2.88-2.72-4.2-4.57-10.33-2.4-15.84z"
    />
	<path
        fill="#FFFFFF"
        d="m74.083 167.61c-0.09 1.351-0.835 2.046-2.4 1.921 0.089-1.35 0.835-2.04 2.4-1.92z"
    />
	<path
        d="m95.203 167.61h1.44c1.026 1.694 0.846 4.595 2.4 5.761-0.44 0.674-2.479 3.804-0.48 3.84-1.514 1.846-2.895 3.825-3.84 6.24-3.017-2.71 1.081-5.667 1.44-8.641 0.317-2.63-0.957-4.27-0.96-7.2z"
    />
	<path
        fill="#FFFFFF"
        d="m128.8 167.61c-0.29 1.057-1.206 3.578 0.48 3.841-3.358 1.935-8.4 1.36-12.48 0.479 0.244 1.517 1.413 2.107 1.44 3.84 4.723 0.11 10.365-0.1 12.96-3.359 0.873 1.046 2.967 0.873 3.84 1.92 0.02 3.341 1.093 5.627 2.4 7.68-1.443 0.316-1.676 1.845-3.841 1.44 1.463-1.658-0.461-1.377-1.439-1.92-1.26-0.7-1.357-1.729-1.92-1.921-2.705-0.924-8.134 0.3-12.48 0.48-1.487 0.062-6.671-0.675-6.72 2.4 0.151 1.599 2.275-1.445 1.92 0.96-2.559 0.318-4.201-0.279-4.8-1.92 0.694-2.826 2.167-4.873 2.88-7.681 2.679-1.321 5.466-2.534 6.24-5.76 1.202-0.081 1.503 0.737 1.92 1.44 1.568-1.494 6.233-2.166 6.72 0.479 1.56-0.2 0.39-3.13 2.88-2.4z"
    />
	<path
        fill="#FFFFFF"
        d="m80.802 168.09c2.019 2.941 4.111 5.809 7.2 7.68-0.058 1.383 0.262 3.143-0.48 3.84-1.865-1.015-1.76-3.999-4.32-4.319 1.416-3.09-2.792-3.64-2.4-7.2z"
    />
	<path
        d="m153.76 168.09h0.96v1.44h-1.439c-0.13-0.77 0.46-0.82 0.48-1.44z"
    />
	<path
        fill="#FFFFFF"
        d="m169.12 168.57c1.183 0.418 2.081 1.119 1.92 2.881-1.3-0.29-1.88-1.32-1.92-2.88z"
    />
	<path
        fill="#FFFFFF"
        d="m77.922 173.85c-2.5-0.22-2.984-2.455-4.8-3.359 1.949-3.27 3.737 1.51 4.8 3.36z"
    />
	<path
        d="m152.8 170.49c-0.979 0.94-0.047 3.793-1.92 3.84 0.14-1.77-0.27-4.11 1.92-3.84z"
    />
	<path
        fill="#FFFFFF"
        d="m167.68 170.49c1.31-0.35 0.967 0.953 1.92 0.96-2.284 1.235-2.527 4.512-5.76 4.8 0.16-3.04 3.26-3.13 3.84-5.76z"
    />
	<path
        fill="#FFFFFF"
        d="m63.522 171.93c1.685 0.299 0.427 2.006-0.96 1.92-0.349-1.31 0.954-0.96 0.96-1.92z"
    />
	<path
        fill="#FFFFFF"
        d="m69.762 171.93c0.247 2.793 3.298 2.782 3.36 5.76-2.906-0.614-3.456-3.584-5.76-4.8 0.071-1.05 1.21-1.03 2.4-0.96z"
    />
	<path
        fill="#FFFFFF"
        d="m160.48 172.89c0.72 1.695-2.26 3.809-2.399 6.24-1.56-2.53 1.15-4.91 2.4-6.24z"
    />
	<path
        fill="#FFFFFF"
        d="m64.482 173.85c0.558-0.078 0.854 0.106 0.96 0.48 0.312 3.136 4.25 4.91 3.36 7.68-2.111-1.76-6.278-5.38-4.32-8.16z"
    />
	<path
        fill="#FFFFFF"
        d="m78.882 173.85c2.568 1.752 4.861 3.779 6.24 6.72-2.44-1.62-6.658-3.81-6.24-6.72z"
    />
	<path
        fill="#FFFFFF"
        d="m178.24 174.33c1.255-0.136 2.064 0.175 1.92 1.439-0.92-0.2-2.06-0.17-1.92-1.44z"
    />
	<path
        fill="#FFFFFF"
        d="m177.76 175.77c0.631 0.17 0.755 0.846 1.44 0.96-3.767 3.594-4.905 9.815-9.601 12.48 3.09-4.11 5.26-9.15 8.16-13.44z"
    />
	<path
        fill="#FFFFFF"
        d="m59.682 176.73c1.72 1 1.624 3.816 3.84 4.32-0.071 1.05-1.209 1.03-2.4 0.96 0.037-2.15-2.33-3.79-1.44-5.28z"
    />
	<path
        fill="#FFFFFF"
        d="m163.84 176.73c-1.452 1.748-2.309 4.092-4.8 4.801 1.12-2.07 2.42-3.97 4.8-4.8z"
    />
	<path
        fill="#FFFFFF"
        d="m182.56 176.73c0.387 0.254 0.779 0.501 1.44 0.48-1.011 1.869-0.923 4.837-3.36 5.28 0.42-2.14 2.34-2.78 1.92-5.76z"
    />
	<path
        fill="#FFFFFF"
        d="m74.083 177.69c1.195 0.195 0.028 1.861-0.96 1.44-0.265-1.06 0.916-0.68 0.96-1.44z"
    />
	<path
        fill="#FFFFFF"
        d="m75.042 179.13c1.412 1.468 1.588 4.172 2.88 5.76-2.037-0.8-4.529-4.21-2.88-5.76z"
    />
	<path
        fill="#FFFFFF"
        d="m168.64 179.13c0.775-0.136 0.827 0.453 1.44 0.479-1.354 1.846-1.767 4.634-4.32 5.28 0.26-2.62 2.63-3.13 2.88-5.76z"
    />
	<path
        fill="#FFFFFF"
        d="m119.2 181.53c0.194-1.062 2.813-0.643 1.92 0.96 2.897-0.031 5.016-1.312 6.24-0.48 1.408 0.408-0.625 1.208 0 2.4 2.235-0.579 2.65-1.117 5.279-0.48-0.889 4.203-3.409 6.039-7.2 6.24-0.36 1.64 1.951 0.609 1.44 2.4-1.589 1.78-6.08 1.949-7.68 0-0.462-1.742 2.157-0.403 1.92-1.921-1.575-1.89-4.052-0.029-6.24-1.439 0.254-2.014-0.838-2.682-0.96-4.32 2.046-0.05 3.186-1.292 2.4-2.88 1.466 0.134 1.054 2.146 2.4 2.4 1.68 0.55 3.23-3.37 0.48-2.88zm7.68 6.24c1.824-0.191 1.821-2.207 3.84-0.96-0.19-2.4-6.08-1.55-3.84 0.96zm-9.12-1.44v0.96c0.293 0.027 0.568 0.071 0.48 0.479h0.96c0.027-0.292 0.071-0.568 0.48-0.479v-0.96c-0.293-0.027-0.568-0.072-0.48-0.48h-0.96c-0.02 0.3-0.07 0.57-0.48 0.48z"
    />
	<path
        fill="#FFFFFF"
        d="m69.762 181.53c1.46 1.899 2.133 4.587 3.36 6.72-2.276-1.26-5.171-4.2-3.36-6.72z"
    />
	<path
        fill="#FFFFFF"
        d="m62.562 182.49c1.35 0.907 3.102 3.372 2.4 4.8-1.598-0.8-2.497-2.3-2.4-4.8z"
    />
	<path
        fill="#FFFFFF"
        d="m162.4 182.97v2.88c-1.643 0.203-1.442-1.438-2.4-1.92 0.41-0.71 1.21-1.03 2.4-0.96z"
    />
	<path
        fill="#FFFFFF"
        d="m180.16 182.97c2.081 0.658-0.037 1.977-0.48 2.88-1.13-0.4 0.4-2.1 0.48-2.88z"
    />
	<path
        d="m94.722 186.81h-3.84c0.385-1.83 3.308-1.96 3.84 0z"
    />
	<path
        d="m130.72 186.81c-2.019-1.247-2.016 0.769-3.84 0.96-2.24-2.51 3.65-3.36 3.84-0.96z"
    />
	<path
        fill="#FFFFFF"
        d="m164.8 185.37c0.775-0.136 0.826 0.453 1.44 0.479 0.35 1.31-0.954 0.967-0.96 1.92-1.04 0.08-0.22-1.7-0.48-2.4z"
    />
	<path
        d="m118.24 185.85h0.96c-0.088 0.408 0.187 0.453 0.48 0.48v0.96c-0.409-0.089-0.453 0.188-0.48 0.479h-0.96c0.088-0.408-0.188-0.452-0.48-0.479v-0.96c0.41 0.09 0.46-0.18 0.48-0.48z"
    />
	<path
        d="m154.72 187.77c-3.04-0.8-3.287 1.192-5.279 1.44-0.58-2.57 4.86-4.36 5.28-1.44z"
    />
	<path
        fill="#FFFFFF"
        d="m178.72 186.33c1.302 0.723-0.764 2.07-0.96 2.88-1.39-0.81 0.43-2.41 0.96-2.88z"
    />
	<path
        fill="#FFFFFF"
        d="m64.962 187.77c0.59 0.21 0.986 0.614 0.96 1.44-0.59-0.21-0.985-0.61-0.96-1.44z"
    />
	<path
        d="m96.163 192.57c0.087 1.047-0.393 1.526-1.44 1.439-1.513 0.073-0.934-1.946-1.92-2.399-1.408-0.596-4.442 0.709-4.8-1.921 3.27-1.39 6.286 1.31 8.16 2.88z"
    />
	<path
        d="m156.64 190.65c-0.348 1.469 0.828 1.412 0.48 2.881-1.461 0.181-0.815-1.745-1.92-1.92-3.58-0.38-2.917 3.482-5.76 3.84 0.23-3.77 2.93-5.07 7.2-4.8z"
    />
	<path
        d="m92.322 193.05c0.11 1.71-0.69 2.51-2.4 2.4-0.213-0.428-0.421-0.858-0.96-0.96-0.19-1.79 2.184-2.47 3.36-1.44zm-1.92 0.48c-0.505 2.79 2.08 0.2 0 0z"
    />
	<path
        fill="#FFFFFF"
        d="m90.402 193.53c2.08 0.2-0.505 2.79 0 0z"
    />
	<path
        d="m154.24 193.53c1.848-0.379 1.848 2.298 0 1.92v-1.92z"
    />
	<path
        fill="#FFFFFF"
        d="m121.12 195.45c0.207-1.073 2.365-0.194 3.36-0.48-0.2 1.08-2.36 0.2-3.36 0.48z"
    />
	<path
        fill="#FFFFFF"
        d="m144.16 197.85c0.562 0.078 0.404 0.875 0.479 1.44h-1.439c-0.26-1.06 0.92-0.68 0.96-1.44z"
    />
	<path
        fill="#FFFFFF"
        d="m160.96 204.57c-0.078 0.558 0.106 0.854 0.48 0.96-0.324 2.854-2.326 4.346-1.921 7.199 0.33 2.322 2.354 5.277 4.32 6.721-6.126 1.642-5.856-7.261-13.92-5.28-0.831-2.902 0.523-3.984 0.96-6.72 1.38 0.099 2.438-0.122 2.88-0.96 1.643-1.377-2.479-2.678-0.96-3.841 2.29-0.71 5.17 1.77 8.16 1.92z"
    />
	<path
        fill="#FFFFFF"
        d="m148.96 205.05c0.43 1.55-1.565 0.675-1.92 1.44-0.752 3.991-0.199 6.282 1.439 9.6-1.22 1.695-3.295 0.214-4.8-0.479-1.39-4.996-0.174-7.652 1.44-11.521 1.58-0.13 3.62-1.2 3.84 0.96z"
    />
	<path
        d="m123.52 205.05h0.96v0.96h-0.96v-0.96z"
    />

	<path
        d="m77.922 222.33c-1.531-0.285-1.484 0.9-2.4 0 1.047-4.232 7.746-2.814 7.2-8.641 2.455-0.905 2.121-4.599 3.36-6.72 2.05 3.647-1.727 9.358-4.32 11.521-0.078 0.558 0.106 0.854 0.48 0.96-2.302 1.47-4.244-0.71-4.32 2.88z"
    />
	<path
        d="m113.44 208.89c0.147 1.107-1.387 0.533-1.44 1.44-1.57-0.8 0.88-2.6 1.44-1.44z"
    />
	<path
        d="m133.12 208.89h1.92c0.34 1.9-2.02 1.57-1.92 0z"
    />
	<path
        d="m74.083 224.25h-0.96v-0.96h0.96v0.96z"
    />
	<path
        fill="#FFFFFF"
        d="m119.2 251.13c-0.901 0.849 0.571 1.401-0.48 2.4-1.43-0.04-1.28-2.86 0.48-2.4z"
    />
	<path
        d="m215.2 251.13v1.44c-1.004 0.203-1.271-0.329-1.92-0.48 0.12-0.84 0.83-1.09 1.92-0.96z"
    />
	<path
        fill="#FFFFFF"
        d="m120.16 251.61c1.713 0.685 3.75 1.964 2.88 3.84-1.48-0.64-4.32-1.79-2.88-3.84z"
    />
	<path
        fill="#FFFFFF"
        d="m123.04 257.85c0.35 1.31-0.954 0.967-0.96 1.92 0.091 0.39 0.481 0.479 0.48 0.96 1.255 0.136 2.064-0.175 1.92-1.439 1.478-0.357 0.922 1.317 2.4 0.96-1.284 1.821-1.416 1.547-0.479 3.84-1.088-2.593-6.141-1.22-5.76-5.28-2.019 1.157-5.543 0.264-6.72-0.96 0.248 2.153 2.836 1.964 3.84 3.36 0.769 1.889-2.073 0.167-1.92 1.439-2.362-2.598-5.689-4.23-10.08-4.8-0.336-1.776 1.683-1.197 2.4-1.92-0.141-0.567-1.934-1.813-0.48-2.399 2.282-0.051 5.259 1.726 8.16 1.92 0.7 0.047 0.943-0.61 1.44-0.48 2.4 0.63 3.77 2.43 5.76 2.88zm-8.16-1.92c-2.167-0.374-5.464-0.868-5.76 0.96 4.209-0.369 7.152 0.527 10.56 0.96-0.62-1.05-3.22-1.64-4.8-1.92zm-1.44 1.92c-0.727-0.585-4.134-0.942-4.8 0 0.73 0.59 4.14 0.95 4.8 0z"
    />
	<path
        fill="#FFFFFF"
        d="m92.802 255.45c0.386 0.254 0.779 0.5 1.44 0.479 0.412 1.531-0.755 1.484-0.96 2.4-1.06-0.06-0.203-2.03-0.48-2.88z"
    />
	<path
        d="m119.68 257.85c-3.408-0.433-6.351-1.329-10.56-0.96 0.295-1.828 3.593-1.334 5.76-0.96 1.58 0.28 4.18 0.87 4.8 1.92z"
    />
	<path
        d="m108.64 257.85c0.666-0.942 4.073-0.585 4.8 0-0.66 0.95-4.07 0.59-4.8 0z"
    />
	<path
        d="m16.002 263.13c1.173-1.65 4.233 0.459 2.4 1.92-1.353-0.08-0.598-2.28-2.4-1.92z"
    />
	<path
        fill="#FFFFFF"
        d="m148 266.49c-0.761 0.863-2.383 3.345-0.96 4.8-1.273 2.289-5.464 1.191-6.24-0.96 0.88-2.71 4.51-4.45 7.2-3.84z"
    />
	<path
        fill="#FFFFFF"
        d="m227.68 268.41c-0.995 3.155-2.353 5.739-2.88 8.16 0.561 2.465 2.591 4.98 1.44 7.68-5.669-1.156-11.921-2.226-19.681-2.88-2.516-0.213-5.025-1.334-7.199-1.44-3.43-0.167-6.917 0.646-10.561 0.48-11.431-0.52-25.991-2.694-38.88-0.96 1.546-3.275-0.608-6.657-0.96-9.601 2.186-1.087 3.95 0.736 5.28 1.92 16.417 3.957 29.45 3.746 46.08 3.36-0.312 0.488-1.104 0.496-0.96 1.44 4.471-1.034 9.802 0.092 12.96-1.44 1.279-0.621 2.262-1.528 3.84-2.4 3.093-1.708 6.924-2.026 8.64-5.279 0.62 0.67 2.27 0.3 2.88 0.96zm-7.2 10.08c2.049 0.323 3.758-1.282 2.88-2.4-1.26 0.5-3.13 0.39-2.88 2.4zm-6.24 0.96c1.761 0.328 4.02 0.794 4.319-1.44-1.42 0.5-3.84 0.01-4.32 1.44z"
    />
	<path
        fill="#FFFFFF"
        d="m149.44 274.17c-0.285 7.938-5.23 4.978-10.08 6.72-1.291 0.331-0.928-0.992-1.44-1.439-1.514 0.565-2.667 1.493-3.84 2.399-2.054-0.187-2.286-2.193-2.4-4.319 0.691-0.27 1.172-0.749 1.44-1.44 1.51-0.229 1.876 0.684 2.88 0.96 1.438-0.315-0.459-1.026 0-1.92 2.239-1.316 3.527 0.424 4.8 1.44-0.08-1.36-0.88-2.001-0.96-3.36 3.07-0.42 7.28 0.44 9.6 0.96zm-4.32 2.88c1.255 0.136 2.064-0.175 1.92-1.439-1.25-0.13-2.06 0.18-1.92 1.44z"
    />
	<path
        d="m147.04 275.61c0.145 1.265-0.665 1.575-1.92 1.439-0.14-1.26 0.67-1.57 1.92-1.44z"
    />
	<path
        d="m30.882 276.57c-2.969 1.679-7.05 2.303-10.08 0.479 2.509-1.33 6.76-0.21 10.08-0.48z"
    />
	<path
        d="m223.36 276.09c0.878 1.118-0.831 2.724-2.88 2.4-0.25-2.01 1.62-1.9 2.88-2.4z"
    />
	<path
        d="m218.56 278.01c-0.3 2.234-2.559 1.769-4.319 1.44 0.48-1.43 2.9-0.94 4.32-1.44z"
    />
	<path
        fill="#FFFFFF"
        d="m131.68 281.37c-1.373 2.229-6.634 4.32-8.64 2.88 1.542-2.138 5.634-1.727 6.72-4.32 1.54-0.42 1.5 0.74 1.92 1.44z"
    />
	<path
        fill="#FFFFFF"
        d="m148.48 280.41c1.234 0.046 0.687 1.873 1.921 1.92 5.656-0.584 11.267-1.213 17.76-0.96 0.59-0.536 0.985-0.418 0.96 0.479-3.095 0.197-6.315 0.182-10.08 0.48-4.312 0.342-9.98 2.767-12-0.96 0.82 0.02 1.25-0.35 1.44-0.96z"
    />
	<path
        fill="#FFFFFF"
        d="m136.96 280.89c0.842 1.254 3.347 1.132 4.8 0.48 0.337 1.661-1.683 1.722-2.399 0.96-1.141 0.3 0.074 2.954-0.96 3.359-1.85-1.15 0.219-1.415 0-3.359-1.702-0.102-0.948 2.252-2.881 1.92-1.59-1.73 0.9-2.29 1.44-3.36z"
    />
	<path
        fill="#FFFFFF"
        d="m169.6 281.85c0.275-0.58 3.105-0.979 2.881-0.479h3.84c1.641-0.385 2.74 0.715 0.479 0.479h-7.2z"
    />
	<path
        fill="#FFFFFF"
        d="m223.36 286.17c-16.501-1.076-27.896-2.927-43.2-3.84 2.852-0.885 8.035-0.228 12.96 0 8.721 0.401 17.764 2.646 24.479 2.88 1.99 0.07 4.83-2.19 5.76 0.96z"
    />
	<path
        fill="#FFFFFF"
        d="m134.08 283.29c-0.758 4.173-6.12 5.86-9.6 5.76 2.461-2.339 6.356-3.244 8.16-6.24 0.78-0.13 0.83 0.46 1.44 0.48z"
    />
	<path
        fill="#FFFFFF"
        d="m121.6 284.25c1.221 0.059 1.861 0.698 1.92 1.92-1.5 0.23-2.14-0.41-1.92-1.92z"
    />
	<path
        fill="#FFFFFF"
        d="m120.64 286.65c1.047-0.087 1.527 0.394 1.44 1.44-1.354-0.074-1.203 1.357-1.92 1.92-2.15-0.72 0.79-1.64 0.48-3.36z"
    />
	<path
        fill="#FFFFFF"
        d="m124.48 290.49c-1.014-0.847-1.418-1.082-2.88-0.48 0.02-1.44 3.41-1.39 2.88 0.48z"
    />
	<path
        fill="#FFFFFF"
        d="m128.32 289.53c-0.438 0.841-0.893 1.667-2.4 1.439 0.72-0.56 1.18-1.38 2.4-1.44z"
    />
	<path
        fill="#FFFFFF"
        d="m118.24 290.49c1.414 0.682 3.028 1.449 4.8 0.479-0.008 1.433-1.248 1.632-1.44 2.88-1.46-0.78-3-1.47-3.36-3.36z"
    />
	<path
        fill="#FFFFFF"
        d="m124.96 291.45h0.96c0.225 1.024-0.686 0.914-1.44 0.96 0.09-0.39 0.48-0.47 0.48-0.96z"
    />
	<path
        fill="#FFFFFF"
        d="m123.52 292.41c1.104 1.136-0.41 3.727-2.4 3.359 0.66-1.26 2.02-1.82 2.4-3.36z"
    />
	<path
        fill="#FFFFFF"
        d="m117.76 292.89c1.719 0.294 0.638 3.07-0.96 2.88-0.23-1.51 0.69-1.87 0.96-2.88z"
    />
	<path
        fill="#FFFFFF"
        d="m119.68 294.33h0.96v0.96h-0.96v-0.96z"
    />
	<path
        fill="#FFFFFF"
        d="m126.4 295.29c-0.282 0.999-1.009 1.551-1.44 2.399-1-0.42 0.16-2.68 1.44-2.4z"
    />
	<path
        fill="#FFFFFF"
        d="m116.32 296.25c1.363 0.058 0.923 2.047-0.48 1.92-0.2-1 0.33-1.27 0.48-1.92z"
    />
	<path
        fill="#FFFFFF"
        d="m118.72 296.73c0.03-0.033-0.033-0.474 0-0.479 2.31-0.4-2.28 3.09 0 0.48z"
    />
	<path
        fill="#FFFFFF"
        d="m120.16 296.25c0.386 0.254 0.779 0.501 1.44 0.479-0.269 0.998-0.749 1.018-1.44 0.48v-0.96z"
    />
	<path
        d="m138.4 50.493c-2.523 1.883 1.773 2.196 0.479 3.84-3.017 0.343-4.332 2.388-4.32 5.76 3.223 2.698 8.611 3.229 11.521 6.24 6.494-1.498 13.763-0.223 16.32 4.8 7.445-8.464 18.391 2.589 26.399 6.72 2.328 1.201 4.786 1.927 5.76 3.84 4.598 0.831 8.835 3.718 13.44 5.76 4.25 1.884 9.024 4.674 13.44 5.28 0.551 0.075 2.346 0.535 2.88 0.48 1.166-0.121 1.184-1.053 2.399-0.96 6.643 0.505 13.933 3.94 12.96 11.52 0.205 1.875 2.842 1.318 2.4 3.84-2.029 1.491-3.432 3.609-6.24 4.32 2.499 1.821 5.175 3.465 5.76 7.2 0.139 1.738-1.343 1.856-1.439 3.36-0.323 2.419 2.087 2.39 0.96 4.32-1.61 2.87-3.757 5.204-8.64 4.8-2.539 1.286-4.36 3.351-6.24 5.28-3.323 3.409-6.012 7.126-9.601 10.56-4.33 4.144-8.479 9.311-12.96 13.92-14.47 4.57-14.431 23.648-26.399 30.72-3.225-1.595-4.646-1.107-8.16 0-1.461-0.299-2.454-1.066-2.4-2.88-1.098 0.306-2.896 0.952-3.84 0-1.099 3.381-0.996 7.964-3.36 10.08 4.109 1.171 6.476 4.084 7.2 8.64 0.619 0.661 2.085 0.476 3.36 0.48 2.143 2.337 6.283 2.677 7.68 5.76 9.479 4.601 16.681 11.479 25.44 16.8 0.021 1.578 2.052 1.148 1.92 2.88 5.139 2.606 8.76 6.585 12.96 10.08 3.505 2.917 8.116 6.988 12.96 7.681 0.543 0.077 0.223 0.896 0.48 0.96 3.559 0.887 7.924 0.16 10.079 2.88 1.614 4.626 4.797 7.684 6.721 12-0.772 4.384-1.882 9.725-6.24 11.04-1.917 0.578-2.712-0.843-4.8 0-0.51 0.199-1.115 2.632-0.48 2.399-3.264-0.332-4.89 4.557-7.2 6.721-4.226-0.387-6.644 1.035-9.119 2.399-4.402 0.283-7.921-0.32-11.521-0.479-3.573-0.159-6.892 0.318-10.08 0.479-0.867 0.044-2.552 0.103-3.359 0-1.611-0.204-3.226-1.646-4.801-1.92-1.343-0.233-3.1 0.229-4.8 0-2.27-0.305-4.476-1.573-7.2-0.479-2.41-2.201-6.93-1.132-10.08-1.44 0.1 0.01-0.711 0.768-0.96 0.479-0.964-1.112-0.591-0.215-2.399 0-2.522 0.301-2.68-0.233-6.24 0.48-1.147 0.23-2.666 0.876-3.84 0.96-4.697 0.338-9.041-1.515-12.96 0-1.251 0.483-2.713 2.889-4.8 4.32-2.736 1.876-5.604 2.64-7.2 5.76 0.29 1.149 0.689 2.189 0.479 3.84-2.001 4.8-9.652 5.742-14.88 3.36-3.812-5.007-3.69-8.05-0.48-15.36 1.163-2.647 2.713-5.917 3.84-7.2 0.963-1.096 4.287-2.654 6.24-4.319 7.903-6.738 12.966-18.002 24-14.4 0.817 0.302 0.789 1.45 1.439 1.92 6.816 3.195 17.104 4.964 27.36 5.28 14.525 0.447 30.089 2.088 39.359-4.32-1.123-3.334-3.768-6.221-6.239-8.64-7.712-7.548-17.736-13.295-26.88-20.16-4.551-3.416-8.822-7.38-13.921-10.08-5.478-2.901-12.927-4.305-16.8-9.12-5.819 1.603-11.501-0.351-18.24-0.96-3.695-2.389-5.855-5.38-10.08-6.24-7.713-1.57-14.284 5.439-20.64 7.681-1.341-0.739-3.723-0.438-3.84-2.4-2.562 0.941-4.477-0.297-6.72-0.96-3.064 0.456-3.674 3.366-5.28 5.28-12.459 4.021-20.729 12.23-30.24 19.2-6.915 6.698-14.336 11.998-21.6 18.72-2.147 1.986-3.986 6.21-8.16 5.28 2.306-4.798 6.395-8.517 10.08-12 4.827-4.563 10.839-7.201 14.4-12.96 5.962-3.958 10.682-9.158 17.28-12.48 1.629-1.386-0.328-1.135 0.48-2.4 6.6-0.279 8.78-4.979 14.88-5.76 1.968-5.712 8.471-6.889 12-11.04-0.163-1.276-1.198-1.682-1.44-2.88 5.414 0.774 0.841 6.58 1.44 9.12 6.246 0.083 5.332-5.748 3.84-10.08-3.027-4.288-10.334-1.436-14.88-0.48-0.63 0.17-0.755 0.846-1.44 0.961-12.679 14.48-28.907 25.601-44.16 37.92-0.414 0.334 0.219 0.773-0.48 0.96-2.72 0.726-4.051 4.351-6.24 6.239-0.482 0.417-1.019 0.018-1.44 0.48-0.656 0.722-2.186 1.781-3.84 2.4-3.255 3.944-6.993 7.406-14.88 6.72-1.906 0.71-2.059 2.726-2.4 3.84-2.846 2.9-2.566 8.744 0.96 9.12 3.411 0.363 3.489-4.872 6.72-5.76 5.153-0.613 8.948 2.125 14.4 0.96 4.477-0.957 9.228-3.362 13.92-5.28 9.369-3.829 18.084-7.109 26.4-12 4.012-2.359 8.369-5.029 10.08-8.64 2.131-0.75 3.634-2.127 5.28-3.36 5.989-0.96 10.576 0.021 12.48 5.28 3.799-0.028 6.145 2.844 9.6 3.84 2.406 0.693 5.287-0.184 7.68 0.479 0.934 0.259 4.394 2.102 5.28 3.36 0.934 1.326 0.629 3.547 1.44 5.76 1.641 4.48 4.987 5.998 2.399 11.04-2.104 1.576-5.312 2.049-9.12 1.92-1.471-1.409-4.125-1.636-4.8-3.84-4.186-0.846-6.935-3.232-11.04-5.28-2.179-1.086-3.605-2.032-5.28-1.92-2.34 0.157-2.905 1.785-4.8 2.88-1.536 0.888-3.605 0.355-4.32 2.4-20.73 5.258-40.698 14.386-58.08 24.48-1.102 0.657-1.543 1.977-2.4 2.88-9.802 3.323-14.211-3.843-15.84-11.521-2.962-1.54-4.182-2.987-6.24-6.24-1.151-1.818-2.328-2.1-1.92-5.279 0.207-1.617 1.893-3.628 2.88-6.24 1.489-3.939 1.46-5.77 4.8-7.2 8.827 2.673 13.245-3.67 19.68-8.64 2.414-1.864 5.296-3.804 6.72-6.72 1.221-0.539 2.341-1.18 3.36-1.921 8.515-8.498 19.124-15.044 28.32-23.52 4.335-3.995 8.542-7.308 11.04-12.96 1.517-0.243 2.107-1.413 3.84-1.44-1.163-1.717-0.15-5.609-2.88-5.76 1.172-3.086 0.333-7.874 2.4-11.04-0.907-0.854-1.938-1.582-3.84-1.439-2.15 0.569-0.028 5.411-1.44 6.72-1.46 0.688-3.274 0.49-3.84-0.96-0.91 1.33-1.218 3.262-2.88 3.84-2.666 0.105-2.269-2.852-4.32-3.36-0.642 2.558-0.897 5.503-4.32 5.28-1.797 0.037-1.638-1.883-1.92-3.36-1.255-1.305-3.197-1.923-4.32-3.359-4.955-17.682-21.856-29.825-34.08-42.72-1.772-1.87-3.522-3.811-5.28-5.76-4.073-4.515-7.692-9.654-15.36-9.6-3.668-3.155-4.169-9.665-2.88-15.36 2.089-1.591 4.161-3.199 6.24-4.8 0.096-3.584 2.216-5.144 3.36-7.68 3.71-1.027 6.035-4.128 9.12-4.8 2.078-0.453 4.246 0.276 6.24 0 3.22-0.446 6.966-2.129 9.6-3.36 5.092-2.38 9.743-6.504 14.88-9.6 4.536-2.733 8.519-5.047 12.96-8.16 1.752-1.228 2.117-0.701 4.32-1.92 1.026-0.568 1.636-1.637 2.4-1.92 3.895-1.441 8.067 0.274 12.48-0.48 4.693-0.803 8.566-8.365 15.36-5.28 4.286-3.074 9.181-5.539 14.88-7.2 0.04-2.601-1.129-3.991-0.96-6.72-2.157-1.843-4.473-3.527-4.32-7.68-8.049-4.918-11.009-15.369-7.2-25.44 1.471-3.889 5.392-10.469 8.16-12.96 4.337-3.902 11.22-5.285 17.28-4.8 7.556 0.604 18.005 7.175 20.16 14.88 0.404 1.444 0.757 5.623 0.96 8.64 0.239 3.534-0.166 6.086-1.439 8.64-0.565 2.056 0.035 1.957 0.479 3.84-1.171 4.109-3.405 7.154-5.76 10.08 0.672 1.267 0.887 5.488 0 6.72-1.5 0.222-1.53-1.023-1.44-2.397zm3.84-25.44c-1.294-0.946-2.296-2.184-2.88-3.84 0.836-0.036 1.492 0.107 1.92 0.48 1.891-7.226-3.589-12.734-8.641-15.36-6.699-3.483-17.752-4.437-21.6 2.4-0.513 1.793 1.192 1.368 0.96 2.88-2.366 0.864 1.279 5.332-1.44 6.24-1.926-2.281 0.509-6.174-1.44-8.64-3.097 3.625-6.527 9.47-6.24 14.88 0.804-0.82 2.197-3.531 3.36-2.4-0.453 1.466-2.335 1.504-2.4 3.36 0.696 0.904 0.706 2.494 1.92 2.88 3.684-0.316 5.585-2.416 8.64-3.36 0.08-2 0.166-4.006-0.96-4.8-1.485 0.594-2.644 1.528-3.84 0 0.74 1.449-2.484 1.263-2.4 0.48 0.067-1.881 2.152-1.402 3.36-0.96 0.755-0.365 0.717-1.522 1.92-1.44 1.711 1.575 4.268 2.192 4.32 5.28 0.063 3.741-3.535 4.362-5.76 6.72-2.43 0.427-3.575-0.157-6.72 0-0.367-1.393-0.759-2.761-1.92-3.36 0.265 4.348 1.792 8.674 5.28 11.04 0.207-1.553-0.632-4.152 0.96-4.32 2.951 5.228 1.434 17.42 9.6 15.84 1.5 0.147-1.22-1.387 0.479-1.44 0.65 0.47 0.622 1.618 1.44 1.92 5.821-0.304 14.102 6.936 15.84-0.48-0.844-0.276-2.82 0.58-2.88-0.48-0.357-1.478 1.317-0.922 0.96-2.4-2.822 0.242-8.395 0.427-10.56-1.44 0.29-2.305-1.077-2.952-0.96-3.84-1.783 1.719 0.849 2.034-0.96 3.36-1.75-0.17-2.992-0.848-4.32-1.44-0.522-2.518-0.574-5.505-1.92-7.2 2.999 0.439 3.938-1.183 6.24-1.44 0.533-1.507 0.225-1.269-0.48-2.4 0.611-0.668 2.351-0.208 2.4-1.44-3.229 0.509-3.473-1.967-5.28-2.88-0.331-1.93 0.459-2.74 0.479-4.32 2.071-0.366 2.87-2.828 4.8-2.88 3.532-0.096 5.557 3.52 4.8 7.2-1.431-0.01-0.616-2.264-1.44-2.88h-2.4c-0.858 1.208 1.231 2.677 1.92 3.84 0.141-1.12 1.299-1.12 1.439 0-0.905 2.294-4.339 2.061-5.28 4.32 1.888 0.219 3.708-2.861 4.8-0.479-2.729 0.951-2.871 4.489-6.72 4.32-0.279 1.321-1.195 2.005-1.44 3.36 1.878-0.758 0.994 1.246 1.92 1.44-0.24-2.16 2.367-1.473 3.36-2.4 0.02 0.811 0.188 0.843 0.96 0.96 2.12 0.321 5.963 0.363 8.64 0.48 2.214 0.097 5.15 1.751 3.84-0.96-0.379 1.499-5.307 0.957-5.28-0.96 0.27-0.691 0.749-1.171 1.44-1.44 0.685 0.115 0.81 0.791 1.439 0.96 0.125-1.475 1.042-2.159 1.44-3.36-1.914-1.606-1.635-5.406-2.88-7.68 1.037-1.203 1.514-2.966 2.88-3.84 2.49-0.396 4.33 2.368 5.28 1.919zm-19.2 4.32c0.908 0.108 1.059-0.541 1.92-0.48-0.261-1.499-1.144-2.376-2.4-2.88-0.28 1.558 0.33 2.233 0.48 3.36zm18.72-1.44c-1.999 0.561-4.438 0.681-5.28 2.4 1.099 0.502 2.896 0.305 3.841 0.96-0.211-2.149 3.134-3.241 1.439-5.28v1.92zm-2.88 5.76c1.4 0.706 1.4-2.146 0-1.44v1.44zm-0.48 1.92c-0.307 1.746 0.993 1.886 2.399 1.92v-1.92c-0.63-0.616-1.77-0.616-2.4 0zm-14.88 6.24c4.54-1.02 4.952 2.336 6.72 0 0.218 2.152 2.27 1.48 2.88 0-3.47-0.538-7.6-1.311-9.6 0zm4.32 3.36c0.069-0.567 0.854-1.088 0-1.44-0.07 0.567-0.85 1.088 0 1.44zm5.28-0.96c-0.125 0.747-1.053 0.333-1.44 0-0.81 1.977 3.55 0.683 1.44 0zm-12 6.24c-3.38-1.16-2.8 1.64 0 0zm-4.32 3.84c4.667 0.66 8.643 0.646 10.561-0.96-1.42-2.385-9.33-1.364-10.56 0.96zm0 3.36c3.083 0.396 0.501 3.241 0 4.32 2.653-0.093 3.798 1.322 6.72 0.96-0.533-1.507-0.225-1.268 0.48-2.4-2.335-0.065-5.392 0.591-5.28-1.92 2.821 0.331 3.099 0.309 5.76 0.48-0.063-1.184-0.073-2.313 0.48-2.88-3.37 1.06-6.67-0.307-8.16 1.44zm8.16 0.96c0.989-0.291 3.335 0.774 2.88-0.96-0.406-0.713-1.545-0.695-2.4-0.96 0.04 0.836-0.1 1.493-0.48 1.92zm-6.24 23.52c-7.179-0.501-12.518-2.843-13.44-9.6-3.553 0.218 0.653 5.541-1.92 6.24 6.122 1.239 8.169 6.551 15.84 6.24 1.174 4.266 0.088 5.308 0 10.08-3.135-0.337-8.399 2.973-12 0 4.688-1.025 6.958-0.08 9.6-1.92-2.876-0.523-7.745 0.378-10.56 1.44 0.502 1.098 0.305 2.895 0.96 3.84 4.84 0.361 8.109-0.85 11.04-2.4 1.464 3.1 0.363 8.504 0.96 11.04-0.979-0.301-0.135-2.425-1.92-1.92-2.65 1.74-6.43 5.945-12 6.72-8.665 1.206-18.665-3.386-17.76-12-1.484 4.257 0.774 9.514 3.84 12-1.609-0.329-1.754 0.806-1.92 1.92 1.4 1.259 1.807-1.386 3.84-0.96 3.364 2.442 9.624 2.443 13.44 1.92-1.473 1.727-2.8 3.6-5.28 4.32-0.58-0.102-0.295-0.533 0-0.96-1.602-0.001-1.639 1.562-3.36 1.44-0.144 0.943 0.648 0.952 0.96 1.44-5.922 2.593-11.685-4.081-13.44-10.08-0.971 10.702 7.083 14.587 14.88 12.48-2.666 2.746-2.737 7.83-6.72 8.16-3.621 0.3-5.646-3.644-7.68-6.72 1.043 4.557 3.049 8.151 7.68 9.12 1.827-0.733 2.873-2.247 4.8-2.88-0.266 4.054-2.806 5.834-5.28 7.68-2.648-1.031-4.734-2.625-6.24-4.8 0.872 3.608 3.018 5.942 6.72 6.72 0.524-0.482 2.356-2.062 2.88-0.96-1.321 1.879-1.285 5.115-3.84 5.76-2.385-0.346-2.679-5.306-4.32-4.8 1.605 2.869 3.029 7.958 6.72 7.2 3.188-3.215 2.446-7.258 3.36-11.04 3.018-12.49 9.083-22.467 20.16-27.84 1.946 2.673-1.096 5.103-0.96 7.2-1.624-0.136-0.51-3.01-3.36-1.92 0.955 2.243 0.228 4.021 0.96 5.76 2.703-0.717 6.679-0.571 10.08-0.48 1.39 0.037 3.979 1.758 4.32-0.48-2.982-1.988-8.231-0.827-11.52-1.44 1.136-2.95 4.507-2.426 7.2-1.44-0.509-2.909 1.938-2.862 2.88-4.32-1.804-1.662-2.32 0.873-3.84 0.96 1.148-1.251-0.679-5.479 1.92-5.28 1.059 3.581 5.694 3.585 6.72 7.2 1.288-0.819 4.582 2.584 3.359 4.32 1.113-0.153 1.844 0.077 2.4 0.48v1.92c3.772 0.708 4.166 4.794 4.8 8.64 3.05 1.249 1.348 4.901 1.92 7.2 0.292 1.169 1.529 2.3 1.92 3.36 0.991 2.687 1.172 5.93 3.36 7.68 1.976-0.755 4.736-3.25 3.84-5.28-0.726 1.194-1.646 2.194-3.359 2.4-0.965-1.436-3.071-3.748-1.92-5.76 1.037 0.402 1.637 1.243 3.359 0.96 4.152-0.711 6.771-7.316 6.24-8.64-0.93 1.63-0.988 4.131-3.36 4.32 0.762-0.717 0.702-2.736-0.96-2.4 0.08 1.36 0.88 2 0.96 3.36-2.064 2.024-4.158 0.741-6.239 1.44 0.433-2.013-2.951-3.986-2.4-7.68 6.189 9.35 13.76-3.567 12.479-10.08-0.694 5.37-4.138 11.605-8.64 11.04-3.407-0.428-4.535-5.359-6.72-8.16 2.771 0.857 4.535-0.086 7.2 0.48-0.007 0.954-1.31 0.61-0.96 1.92 2.126 0.434 1.729 3.391 4.319 3.36-0.033-2.686-2.51-2.93-2.88-5.28 3.885-2.568 10.401-6.903 7.2-13.44-0.152 1.928-0.335 3.825-1.44 4.8-1.174-0.426-0.52-2.68-2.399-2.4-1.455 2.309 1.719 1.854 2.399 3.36-2.076 3.043-6.002 4.238-9.6 5.76-3.646-1.955-7.918-3.282-9.12-7.68 3.283 0.208 4.187 1.47 6.72 0.48 0.354-3.352-2.627-1.828-4.319-2.4-5.404-1.828-10.836-5.333-14.4-7.2 0.307-1.791-2.264-3.457 0-4.32 1.992 1.565 3.539 1.234 4.8 2.88-0.648-0.151-0.916-0.684-1.92-0.48 0.099 1.525 3.332 2.396 3.84 1.92-0.426-0.142-2.102-1.299-0.96-1.44 2.7 1.3 4.69 3.31 9.12 2.88 0.291-3.426-4.133-2.581-6.24-3.36-2.445-0.905-4.401-2.348-5.76-3.84-1.902-0.036-4.521-1.854-3.359-3.36 11.729 7.933 32.447-6.001 22.079-15.36 1.695 1.345 2.115 3.965 1.921 7.2-2.881 3.04-5.343 6.498-10.561 7.2-0.669 0.611-0.209 2.351-1.439 2.4-2.48-4.298-10.008 0.463-12.48-4.32-1.125-2.177 0.071-4.263 0-7.68 2.103-1.577 5.864-1.496 7.68-3.36 0.8 0.954-0.043 0.61 0 1.92 2.231-1.025 6.323 2.404 7.681-0.96-2.014 0.253-2.682-0.839-4.32-0.96-0.075 0.565 0.083 1.362-0.48 1.44 0.77-1.889-2.072-0.167-1.92-1.44 0.146-1.12 1.025-2.068-0.479-2.4-2.182 1.456-6.86 2.892-8.64 1.92 0.416-2.945 0.587-6.133 2.4-7.68 2.586-1.723 6.55-1.61 10.561-1.92 2.812-0.217 6.745-2.077 8.159 0-1.147 0.292-3.482-0.603-3.84 0.48 0.427 1.013 2.047 0.833 1.92 2.4-0.372 0.107-0.946 0.013-0.96 0.48 2.988 5.466-2.236 9.531-5.279 12-1.664 0.096-3.121 0.4-2.881 2.4 7.628-1.124 11.237-6.489 10.08-13.44 0.958 0.482 0.758 2.123 2.4 1.92 1.702-1.018 3.008-2.432 4.8-3.36 0.084 1.988 0.075 4.432 0.96 6.72-1.522-0.558-1.183-2.978-2.88-3.36 0.2 2.521 2.043 3.397 2.88 5.28 4.393-1.543 1.808-7.689 5.28-10.56-0.484-0.956-0.83-2.05-1.92-2.4-0.529 1.871-2.211 2.589-3.36 3.84-2.457-1.911-5.64 2.419-7.2 0 1.952-0.051 2.783-0.95 4.801-1.92 1.128 0.988 3.688 0.497 3.84-0.96-2.039 0.727-6.326 0.927-7.2-0.96 2.417 0.386 4.885 0.763 7.2 0-3.219-4.13-13.079 1.569-18.721-0.48 1.202-0.719 1.099-2.742 2.4-3.36-1.809-3.723-8.65-4.466-12-3.84-0.706-1.826 2.146-0.094 1.44-1.92-0.123-0.997-2.109-0.131-2.4-0.96-0.896 0.911 0.285 2.798-0.48 3.84h-5.76c-4.768-4.318-13.88-0.569-14.4 5.28 3.567-1.715 5.153-5.655 10.56-5.28-0.153 1.113 0.077 1.843 0.48 2.4 2.223 0.303 1.468-2.373 3.84-1.92 0.536 3.097-3.437 1.684-4.32 3.36 2.277-0.518 2.294 1.226 3.36 1.92 3.174 0.293 3.889 0.125 7.2 0v-2.88c1.88-0.2 3.184-0.976 3.359-2.88 2.76 0.927 7.549 2.363 6.72 5.28-0.994-2.2-6.254-3.317-7.199-1.44 1.86 0.859 5.302 0.138 5.76 2.4-2.468 0.732-5.337 1.063-8.64 0.96-0.671 1.379 1.308 2.438 0 2.88-0.978-0.463-1.037-1.843-0.96-3.36h-5.28c-0.525 2.194-1.746 3.694-2.4 5.76 1.163 0.438 1.271 1.929 1.44 3.36-2.44-2.069-0.45-0.768-0.48 1.923zm-14.88 34.557c-0.826-0.026-1.23 0.369-1.44 0.96 0.83 0.03 1.23-0.37 1.44-0.96zm-2.4-47.517c1.757-0.803 3.09-2.03 4.32-3.36-2.68-0.12-3.23 1.883-4.32 3.36zm41.76 0.96c1.098-2.873-4.129-3.95-3.36-3.36 1.54 0.706 1.5 2.981 3.36 3.36zm-29.28-1.92c3.177-1.418-5.284-2.206-2.88 0.48 0.937-0.503 1.917-0.963 2.88-1.44v0.96zm-22.078 2.88c1.722 0.438 3.534-0.474 5.28-0.48 2.847-0.01 7.158 1.356 8.64 1.44 1.361 0.077 2.542-0.717 3.84-0.48 2.883 0.526 8.15 5.093 9.12 0-11.027-1.296-18.631-1.375-28.32-1.92-0.744 1.706 1.633 0.289 1.442 1.44zm-6.719 1.92c2.931 3.914 2.541 7.223 2.88 12.48 1.515 0.235 1.695-0.865 3.36-0.48-0.182-2.102 1.372-2.468 1.44-4.32-1.338-0.129-1.771-3.632-0.96-4.32 2.021-0.74 0.076 2.484 1.44 2.4 1.332-0.718-0.833-1.963 0.48-2.4 1.296 0.944 2.563 1.917 3.36 3.36 0.886-1.193 1.05-3.109 2.4-3.84-0.573 2.846-1.229 5.975 0.48 8.64 1.073 1.672 3.906 2.27 6.24 3.84 1.609 1.082 2.492 2.618 3.84 2.88 2.943 0.573 6.102-1.114 8.64-0.96-0.285-0.994 0.594-3.153-0.479-3.36-0.075 0.565 0.082 1.363-0.48 1.44-1.954-0.251-3.771 0.706-5.76 0.48-3.712-0.422-11.295-4.806-12-8.16-0.642-3.051 0.636-5.255 2.88-8.16-1.693-0.928-2.146 0.225-3.84 0.48 0.004-1.674-4.418-2.151-4.8-0.48 0.844 1.917 4.048 0.146 4.32 0.48-1.235 1.156-1.763 1.59-1.92 2.88-1.358-1.277-4.434-2.044-6.72-0.96-0.153-2.073 3.33-0.51 3.36-2.4-1.919-2.16-6.409-0.513-8.157 0.48zm-10.561-0.48c-7.435 5.403-15.235 10.346-23.52 15.36-9.11 5.513-18.987 12.196-31.68 13.44-1.452-1.919-4.174-2.423-5.76-0.96-0.328 2.568 1.74 2.74 1.92 4.8 1.934-0.487 2.743-0.334 3.36 1.44-0.262 1.978-1.671 2.809-2.4 4.32 1.369 0.871 2.129 2.351 4.8 1.92 0.149-1.909-1.109-2.411-0.96-4.32 1.599-0.127 3.297-1.742 4.8-0.48 0.963-1.815 3.228-2.414 4.8-3.36 5.4-3.25 11.225-5.586 16.8-8.64 7.08-3.878 13.36-9.842 21.6-12 0.183-2.808 3.628-3.964 7.2-3.84 1.666-2.905 3.516-2.967 2.88-7.68-1.279 0.003-2.56 0.003-3.84 0.003zm122.88 15.36c-9.674-4.584-18.013-10.765-27.841-15.36-0.66-0.021-1.054 0.226-1.439 0.48 0.396 1.228 0.477 4.043-1.92 4.8 2.455 1.93 6.736 4.744 10.08 2.88 1.906 1.467 4.198 2.16 5.76 3.36 0.593 0.456 0.865 1.543 1.44 1.92 4.974 3.257 12.725 5.562 19.199 8.64 3.074 1.461 6.331 3.138 9.12 4.8 2.659 1.584 6.362 4.823 8.641 5.76-0.207-0.085 1.515-0.584 1.92-0.48 2.021 0.517 4.009 1.96 5.279 1.92-0.081 0.718 0.172 1.771-0.479 1.92-2.213 0.116-3.654-3.044-5.28-1.92 3.664 0.649 3.239 6.879 7.68 5.28 1.352-2.552-0.88-4.164-1.439-6.24 0.311-3.529 3.886-3.794 4.8-6.72-0.53-1.229-2.577-0.942-4.32-0.96-0.081 0.718 0.172 1.771-0.479 1.92-12.35-0.967-21.45-7.607-30.72-11.997zm-59.52-10.56c-1.965-0.784-2.703 0.173-4.8-0.48-0.075 0.565 0.082 1.363-0.48 1.44-1.131-1.201-3.885-0.631-4.319 1.44 3.148-0.211 5.693-1.026 8.159-1.92 0.357 1.957-1.547 1.653-0.96 3.84 0.668-0.214 2.125-0.699 2.881-1.44 1.579-1.548 3.552-5.655 1.439-7.2-0.7 1.378-0.65 3.51-1.92 4.32zm-60.958 7.68c4.621 2.834 7.66-6.394 5.76-10.08-0.907 0.107-1.059-0.541-1.92-0.48 0.732 5.531-2.941 6.658-3.84 10.56zm83.998-8.64c1.19 4.111 3.517 11.591 8.16 9.12-1.435-1.326-2.843-4.007-1.92-6.24-1.592-0.92-2.082-0.159-2.88-1.44-0.506-1.808 2.08-2.186 0-2.88-0.79 0.81-2.6 0.595-3.36 1.44zm-52.32 1.44c1.644 0.878 8.315 2.049 8.16 0.96-1.84-1.435-6.74-3.329-8.16-0.96zm33.6 1.44h0.96v-0.96h-0.96v0.96zm-71.037 3.36c2.027-0.108 3.1 0.74 4.8 0.96 0.427-1.493 1.604-2.236 1.92-3.84-1.842 1.97-5.05 1.839-6.72 2.88zm22.079 1.44c-0.659 9.459 5.302 12.298 12.48 13.92v-2.4c-2.02-0.82-4.274-0.761-6.24-1.92-0.392-0.231-0.446-1.492-0.96-1.92-1.486-1.24-2.63-1.259-3.36-2.4-0.891-1.391-1.61-3.129-1.44-5.28 1.007-0.44 2.532 0.124 2.4-2.4-0.905 0.52-1.681 1.137-2.878 2.4zm10.558-1.44v1.44c2.412 0.56 4.353-1.057 5.76 0-0.13-2.127-4.2-2.269-5.76-1.44zm76.32 1.44c-1.824-0.096-1.821-2.019-3.84-1.92 0.27 1.351 3.05 2.684 3.84 1.92zm-83.997 3.84c1.475-0.125 2.158-1.041 3.36-1.44 0.071-1.19 0.089-2.33-0.96-2.4-1.011 1.278-3.512 1.805-2.4 3.84zm49.437-2.4c0.758 1.226 2.286 3.484 3.841 2.4-0.58-1.398-2.19-3.58-3.84-2.4zm11.04 3.36c0.88 3.822 2.532 6.197 3.84 8.64 1.499 2.798 1.969 5.48 0.961 9.12 1.316 1.322 2.562 3.921 2.88 6.24 0.23 1.678-0.506 3.313-0.48 5.28 0.054 4.181 2.144 7.287-0.96 10.08 1.988 3.427 0.503 8.688-1.92 10.56 0.643 6.883-3.289 9.191-5.28 13.44 1.932 3.349 7.102 3.459 7.2 8.64 1.932-1.249 3.103-2.814 5.28-3.84 0.909-0.429 2.348-0.093 3.36-0.48 1.545-0.591 3.091-2.214 4.8-2.879 6.032-2.351 11.653-1.904 13.439-7.2 9.373-3.427 12.72-12.88 21.601-16.8 0.377-2.503 2.537-3.223 3.359-5.28 4.576-1.824 6.637-6.164 8.641-10.56-4.707-8.023-15.191-12.068-23.521-15.84-1.084-0.491-2.635-0.387-3.84-0.96-5.435-2.587-13.109-8.414-19.2-9.12-4.267-0.495-7.618 1.529-11.52 0.96-2.017-0.384-2.23-2.57-4.32-2.88-0.18 2.225-2.69 2.111-4.32 2.883zm-74.878-1.44c-4.792 0.763-9.005-1.255-13.92 0-4.212 1.076-8 5.14-12 7.68-3.91 2.482-8.904 4.381-13.44 6.72-7.875 4.062-15.827 9.507-20.64 15.84 9.012 6.82 16.766 14.926 24.96 22.56 4.587 4.272 8.106 7.734 13.92 10.08 5.33 2.149 10.887 4.11 16.8 7.2 0.449 2.11 3.222 1.898 4.32 3.359 1.498-2.662 1.736-6.584 4.32-8.16 1.97 0.05 3.918 0.079 4.8-0.96-2.205-2.755-4.992-4.928-4.8-10.08-3.89-2.983-5.884-11.124-3.84-15.84-0.147-1.453-1.485-1.715-0.96-3.84-0.405-2.005 0.933-2.267 0.96-3.84-2.626-3.693-0.861-8.053 1.44-11.04-3.225-6.563 3.917-11.007 4.32-18.24-1.852-0.768-4.404-3.542-6.24-1.437zm44.638 3.359c2.78-0.235 6.81 0.35 8.159 0-0.239-1.51 1.047-1.876 0-2.88-2.14 1.535-8.91-1.551-8.16 2.88zm-25.92 0.481c-0.009-0.718 1.783-1.963 0.48-2.4-0.072 0.888-1.625 0.295-1.92 0.96 1.087 3.652 5.247 0.857 7.2 0.48h-1.44c0.33-1.609-0.805-1.754-1.92-1.92-0.84 0.92-0.56 2.955-2.4 2.88zm39.36-0.96c2.129 0.005 5.817 2.294 6.72 0.48-2.36-0.382-5.34-3.243-6.72-0.48zm3.36 13.437c1.272 0.694-1.763 1.072-0.96 2.88 9.277 0.576 15.648-11.671 10.56-16.32 3 7.349-3.74 13.56-9.6 13.44zm-29.76-3.837c-0.437 0.843-1.682 0.878-2.4 1.44-0.046-0.754 0.064-1.664-0.96-1.44-1.164 0.845-0.467 2.087-2.4 2.88 0.814-2.64-2.994-2.001-2.88 0.96 1.227 0.518 1.68-2.066 2.4-0.479-2.608 2.394-4.64 1.037-6.24 0.479-4.338-1.511-8.122-2.841-9.6-7.68-0.352-1.153 0.906-2.349-0.96-3.36 0.309 1.829-0.421 3.571 0 5.28 0.653 2.649 6.909 7.95 9.6 8.64 4.041 1.037 7.065-0.629 9.12-1.44 4.028-1.59 8.516-2.882 9.12-6.24-2.278-0.198-2.348 1.812-4.32 1.92 0.708-2.963-2.591-1.016-0.96-1.44 0.3 0.03 0.57 0.074 0.48 0.483zm17.76-5.76c-0.207-1.073-2.366-0.194-3.36-0.48-0.16 1.157 3.62 2.278 3.36 0.48zm20.64 1.44c-0.082-0.718 0.172-1.771-0.479-1.92-0.62 0.638-0.63 1.786 0.48 1.92zm-59.518-0.48h0.96v-0.96h-0.96v0.96zm44.158-0.48c-1.764-0.897-2.655 0.317-4.319-0.48-0.37 1.683 3.96 1.118 4.32 0.48zm-42.718 4.32c2.455 1.831 5.535 0.178 7.68-0.96-2.341-1.909-6.152-1.546-7.678 0.96zm50.878-0.96c2.123-0.004 3.148 2.978 5.28 1.44-0.81-1.851-4.08-4.043-5.28-1.44zm7.68 12.477c-0.498 0.341-1.205-0.553-1.44-0.48-1.014 0.315-0.192 2.502-1.439 1.92-1.148 0.292-3.483-0.603-3.841 0.48 0.693 0.587 0.729 1.832 1.44 2.4 7.407-0.477 13.646-8.009 9.6-15.36 0.76 4.9-1.12 8.85-4.32 11.04zm-61.438-6.72c-0.062-0.861 0.477-1.123 1.44-0.96-0.054-1.226-0.88-1.68-1.44-2.4-0.449 0.41-1.025 3.06 0 3.36zm47.518-0.48c-0.198-2.522-2.929-2.512-5.28-2.88 0.99 1.74 3.17 2.27 5.28 2.88zm15.84 1.44c1.04-1.097 0.174-2.995-1.44-2.88-0.26 1.7 0.41 2.48 1.44 2.88zm-14.88-0.96c1.487 0.048 2.662-0.217 3.359-0.96-0.857 0.002-2.792-1.292-3.359 0 0.58 0.1 0.3 0.54 0 0.96zm-42.717 4.32c0.918-0.202 2.066-0.174 1.92-1.44-0.826 0.189-1.23-0.712-1.44 0 1.39 0.27-0.737 0.75-0.48 1.44zm-0.48-1.44c-3.49 1.66-1.475 3.08 0 0zm5.277 4.32c3.558 0.207 5.341-1.727 8.64-2.88-0.075-0.565 0.083-1.362-0.48-1.44-2.29 1.87-6.61 1.71-8.16 4.32zm46.56-2.88c-0.491 0.056-0.971-2.071-1.44-0.48 0.69-0.25 1.17 1.87 1.44 0.48zm-7.2 0.48c-1.508 0.329-1.961-0.055-2.399 0.48 0.99 0.49 2.44 1.71 2.4-0.48zm3.84 1.92c-1.092-0.348-2.452-0.428-3.359-0.96-0.31 2.54 2.29 1.77 3.36 0.96zm-52.798 8.64c2.493-0.547 3.798-2.282 5.28-3.84-2.585-1.3-4.842 1.44-5.28 3.84zm35.518-2.4c2.998-0.602 3.937 1.777 6.239 0.48-0.187 0.685-0.576 0.81 0 1.44 0.698-0.263 2.481 0.561 2.4-0.48-1.061-0.7-0.95-2.57-2.4-2.88-0.42 1.83-5.86-2.63-6.24 1.44zm-114.72 2.88c1.479 0.359 0.585-1.655 2.4-0.96 0.666 0.614 0.293 2.266 0.96 2.88 11.098 10.822 23.112 20.728 33.12 32.64 0.525 1.075 0.795 2.405 1.44 3.36 2.027-1.421 5.882-3.278 5.76-5.28-0.659-0.941-2.941-0.259-3.84-0.96-12.479-10.881-24.313-22.407-36-34.08 0.556-0.71 0.556-1.21 0-1.92-3.861-0.89-5.831 2.14-3.84 4.32zm135.84-3.36c1.92 0.801 1.97 3.47 5.28 2.88 0.127-1.872-1.493-1.532-1.92-0.48-1.051-1.578-1.145-1.616-1.439-3.36-1.09-0.13-1.8 0.12-1.92 0.96zm-39.84 3.36c0.903-1.336 3.553-0.926 4.8-1.92 0.23-4.12-5.85 0.84-4.8 1.92zm120.96 1.92c0.963-1.824-0.55-4.729-2.88-4.8-2.12 1.86 1.04 4.02 2.88 4.8zm-82.08-0.48c-0.966-2.073-3.397-2.682-5.279-3.84 0.6 2.45 3.23 2.85 5.28 3.84zm-81.118 50.4c0.086 0.812 2.281-0.224 1.92-1.44-0.894-0.459-1.604 1.438-1.92 0 0.317-2.792-5.307-6.155-4.32-9.6 2.072 1.768 3.625 4.055 6.24 5.279 0.573 1.348 0.78 3.061 2.88 2.88-0.397-1.356 0.676-1.243 0.479-2.399-3.797-1.323-5.471-4.769-7.68-7.68 3.678-1.466 6.841 3.165 7.68 0-1.991-1.049-4.754-1.326-6.72-2.4-0.562 2.479-2.979 3.102-4.8 4.32-0.962 0.064-2.231-3.262-2.4-0.96-1.919 1.49 1.997 1.165 2.4 1.92-2.111 0.769-2.808 2.952-5.28 3.359-0.844-0.115-1.094-0.825-0.96-1.92 1.405 0.432 1.475 0.432 2.88 0v-2.399c-1.999-1.145-2.633 0.939-4.8 0.96 0.396-1.357-0.677-1.244-0.48-2.4-13.096-8.504-22.736-20.464-32.16-32.64-2.082-1.119-4.802-1.598-5.28-4.32-0.698-0.263-2.481 0.561-2.4-0.48 0.151-0.649 0.684-0.917 0.48-1.92-3.032-1.356-5.184 1.255-8.16 1.44 0.24 1.51-1.046 1.876 0 2.88 2.286 0.046 2.445-2.035 4.32-2.4 0.107 1.432-1.772 1.632-0.48 2.88 1.512-0.538 1.087-0.043 2.88 0 0.106 0.374 0.402 0.558 0.96 0.48 12.471 10.89 22.087 24.633 35.52 34.561 1.157 0.196 1.043-0.877 2.4-0.48-2.322 2.804 4.545 2.528 1.44 4.8 0.638 0.482 1.786 0.454 1.92 1.44 0.379 3.94 3.789 4.852 3.84 9.12 1.78-0.02 0.859 2.661 3.36 1.92-1.109-3.536-4.466-7.369-4.32-10.561 3.927 0.394 3.165 5.476 6.72 6.24 1.401-3.258-4.625-5.54-3.36-8.64 3.204 1.92 5.031 5.21 7.201 8.16zm32.16-23.04c3.324-7.556 8.792-12.968 14.88-17.76 2.125-0.525 2.387 0.813 3.84 0.96 0.003-1.604-1.928-1.272-2.4-2.4 0.744-0.536 1-1.561 2.4-1.44 0.403 0.557 0.633 1.287 0.48 2.4 2.652-0.847 7.381-0.602 10.08 0 0.656-0.614 0.656-2.267 0-2.88 0.731-0.869 3.291 0.091 2.88-1.92-2.467 0.686-4.96-1.091-3.359-2.88 0.493 1.586 2.725 1.435 4.319 1.92-0.313-1.926-3.429-1.051-3.359-3.36-1.554-0.593-0.367 1.553-1.92 0.96-6.066-1.322-11.618-0.215-16.32 1.92-0.158 1.122-0.577 1.983-0.96 2.88 3.409 0.019 5.906-5.35 7.68-3.84-1.654 0.017-1.914 2.557-0.96 4.8-9.6 2.72-15.11 12.09-17.278 20.64zm125.28-27.36c-10.747 11.173-21.525 22.314-33.6 32.16-1.131-0.011-1.413 0.826-2.88 0.48 1.676 1.364 2.048 4.032 4.319 4.8 0.899-1.182 1.501-2.659 2.4-3.841 11.299-10.461 22.167-21.352 32.64-32.64-0.89-0.38-1.76-0.8-2.88-0.96zm6.72 1.44c1.648 0.432 2.265 1.896 2.4 3.84 1.723-0.397 2.322 1.083 3.36 0-0.99-1.81-3.44-6.44-5.76-3.84zm-142.08 2.88c0.148-1.132 1.667-0.893 1.44-2.4-0.614-0.026-0.665-0.615-1.44-0.48-0.376 0.34-1.068 2.68 0 2.88zm68.638 0.48c1.511-1.138-0.782-4.015-1.92-2.4 1.3 0.15 0.86 2.02 1.92 2.4zm-21.12 0.48c-0.56-0.081-0.521-0.758-0.48-1.44-1.793 0.513-1.368-1.192-2.88-0.96-0.42 2.05 2.59 3.14 3.36 2.4zm90.72-1.92c-2.046 2.248-3.248 5.003-5.279 7.2-0.311 0.335-1.133 0.113-1.44 0.48-0.997 1.191-1.753 2.913-2.88 4.32-1.12 1.398-2.877 2.52-3.84 3.84-0.378 0.518-0.061 1.458-0.48 1.92-2.312 2.546-5.441 4.646-7.68 6.72-0.866 0.803-1.55 2.011-2.4 2.88-4.922 5.028-10.752 7.508-13.92 13.44-0.836-0.036-1.492 0.107-1.92 0.479-0.148-1.759-2.906-1.677-3.84-2.399-0.385-0.298-0.146-1.676-0.48-1.92-1.617-1.182-4.847-0.787-4.8-3.84-2.49 0.549-3.749 2.33-7.2 1.92-0.073 1.193 0.755 1.485 0.961 2.399 1.646-0.748 5.436-3.4 6.72-1.439-0.943 3.856-4.299 5.302-7.2 7.199-0.357 1.478 1.317 0.923 0.96 2.4 3.703-2.377 5.464-6.696 10.08-8.16-0.858 4.466-5.072 5.545-7.68 9.12-0.792 1.086-0.759 2.853-1.44 3.84-1.05 1.522-5.33 3.853-1.439 3.84-0.374-0.105-0.559-0.401-0.48-0.96 3.063-0.136 2.873-3.526 5.28-4.319v-1.92c3.419-1.541 4.447-5.473 8.16-6.721-0.462 3.842-6.311 6.389-4.32 9.601 3.091-2.189 3.696-6.864 7.68-8.16-0.321 3.82-5.449 7.476-3.359 10.56 1.807-2.993 2.528-7.07 5.279-9.12 0.634-1.201-1.897-1.502-0.479-1.92 1.113 0.153 1.843-0.077 2.399-0.479 0.197-1.156-0.876-1.043-0.479-2.4 1.122 0.148 1.982 0.939 2.88 0 0.929-1.721-0.185-1.759-0.48-3.359 1.004 0.276 1.37 1.189 2.881 0.96 12.205-7.635 18.937-20.743 29.76-29.76 0.254-3.105 2.002-4.718 3.359-6.72-1.46-0.34-1.75 0.49-2.88 0.48zm-136.32 4.8c2.234-0.646 2.752-3.008 4.32-4.32-3.086-0.2-3.259 2.5-4.32 4.32zm13.918 0c-0.78-0.144-1.294 0.648-0.48 0.96 0.937-1.303 2.944-1.536 4.32-2.4-0.923-1.198 0.732-1.973-0.48-2.88-0.83 1.8-4.4 2.08-3.36 4.32zm34.56-2.4c-0.988-0.482-2.435-1.711-2.4 0.48 0.908 0.107 1.06-0.541 1.921-0.48 0 0.27 0.39 0.55 0.48 0zm1.92 1.44c-1.191 0.624-1.992-1.409-2.399 0 0.29 0.28 2.28 1.13 2.4 0zm-11.52 0.96c-0.146 1.266 1.002 1.238 1.92 1.44 0.13-1.98-0.57-1.93-1.92-1.44zm12.48 9.6c0.637 0.87 1.235 2.735 1.92 3.84 0.574 0.926 1.057 2.945 2.4 2.88-4.13-5.951-6.484-13.676-14.4-15.84 2.04 3.92 7.37 5.42 10.08 9.12zm1.44-7.68c0.33-1.291-0.992-0.928-1.44-1.44-0.33 1.29 0.99 0.93 1.44 1.44zm-20.64 0.96c-2.739 3.721-9.086-2.707-10.08 2.4 1.264 0.462 4.112 0.928 5.28 0 0.036 0.836-0.107 1.493-0.48 1.92 3.949-1.405 10.026 1.1 11.52-1.92 0.973 0.832 4.099 0.906 3.36-1.44-3.24-0.81-6.88 0.59-9.6-0.96zm-9.6 11.04c2.047 0.127 4.101 0.26 4.32-1.44 1.395 1.038-1.098 2.985 0.96 3.36 1.039-1.352 4.896-1.14 7.68-1.44 0.202 1.467 2.735 3.833 0.48 4.8-0.312-1.768-2.854-1.306-4.32-1.92-0.235 2.315 4.591-0.431 3.84 2.4-1.501 0.508-2.381 0.173-4.8 0.48-0.217-1.483-2.543-1.152-0.48-2.4-1.131 0.011-1.414-0.827-2.88-0.48-0.262 0.698 0.561 2.481-0.48 2.4-1.809-0.173-3.925-1.845-5.28-0.96 0.556 2.805 6.141 0.58 5.28 4.8 3.017-0.137 5.824-0.064 7.68 0.96-0.493-1.613 1.493-0.747 2.4-0.96 0.756-2.417 2.06-3.548 4.8-2.88 0.107-0.907-0.541-1.059-0.48-1.92-1.558-0.278-2.232 0.327-3.359 0.48-1.199-1.773-0.372-2.588-0.48-5.28 1.875-0.926 3.953 1.165 3.84-1.92h-3.359c-0.553-0.567-0.544-1.697-0.48-2.88-2.205 1.326-5.744-1.53-10.56-0.48 2.48 4.15-4.46 1.97-4.32 5.28zm34.08 6.24c-0.266-0.854-0.247-1.993-0.96-2.4-0.07 1.19-0.09 2.33 0.96 2.4zm-14.88 7.2c0.153-1.112-0.077-1.843-0.48-2.399-5.021 1.373-14.282 1.241-18.72-0.48-0.141 0.979-1.299 0.941-1.44 1.919 1.49 1.482 3.056-0.096 4.32 1.44 0.482-0.638 0.454-1.786 1.44-1.92-0.348 1.468 0.828 1.412 0.48 2.88-1.094-0.134-1.804 0.115-1.92 0.96 2.177 2.094 7.935 0.547 11.04 0.48 0.74-2.75 3.26-2.36 5.28-2.88zm-79.678 2.88c4.267 0.586 4.335-3.025 8.16-2.881 0.357 1.479-1.318 0.923-0.96 2.4 1.8-0.76 3.625-1.496 4.32-3.36-4.04-2.16-9.922-1.17-11.52 3.84zm135.84-2.88c-1.288-2.301-4.323-0.848-5.28 0.961 0.374 0.105 0.558 0.401 0.48 0.96 3.022 0.782 2.131-2.349 4.319-2.4-0.02 0.51 0.23 1.22 0.48 0.48zm-90.717 40.32c1.839-4.166-1.048-8.363-1.92-9.6 3.299 0.328 4.134 4.214 3.36 7.2 2.757 2.498 5.913 1.861 10.08 2.399 1.575 1.625 3.892 2.509 5.76 3.84 1.538 0.083 5.97-1.196 5.76 1.92-0.054 1.227-1.607 0.953-2.88 0.96-1.32 1.561-1.987 3.773-3.84 4.801 0.587-2.659 0.548-5.056-1.44-6.24-0.388 0.892-0.621 1.939-1.44 2.4 0.448 0.512 1.771 0.148 1.44 1.439 0.198 2.759-2.894 2.226-4.32 3.36 0.67 1.379-1.309 2.438 0 2.88 5.281-2.121 11.947-6.751 18.24-4.8-0.437-0.132-1.612-1.788-0.48-1.92 0.877 0.723 1.129 2.07 1.92 2.88 5.538 0.318 7.075 6.873 12.96 5.279-0.201-4.598-4.664-4.936-7.2-7.199 0.196-2.085 1.795-3.708 0-5.28-0.203 1.877-2.674 1.485-4.319 1.92-1.44 1.188 0.094 2.854-1.44 3.36-1.451-0.81-0.123-2.157-0.96-2.881-0.438 0.536-0.893 0.151-2.4 0.48 0.085-1.686-1.622-1.579-1.92-2.88 1.602 0.482 1.574-0.666 1.44-1.92h-1.92c-0.773 0.086 0.781 2.281-1.44 1.92 0.153-1.113-0.077-1.843-0.48-2.4-10.212-0.988-14.272-8.128-16.8-16.8 0.71-0.556 1.21-0.556 1.92 0 1.154-4.606 2.201-9.319 7.2-10.08 0.162-2.391-1.613-4.262-2.88-6.24-2.742-4.282-4.157-8.084-8.16-10.08-4.487 0.324-8.707 0.633-12 0.96-2.335 2.146-2.893 6.067-4.32 9.12 1.044 1.717 4.044 2.806 2.88 5.28 2.524 1.156 4.217 3.143 5.28 5.76-1.131 1.355-0.813 3.088-0.96 6.24-2.2 0.04-2.191 2.289-4.32 2.4 0.141 3.221-2.994 5.493-1.92 11.04 0.958 0.642 2.081 1.119 2.4 2.399 1.683-0.236 3.125-0.715 5.28-0.479-0.651-2.224 0.028-4.282 1.92-3.36-0.245 1.355-1.162 2.039-1.44 3.36 2.321-0.399 4.844-0.597 5.28-2.88-1.54-0.42-0.655 1.59-1.917 1.44zm59.997-36.96c-1.328-2.105-7.358-5.448-10.08-3.84-0.806 0.477-2.336-0.021-2.399 0-3.281 1.088-4.796 4.696-7.68 5.76-1.027 4.579-5.251 5.097-5.28 9.601 1.305 0.734 2.341-0.17 3.84 0.96 1.093 4.347 4.06 6.82 4.8 11.52 0.713-2.586 0.521-4.193 0.96-6.24 1.431 0.01 0.616 2.265 1.44 2.88-2.244 5.276-2.901 12.14-8.641 13.921-0.054 1.226-0.88 1.68-1.439 2.399-1.814 2.186-7.513 0.488-8.64 3.36 0.871 0.729 1.654 1.546 2.88 1.92 1.062-0.691-0.604-1.171 0.479-1.44 5.372-2.181 11.541-5.811 16.8-5.279 0.795-0.578-1.452-2.808 0.48-3.84 1.568 1.156 0.527 2.742 0.479 4.8 2.138-1.006 1.096-7.404 3.841-6.24-1.089 1.951-1.599 4.481-1.921 7.2 1.809 1.231 4.399 1.681 7.681 1.439 6.816-5.121 2.364-13.083-2.4-15.84-1.039-7.6 1.234-11.886 6.24-13.439 0.01-3.79 0.07-7.21-1.44-9.6zm21.6-2.88c0.237 2.003 1.819 2.66 3.359 3.36 1.093-1.149-1.053-1.768-0.479-3.841-1.18-0.06-2.31-0.07-2.88 0.48zm6.72 2.88c1.623 1.566 2.025-0.795 3.36-0.96 0.39 1.66-0.896 2.026 0 2.88 3.391-0.829-0.013-4.333-1.92-4.319-0.15 1.13-1.66 0.9-1.44 2.4zm-113.28 0.96c3.283-0.402 3.361 2.399 6.24 2.4-1.492-2.028-3.548-3.492-6.24-4.32v1.92zm110.88 0.96c0.557 0.403 1.286 0.634 2.399 0.48 0.023-1.464-0.436-2.444-1.439-2.88-0.2 0.92-1.37 0.87-0.96 2.4zm-18.24 2.4c1.896-0.824 4.408-1.031 4.8-3.36-1.16-0.34-4.48 1.27-4.8 3.36zm-52.8 0.96c1.809 0.369 2.294-0.586 3.84-0.48 0.276 0.844-0.58 2.82 0.48 2.88 0.075-0.564-0.083-1.362 0.48-1.439 3.333 0.763 8.178-0.688 12 0.479-0.433-3.332 2.034-2.215 3.359-2.88-0.107-0.907 0.541-1.059 0.48-1.92-4.684-1.042-13.305 0.277-16.32-0.479 0.31 4.09-4.14 0.49-4.32 3.84zm73.44-1.44c1.478-0.357 0.923 1.317 2.4 0.96 0.656-0.613 0.656-2.266 0-2.88-1.56-0.12-2.31 0.57-2.4 1.92zm-105.12 0.48c-0.613-0.026-0.665-0.615-1.44-0.48-0.746 1.18 1.631 1.41 1.44 0.48zm81.598 2.88c0.569-1.19 2.941-0.579 2.399-2.88-1.28 0.19-3.45 1.95-2.4 2.88zm-90.718 2.4c1.565 0.125 2.311-0.57 2.4-1.921-1.564-0.12-2.31 0.57-2.4 1.92zm54.238 0.48c-0.487-2.646-5.152-1.974-6.72-0.479-0.417-0.703-0.719-1.521-1.92-1.44-0.774 3.226-3.561 4.438-6.24 5.76-0.713 2.808-2.186 4.854-2.88 7.681 0.599 1.641 2.241 2.238 4.8 1.92 0.355-2.405-1.769 0.639-1.92-0.96 0.049-3.075 5.232-2.339 6.72-2.4 4.347-0.181 9.775-1.404 12.48-0.48 0.562 0.192 0.66 1.221 1.92 1.921 0.979 0.543 2.902 0.262 1.439 1.92 2.165 0.404 2.397-1.124 3.841-1.44-1.308-2.053-2.381-4.339-2.4-7.68-0.873-1.047-2.967-0.874-3.84-1.92-2.595 3.26-8.237 3.47-12.96 3.359-0.027-1.732-1.197-2.323-1.44-3.84 4.081 0.881 9.122 1.455 12.48-0.479-1.687-0.263-0.771-2.784-0.48-3.841-2.49-0.73-1.32 2.2-2.88 2.4zm-42.717 5.28c2.56 0.32 2.455 3.305 4.32 4.319 0.742-0.697 0.422-2.457 0.48-3.84-3.089-1.871-5.181-4.738-7.2-7.68-0.393 3.56 3.815 4.11 2.4 7.2zm87.837-3.84c0.161-1.762-0.737-2.463-1.92-2.881 0.04 1.56 0.62 2.59 1.92 2.88zm-97.917-0.96c1.815 0.904 2.3 3.14 4.8 3.359-1.064-1.85-2.852-6.63-4.8-3.36zm90.717 5.76c3.232-0.288 3.476-3.564 5.76-4.8-0.953-0.007-0.61-1.31-1.92-0.96-0.58 2.63-3.68 2.72-3.84 5.76zm-101.28-2.4c1.387 0.086 2.645-1.621 0.96-1.92-0.006 0.96-1.309 0.61-0.96 1.92zm4.8-0.96c2.305 1.216 2.854 4.186 5.76 4.8-0.062-2.978-3.113-2.967-3.36-5.76-1.19-0.07-2.329-0.09-2.4 0.96zm90.718 6.24c0.14-2.432 3.119-4.545 2.399-6.24-1.25 1.33-3.96 3.71-2.4 6.24zm-89.278 2.88c0.89-2.77-3.048-4.544-3.36-7.68-0.106-0.374-0.402-0.559-0.96-0.48-1.958 2.78 2.209 6.4 4.32 8.16zm16.321-1.44c-1.379-2.94-3.672-4.968-6.24-6.72-0.419 2.91 3.799 5.1 6.24 6.72zm95.037-4.8c0.145-1.265-0.665-1.575-1.92-1.439-0.14 1.27 1 1.24 1.92 1.44zm-10.56 13.44c4.695-2.665 5.834-8.887 9.601-12.48-0.686-0.114-0.81-0.79-1.44-0.96-2.9 4.29-5.07 9.33-8.16 13.44zm-108.48-7.2c1.19 0.07 2.329 0.09 2.4-0.96-2.216-0.504-2.12-3.32-3.84-4.32-0.891 1.49 1.476 3.13 1.44 5.28zm97.917-0.48c2.491-0.709 3.348-3.053 4.8-4.801-2.38 0.83-3.68 2.73-4.8 4.8zm21.6 0.96c2.438-0.443 2.35-3.411 3.36-5.28-0.661 0.021-1.054-0.227-1.44-0.48 0.42 2.98-1.5 3.62-1.92 5.76zm-107.52-3.36c0.988 0.421 2.155-1.245 0.96-1.44-0.044 0.76-1.225 0.38-0.96 1.44zm4.799 5.76c-1.292-1.588-1.468-4.292-2.88-5.76-1.649 1.55 0.843 4.96 2.88 5.76zm87.838 0c2.554-0.646 2.966-3.435 4.32-5.28-0.613-0.026-0.665-0.615-1.44-0.479-0.25 2.63-2.62 3.14-2.88 5.76zm-47.04-0.48c-1.346-0.254-0.934-2.267-2.4-2.4 0.786 1.588-0.354 2.83-2.4 2.88 0.122 1.639 1.214 2.307 0.96 4.32 2.188 1.41 4.666-0.45 6.24 1.439 0.237 1.518-2.382 0.179-1.92 1.921 1.6 1.949 6.091 1.78 7.68 0 0.511-1.791-1.8-0.761-1.44-2.4 3.791-0.201 6.311-2.037 7.2-6.24-2.629-0.637-3.044-0.099-5.279 0.48-0.625-1.192 1.408-1.992 0-2.4-1.225-0.831-3.343 0.449-6.24 0.48 0.893-1.603-1.726-2.021-1.92-0.96 2.75-0.49 1.2 3.43-0.48 2.88zm-45.597 3.84c-1.228-2.133-1.9-4.82-3.36-6.72-1.812 2.52 1.083 5.46 3.36 6.72zm-8.161-0.96c0.702-1.428-1.05-3.893-2.4-4.8-0.097 2.5 0.802 4 2.4 4.8zm95.038-3.36c0.958 0.482 0.758 2.123 2.4 1.92v-2.88c-1.19-0.07-1.99 0.25-2.4 0.96zm19.68 1.92c0.443-0.903 2.562-2.222 0.48-2.88-0.08 0.78-1.61 2.48-0.48 2.88zm-14.4 1.92c0.006-0.953 1.31-0.61 0.96-1.92-0.614-0.026-0.665-0.615-1.44-0.479 0.26 0.7-0.56 2.48 0.48 2.4zm12.48 1.44c0.196-0.81 2.262-2.157 0.96-2.88-0.53 0.47-2.35 2.07-0.96 2.88zm-111.84 0c0.026-0.826-0.37-1.23-0.96-1.44-0.025 0.83 0.37 1.23 0.96 1.44zm58.558 5.76c-0.995 0.286-3.153-0.593-3.36 0.48 1-0.28 3.16 0.6 3.36-0.48zm18.72 4.32h1.439c-0.075-0.565 0.083-1.362-0.479-1.44-0.04 0.76-1.22 0.38-0.96 1.44zm9.6 3.36c-1.52 1.163 2.603 2.464 0.96 3.841-0.441 0.838-1.5 1.059-2.88 0.96-0.437 2.735-1.791 3.817-0.96 6.72 8.063-1.98 7.794 6.922 13.92 5.28-1.966-1.443-3.99-4.398-4.32-6.721-0.405-2.854 1.597-4.346 1.921-7.199-0.374-0.106-0.559-0.402-0.48-0.96-2.99-0.15-5.87-2.63-8.16-1.92zm-7.68 1.44c-1.614 3.868-2.83 6.524-1.44 11.521 1.505 0.693 3.58 2.175 4.8 0.479-1.639-3.317-2.191-5.608-1.439-9.6 0.354-0.766 2.35 0.109 1.92-1.44-0.22-2.16-2.26-1.09-3.84-0.96zm36.48 24c0.147 1.106-1.387 0.533-1.439 1.44 15.511 10.249 30.521 20.999 42.24 35.04 1.634-0.832 2.814 0.368 5.279 0-0.312-2.073 0.83-2.691 1.44-3.841-2.664-0.226-4.857-3.449-4.32-5.279 1.917 1.283 3.227 3.173 4.8 4.8 0.021-2.699 3.38-2.061 5.28-2.88-20.633-3.207-26.657-21.022-43.68-27.84-2.122-2.999-5.279-4.961-9.12-6.24 0.533-1.507 0.225-1.269-0.48-2.4-1.356-0.087-1.118 1.805-2.399 0.48-0.144-0.944 0.648-0.952 0.96-1.44-5.685-1.369-12.75-5.354-18.24-9.6-1.864 8.587 7.483 8.514 9.12 12-1.954 0.016-3.926-2.449-5.28-1.44 5.89 1.75 9.32 7.59 15.84 7.2zm-84.477 13.44c1.463-0.397 2.444-0.058 2.88-0.48-0.685-0.115-0.81-0.79-1.44-0.96 0.127 2.667-1.863-1.002-1.92 0.48 0.377 0.11 0.561 0.41 0.483 0.96zm-6.721 12c-2.235-1.471-1.968-4.504-1.44-7.681-2.684 0.223-3.759 2.798-5.76 4.32-5.607 4.268-14.715 8.476-23.04 12-4.664 1.975-10.011 4.04-14.4 5.76-2.716 1.064-4.52 1.553-6.24 1.44-0.332 2.001-2.579 1.054-3.84 1.439-1.421 0.436-2.547 1.412-4.32 1.44-4.292 0.068-12.787-4.041-15.36-0.96 0.758 5.98 5.726 7.175 3.36 13.92 0.539 0.102 0.748 0.532 0.96 0.96 3.191 0.521 4.204-2.806 6.24-4.32 0.311-0.23 1.099 0.191 1.44 0 1.25-0.699 2.177-2.16 3.36-2.88 4.174-2.54 8.927-3.721 14.4-5.76 4.118-1.534 8.446-4.057 12-5.76 1.507-0.723 3.342-0.817 4.8-1.44 3.467-1.482 6.272-3.646 9.6-4.8 1.146-0.397 2.595-0.109 3.84-0.48 5.082-1.513 9.117-4.916 14.88-4.8 1.31-1.004-1.698-1.804 0.48-2.399 0.833 3.041 5.325 0.798 6.72 0 1.272 0.647 1.31 2.529 3.36 2.399 0.625-1.191-1.408-1.992 0-2.399 0.661 0.021 1.054-0.227 1.44-0.48 0.847 0.644-0.785 2.778 0.48 3.84 1.757-0.191 0.704-2.85 2.88-1.439 0.892-0.849-0.208-1.401-0.48-2.4 3.331-2.486 5.322 1.198 11.52 0v-2.4c-2.306 0.755-7.558-2.446-8.64 0-0.05-1.738-1.651-3.858-4.32-4.319-1.48 0.92-0.375 4.425-1.44 5.76-2.335-1.216 0.065-4.285 0-6.24-4.095-0.895-3.4 3-4.32 5.28-3.089-1.123 1.144-3.915-1.92-4.8-0.731 1.509-1.867 2.613-2.4 4.319 0.327-2.316-1.403-1.937-2.88-3.359 2.575 0.286 1.745-3.572 4.32-1.92v-3.84c-2.105 1.837-6.338-1.007-7.68 1.92 0.94 0.979 2.834 1.005 2.88 2.88-2.055 2.24-0.831 5.78-0.478 7.2zm28.318 0c1.051-0.999-0.421-1.552 0.48-2.4-1.76-0.46-1.91 2.36-0.48 2.4zm4.32 1.92c0.87-1.876-1.167-3.155-2.88-3.84-1.44 2.05 1.4 3.2 2.88 3.84zm-5.76-0.48c-0.497-0.13-0.74 0.527-1.44 0.48-2.9-0.194-5.878-1.971-8.16-1.92-1.454 0.586 0.339 1.832 0.48 2.399-0.717 0.723-2.737 0.144-2.4 1.92 4.391 0.569 7.718 2.202 10.08 4.8-0.153-1.272 2.689 0.449 1.92-1.439-1.004-1.396-3.592-1.207-3.84-3.36 1.177 1.224 4.702 2.117 6.72 0.96-0.38 4.061 4.672 2.688 5.76 5.28-0.936-2.293-0.805-2.019 0.479-3.84-1.478 0.357-0.922-1.317-2.4-0.96 0.145 1.265-0.665 1.575-1.92 1.439 0.001-0.481-0.389-0.57-0.48-0.96 0.006-0.953 1.31-0.61 0.96-1.92-1.99-0.45-3.36-2.25-5.76-2.88zm-23.998 3.36c0.205-0.916 1.372-0.869 0.96-2.4-0.661 0.021-1.054-0.226-1.44-0.479 0.277 0.85-0.58 2.82 0.48 2.88zm-5.76 0.48c-14.705 4.815-28.803 10.237-41.76 16.801 4.305-1.081 7.332-2.923 10.56-4.32 10.08-4.364 21.41-8.202 31.68-11.521 1.045-0.338 3.955-0.308 3.84-2.399-1.638-1.6-2.637 1.5-4.32 1.44zm147.84 10.08c1.712-0.396 2.755-2.918 2.88-3.84 0.806-5.956-8.008-8.702-9.12-0.479 2.29 1.67 2.37 5.22 6.24 4.32zm-111.36-1.92c0.651-3.042-2.353-1-2.88-1.92 0.151-0.648 0.683-0.917 0.48-1.92-1.055-0.545-1.595-1.605-2.88-1.92 0.468 2.299 1.368 2.792-0.479 2.88 1.7 1.68 3.42 3.04 5.76 2.88zm16.8 3.36c0.776 2.151 4.967 3.249 6.24 0.96-1.423-1.455 0.199-3.937 0.96-4.8-2.69-0.61-6.32 1.13-7.2 3.84zm84-2.88c-1.716 3.253-5.547 3.571-8.64 5.279-1.578 0.872-2.561 1.779-3.84 2.4-3.158 1.532-8.489 0.406-12.96 1.44-0.144-0.944 0.647-0.952 0.96-1.44-16.63 0.386-29.663 0.597-46.08-3.36-1.33-1.184-3.095-3.007-5.28-1.92 0.352 2.943 2.506 6.325 0.96 9.601 12.889-1.734 27.449 0.44 38.88 0.96 3.644 0.165 7.131-0.647 10.561-0.48 2.174 0.106 4.684 1.228 7.199 1.44 7.76 0.654 14.012 1.724 19.681 2.88 1.15-2.699-0.88-5.215-1.44-7.68 0.527-2.421 1.885-5.005 2.88-8.16-0.61-0.66-2.26-0.29-2.88-0.96zm-84.96 5.76c0.08 1.359 0.88 2 0.96 3.36-1.272-1.017-2.561-2.757-4.8-1.44-0.459 0.894 1.438 1.604 0 1.92-1.004-0.276-1.37-1.189-2.88-0.96-0.269 0.691-0.749 1.171-1.44 1.44 0.114 2.126 0.347 4.133 2.4 4.319 1.173-0.906 2.326-1.834 3.84-2.399 0.513 0.447 0.149 1.771 1.44 1.439 4.85-1.742 9.795 1.218 10.08-6.72-2.32-0.52-6.53-1.38-9.6-0.96zm-114.24 10.56c-0.091 1.35-1.566 1.314-1.92 2.4 6.527 0.093 9.269-3.407 13.44-5.76 1.521-0.858 2.875-1.512 4.32-2.4 1.156-0.71 5.11-1.721 2.88-2.399-5.858 2.93-11.142 8.5-18.72 8.16zm104.16-3.84c-1.086 2.594-5.178 2.183-6.72 4.32 2.006 1.44 7.267-0.65 8.64-2.88-0.42-0.7-0.38-1.86-1.92-1.44zm17.28 1.44c2.02 3.727 7.688 1.302 12 0.96 3.765-0.299 6.985-0.283 10.08-0.48 0.025-0.897-0.37-1.016-0.96-0.479-6.493-0.253-12.104 0.376-17.76 0.96-1.234-0.047-0.687-1.874-1.921-1.92-0.19 0.61-0.62 0.98-1.44 0.96zm-11.52 2.88c1.933 0.332 1.179-2.021 2.881-1.92 0.219 1.944-1.85 2.209 0 3.359 1.034-0.405-0.181-3.06 0.96-3.359 0.717 0.762 2.736 0.701 2.399-0.96-1.453 0.651-3.958 0.773-4.8-0.48-0.54 1.07-3.03 1.63-1.44 3.36zm41.28-2.4c2.261 0.235 1.161-0.864-0.479-0.479h-3.84c0.225-0.5-2.605-0.101-2.881 0.479h7.2zm40.8 3.36c-6.716-0.233-15.759-2.479-24.479-2.88-4.925-0.228-10.108-0.885-12.96 0 15.304 0.913 26.699 2.764 43.2 3.84-0.93-3.15-3.77-0.89-5.76-0.96zm-84.96-2.4c-1.804 2.996-5.698 3.901-8.16 6.24 3.48 0.101 8.842-1.587 9.6-5.76-0.61-0.02-0.66-0.61-1.44-0.48zm-9.12 3.36c-0.059-1.222-0.699-1.861-1.92-1.92-0.22 1.51 0.42 2.15 1.92 1.92zm9.6 1.44c0.463-0.978 1.843-1.037 3.359-0.961-0.58-2.93-4.2 0.13-3.36 0.96zm-12.96 2.4c0.717-0.562 0.565-1.994 1.92-1.92 0.087-1.047-0.393-1.527-1.44-1.44 0.31 1.72-2.63 2.64-0.48 3.36zm13.44-1.44c0.567-0.233 1.089-0.513 1.44-0.96-0.64-0.07-2.64 0.76-1.44 0.96zm-12 1.44c1.461-0.602 1.866-0.366 2.88 0.48 0.53-1.87-2.86-1.92-2.88-0.48zm4.32 0.96c1.508 0.228 1.962-0.599 2.4-1.439-1.22 0.06-1.68 0.88-2.4 1.44zm-4.32 2.88c0.192-1.248 1.432-1.447 1.44-2.88-1.772 0.97-3.386 0.202-4.8-0.479 0.36 1.89 1.9 2.58 3.36 3.36zm2.88-1.44c0.754-0.046 1.665 0.064 1.44-0.96h-0.96c0 0.49-0.39 0.57-0.48 0.96zm1.92 0.96c1.216 0.361 2.251-1.834 1.439-1.92-0.14 0.98-1.3 0.95-1.44 1.92zm-5.28 2.4c1.99 0.367 3.504-2.224 2.4-3.359-0.38 1.54-1.74 2.1-2.4 3.36zm-4.32 0c1.598 0.19 2.679-2.586 0.96-2.88-0.27 1.01-1.19 1.37-0.96 2.88zm2.88-0.48h0.96v-0.96h-0.96v0.96zm4.8-0.96c-3.27 4.79 0.78 1.04 0 0zm0.48 3.36c0.431-0.849 1.158-1.4 1.44-2.399-1.28-0.28-2.44 1.98-1.44 2.4zm-9.12 0.48c1.403 0.127 1.843-1.862 0.48-1.92-0.15 0.65-0.68 0.92-0.48 1.92zm2.88-1.92c-0.033 0.006 0.03 0.446 0 0.479-2.28 2.61 2.31-0.88 0-0.48zm1.44 0.96c0.691 0.537 1.171 0.518 1.44-0.48-0.661 0.021-1.054-0.226-1.44-0.479v0.96zm-1.44 3.36c-0.087-1.048 0.393-1.527 1.44-1.44 0.011 1.131-0.827 1.413-0.48 2.88 2.001 0.242 0.182-3.338 2.4-2.88 0.107 0.907-0.541 1.059-0.48 1.92 1.183-0.736 1.624-2.216 2.88-2.88-1.9 0.02-8.05 0.88-5.76 2.4z"
    />
	<path
        fill="#FFFFFF"
        d="m136.96 23.133c-1.366 0.874-1.843 2.637-2.88 3.84 1.245 2.274 0.966 6.074 2.88 7.68-0.398 1.201-1.315 1.885-1.44 3.36-0.63-0.169-0.755-0.845-1.439-0.96-0.691 0.269-1.171 0.749-1.44 1.44-0.026 1.917 4.901 2.459 5.28 0.96 1.311 2.711-1.626 1.057-3.84 0.96-2.677-0.117-6.521-0.159-8.64-0.48-0.772-0.117-0.94-0.149-0.96-0.96-0.993 0.927-3.6 0.24-3.36 2.4-0.926-0.194-0.042-2.198-1.92-1.44 0.245-1.355 1.161-2.039 1.44-3.36 3.849 0.169 3.991-3.369 6.72-4.32-1.093-2.381-2.912 0.699-4.8 0.479 0.94-2.259 4.375-2.025 5.28-4.32-0.141-1.12-1.299-1.12-1.439 0-0.689-1.163-2.778-2.632-1.92-3.84h2.4c0.824 0.616 0.01 2.87 1.44 2.88 0.757-3.68-1.269-7.296-4.8-7.2-1.93 0.052-2.729 2.514-4.8 2.88-0.02 1.58-0.81 2.39-0.479 4.32 1.807 0.913 2.05 3.389 5.28 2.88-0.049 1.231-1.789 0.771-2.4 1.44 0.705 1.132 1.013 0.893 0.48 2.4-2.303 0.257-3.241 1.879-6.24 1.44 1.346 1.694 1.397 4.682 1.92 7.2 1.328 0.592 2.57 1.271 4.32 1.44 1.809-1.326-0.823-1.641 0.96-3.36-0.117 0.889 1.25 1.535 0.96 3.84 2.166 1.867 7.738 1.682 10.56 1.44 0.357 1.478-1.317 0.922-0.96 2.4 0.06 1.06 2.036 0.204 2.88 0.48-1.738 7.416-10.019 0.176-15.84 0.48-0.818-0.302-0.79-1.45-1.44-1.92-1.7 0.053 1.02 1.587-0.479 1.44-8.167 1.58-6.649-10.612-9.6-15.84-1.592 0.168-0.753 2.767-0.96 4.32-3.489-2.366-5.015-6.692-5.28-11.04 1.161 0.599 1.553 1.967 1.92 3.36 3.146-0.157 4.29 0.427 6.72 0 2.225-2.357 5.823-2.979 5.76-6.72-0.052-3.088-2.608-3.705-4.32-5.28-1.203-0.083-1.165 1.075-1.92 1.44-1.208-0.441-3.292-0.921-3.36 0.96-0.084 0.783 3.14 0.969 2.4-0.48 1.196 1.528 2.355 0.594 3.84 0 1.126 0.794 1.04 2.801 0.96 4.8-3.055 0.944-4.957 3.043-8.64 3.36-1.214-0.386-1.224-1.976-1.92-2.88 0.064-1.855 1.947-1.894 2.4-3.36-1.163-1.131-2.556 1.58-3.36 2.4-0.287-5.41 3.144-11.254 6.24-14.88 1.949 2.466-0.486 6.358 1.44 8.64 2.719-0.908-0.926-5.375 1.44-6.24 0.232-1.512-1.473-1.087-0.96-2.88 3.848-6.836 14.9-5.883 21.6-2.4 5.052 2.626 10.531 8.134 8.641 15.36-0.428-0.373-1.084-0.516-1.92-0.48 0.584 1.656 1.586 2.894 2.88 3.84-0.95 0.45-2.79-2.314-5.28-1.919zm-3.84 14.4c1.17-1.127-0.535-1.074-0.96-1.92 0.232-0.567 0.512-1.088 0.96-1.44 1.507-0.227 1.268 1.292 2.399 1.44-0.451-2.749-1.281-5.119-2.88-6.72-0.69 2.452-4.099 4.401-2.399 7.68 1.81-1.013 1.7 0.244 2.88 0.96zm-12.96-4.801c-1.733 0.507-3.74 0.74-4.32 2.4 2.36 0.123 3.89-0.592 4.32-2.4zm-1.92 11.04c-0.136 1.255 0.175 2.065 1.44 1.92 0.14-1.254-0.17-2.064-1.44-1.92zm20.64-22.079c0.225-1.505-1.207-1.354-1.92-1.92-0.22 1.502 0.42 2.143 1.92 1.92zm-6.24 2.88c1.503 0.223 2.143-0.417 1.92-1.92-1.5-0.223-2.14 0.417-1.92 1.92zm0.96 3.84c-0.065-0.894-0.315-1.604-0.96-1.92 0.11 0.85-0.48 2.403 0.96 1.92zm-2.4 1.44v-1.92h-1.44c-0.08 1.201 0.74 1.503 1.44 1.92zm-20.64 1.439c-1.094-0.134-1.805 0.116-1.92 0.96 2.203 1.688 3.09 3.008 5.76 3.36-0.04-2.674-3.98-1.458-3.84-4.32z"
    />
	<path
        d="m130.24 36.573c-1.699-3.279 1.709-5.228 2.399-7.68 1.599 1.602 2.429 3.971 2.88 6.72-1.132-0.148-0.893-1.667-2.399-1.44-0.448 0.352-0.728 0.873-0.96 1.44 0.425 0.846 2.13 0.793 0.96 1.92-1.18-0.716-1.07-1.973-2.88-0.96z"
    />
	<path
        fill="#FFFFFF"
        d="m119.2 80.253c-0.169-1.431-0.277-2.923-1.44-3.36 0.655-2.065 1.875-3.565 2.4-5.76h5.28c-0.077 1.517-0.017 2.897 0.96 3.36 1.308-0.442-0.671-1.5 0-2.88 3.303 0.103 6.172-0.228 8.64-0.96-0.458-2.262-3.899-1.541-5.76-2.4 0.945-1.877 6.205-0.76 7.199 1.44 0.829-2.917-3.96-4.354-6.72-5.28-0.176 1.904-1.479 2.68-3.359 2.88v2.88c-3.312 0.125-4.026 0.293-7.2 0-1.066-0.694-1.083-2.438-3.36-1.92 0.884-1.676 4.856-0.264 4.32-3.36-2.373-0.453-1.618 2.223-3.84 1.92-0.403-0.557-0.633-1.287-0.48-2.4-5.407-0.375-6.993 3.565-10.56 5.28 0.52-5.85 9.633-9.598 14.4-5.28h5.76c0.765-1.042-0.417-2.929 0.48-3.84 0.291 0.829 2.277-0.037 2.4 0.96 0.705 1.826-2.146 0.094-1.44 1.92 3.35-0.626 10.191 0.117 12 3.84-1.302 0.619-1.198 2.642-2.4 3.36 5.642 2.049 15.502-3.65 18.721 0.48-2.315 0.763-4.783 0.386-7.2 0 0.874 1.887 5.161 1.687 7.2 0.96-0.151 1.457-2.712 1.948-3.84 0.96-2.018 0.97-2.849 1.869-4.801 1.92 1.561 2.419 4.743-1.911 7.2 0 1.149-1.25 2.831-1.969 3.36-3.84 1.09 0.35 1.436 1.444 1.92 2.4-3.473 2.871-0.888 9.017-5.28 10.56-0.837-1.883-2.68-2.76-2.88-5.28 1.697 0.383 1.357 2.803 2.88 3.36-0.885-2.288-0.876-4.732-0.96-6.72-1.792 0.928-3.098 2.342-4.8 3.36-1.643 0.203-1.442-1.438-2.4-1.92 1.157 6.951-2.452 12.316-10.08 13.44-0.24-2 1.217-2.304 2.881-2.4 3.043-2.469 8.268-6.534 5.279-12 0.014-0.467 0.588-0.373 0.96-0.48 0.127-1.566-1.493-1.387-1.92-2.4 0.357-1.083 2.692-0.188 3.84-0.48-1.414-2.077-5.348-0.217-8.159 0-4.011 0.31-7.975 0.197-10.561 1.92-1.812 1.547-1.984 4.735-2.4 7.68 1.78 0.972 6.458-0.464 8.64-1.92 1.505 0.332 0.626 1.28 0.479 2.4-0.152 1.273 2.689-0.449 1.92 1.44 0.563-0.078 0.405-0.875 0.48-1.44 1.639 0.121 2.307 1.213 4.32 0.96-1.357 3.364-5.449-0.065-7.681 0.96-0.043-1.31 0.8-0.966 0-1.92-1.815 1.864-5.577 1.783-7.68 3.36 0.071 3.417-1.125 5.503 0 7.68 2.473 4.783 10 0.021 12.48 4.32 1.23-0.049 0.771-1.789 1.439-2.4 5.218-0.702 7.68-4.16 10.561-7.2 0.194-3.235-0.226-5.854-1.921-7.2 10.368 9.358-10.35 23.292-22.079 15.36-1.161 1.505 1.457 3.324 3.359 3.36 1.358 1.492 3.314 2.935 5.76 3.84 2.107 0.78 6.531-0.065 6.24 3.36-4.43 0.43-6.42-1.58-9.12-2.88-1.142 0.141 0.534 1.298 0.96 1.44-0.508 0.476-3.741-0.395-3.84-1.92 1.004-0.203 1.271 0.329 1.92 0.48-1.261-1.646-2.808-1.315-4.8-2.88-2.264 0.864 0.307 2.53 0 4.32 3.564 1.867 8.996 5.372 14.4 7.2 1.692 0.573 4.674-0.952 4.319 2.4-2.533 0.99-3.437-0.272-6.72-0.48 1.202 4.398 5.475 5.726 9.12 7.68 3.598-1.522 7.523-2.717 9.6-5.76-0.681-1.506-3.854-1.051-2.399-3.36 1.88-0.28 1.226 1.975 2.399 2.4 1.105-0.976 1.288-2.872 1.44-4.8 3.201 6.537-3.315 10.872-7.2 13.44 0.37 2.35 2.847 2.594 2.88 5.28-2.59 0.03-2.193-2.927-4.319-3.36-0.35-1.31 0.953-0.966 0.96-1.92-2.665-0.566-4.43 0.377-7.2-0.48 2.185 2.801 3.312 7.732 6.72 8.16 4.502 0.565 7.945-5.67 8.64-11.04 1.28 6.513-6.29 19.43-12.479 10.08-0.551 3.693 2.833 5.667 2.4 7.68 2.081-0.699 4.175 0.584 6.239-1.44-0.08-1.359-0.88-2-0.96-3.36 1.662-0.336 1.722 1.683 0.96 2.4 2.372-0.188 2.431-2.69 3.36-4.32 0.531 1.324-2.088 7.929-6.24 8.64-1.723 0.283-2.322-0.558-3.359-0.96-1.151 2.012 0.955 4.324 1.92 5.76 1.714-0.206 2.634-1.206 3.359-2.4 0.896 2.03-1.864 4.524-3.84 5.28-2.188-1.75-2.369-4.993-3.36-7.68-0.391-1.06-1.628-2.191-1.92-3.36-0.572-2.298 1.13-5.951-1.92-7.2-0.634-3.846-1.027-7.933-4.8-8.64v-1.92c-0.557-0.403-1.287-0.633-2.4-0.48 1.223-1.736-2.071-5.14-3.359-4.32-1.025-3.615-5.661-3.619-6.72-7.2-2.6-0.199-0.772 4.028-1.92 5.28 1.52-0.087 2.037-2.622 3.84-0.96-0.942 1.458-3.389 1.411-2.88 4.32-2.692-0.986-6.064-1.51-7.2 1.44 3.288 0.613 8.537-0.548 11.52 1.44-0.341 2.238-2.93 0.517-4.32 0.48-3.401-0.091-7.377-0.237-10.08 0.48-0.732-1.739-0.005-3.517-0.96-5.76 2.85-1.09 1.736 1.784 3.36 1.92-0.136-2.097 2.906-4.527 0.96-7.2-11.076 5.373-17.142 15.35-20.16 27.84-0.914 3.782-0.171 7.825-3.36 11.04-3.691 0.758-5.115-4.331-6.72-7.2 1.641-0.506 1.935 4.454 4.32 4.8 2.556-0.645 2.52-3.88 3.84-5.76-0.524-1.103-2.356 0.478-2.88 0.96-3.702-0.778-5.848-3.112-6.72-6.72 1.506 2.174 3.592 3.769 6.24 4.8 2.474-1.846 5.015-3.625 5.28-7.68-1.927 0.633-2.974 2.146-4.8 2.88-4.631-0.969-6.637-4.563-7.68-9.12 2.033 3.077 4.059 7.021 7.68 6.72 3.983-0.331 4.054-5.414 6.72-8.16-7.796 2.107-15.851-1.778-14.88-12.48 1.755 5.999 7.518 12.673 13.44 10.08-0.312-0.488-1.104-0.497-0.96-1.44 1.721 0.122 1.758-1.441 3.36-1.44-0.295 0.427-0.58 0.858 0 0.96 2.48-0.72 3.807-2.593 5.28-4.32-3.816 0.523-10.076 0.522-13.44-1.92-2.033-0.426-2.439 2.219-3.84 0.96 0.166-1.114 0.311-2.249 1.92-1.92-3.066-2.486-5.324-7.743-3.84-12-0.905 8.614 9.095 13.206 17.76 12 5.57-0.775 9.35-4.98 12-6.72 1.786-0.505 0.941 1.619 1.92 1.92-0.597-2.536 0.504-7.94-0.96-11.04-2.931 1.55-6.2 2.761-11.04 2.4-0.656-0.945-0.458-2.742-0.96-3.84 2.815-1.062 7.684-1.963 10.56-1.44-2.642 1.84-4.912 0.895-9.6 1.92 3.601 2.973 8.865-0.337 12 0 0.088-4.772 1.174-5.814 0-10.08-7.671 0.311-9.719-5.001-15.84-6.24 2.573-0.699-1.633-6.022 1.92-6.24 0.922 6.757 6.261 9.099 13.44 9.6 0.03-2.688-1.96-3.989 0.48-1.917zm6.24 14.4v1.44c1.4 0.705 1.4-2.146 0-1.44zm-1.44 20.157c-1.302-1.898-3.601-2.799-3.36-6.24-2.44 0.54 0.46 6.44 3.36 6.24zm-3.84-47.038c0.587 1.056 5.489 1.994 5.28-0.48-2.27 0.701-4.72-1.428-5.28 0.48z"
    />
	<path
        d="m120.64 108.57c-0.241 3.44 2.058 4.342 3.36 6.24-2.9 0.2-5.8-5.7-3.36-6.24z"
    />
	<path
        fill="#FFFFFF"
        d="m139.84 66.812c-0.769-0.59 4.458 0.487 3.36 3.36-1.86-0.378-1.82-2.653-3.36-3.36z"
    />
	<path
        fill="#FFFFFF"
        d="m113.92 67.292c-0.963 0.478-1.943 0.937-2.88 1.44-2.404-2.686 6.057-1.898 2.88-0.48v-0.96z"
    />
	<path
        fill="#FFFFFF"
        d="m96.163 81.693c0.132 2.523-1.394 1.96-2.4 2.4-0.17 2.151 0.55 3.889 1.44 5.28 0.73 1.141 1.874 1.16 3.36 2.4 0.514 0.429 0.568 1.689 0.96 1.92 1.965 1.159 4.22 1.1 6.24 1.92v2.4c-7.178-1.622-13.139-4.46-12.48-13.92 1.199-1.263 1.975-1.88 2.883-2.4z"
    />
	<path
        fill="#FFFFFF"
        d="m176.32 82.173c2.019-0.099 2.016 1.824 3.84 1.92-0.79 0.764-3.57-0.569-3.84-1.92z"
    />
	<path
        fill="#FFFFFF"
        d="m102.88 88.413c1.115 0.166 2.25 0.311 1.92 1.92h1.44c-1.953 0.377-6.112 3.172-7.2-0.48 0.294-0.665 1.848-0.072 1.92-0.96 1.303 0.437-0.489 1.682-0.48 2.4 1.84 0.075 1.56-1.96 2.4-2.88zm1.44 0.96c-1.255-0.135-2.064 0.175-1.92 1.44 1.2 0.081 1.5-0.738 1.92-1.44z"
    />
	<path
        fill="#FFFFFF"
        d="m152.8 90.333c5.089 4.649-1.282 16.896-10.56 16.32-0.803-1.808 2.232-2.186 0.96-2.88 5.86 0.12 12.6-6.091 9.6-13.437z"
    />
	<path
        fill="#FFFFFF"
        d="m112.96 99.453c-1.631 0.424 1.667-1.523 0.96 1.44 1.972-0.107 2.042-2.118 4.32-1.92-0.604 3.358-5.092 4.65-9.12 6.24-2.055 0.811-5.079 2.477-9.12 1.44-2.691-0.69-8.947-5.991-9.6-8.64-0.421-1.708 0.309-3.451 0-5.28 1.866 1.011 0.608 2.207 0.96 3.36 1.479 4.838 5.262 6.169 9.6 7.68 1.601 0.558 3.632 1.915 6.24-0.479-0.72-1.587-1.174 0.997-2.4 0.479-0.113-2.961 3.695-3.6 2.88-0.96 1.933-0.792 1.236-2.035 2.4-2.88 1.024-0.224 0.914 0.686 0.96 1.44 0.718-0.562 1.963-0.597 2.4-1.44 0.09-0.406-0.18-0.45-0.48-0.477z"
    />
	<path
        fill="#FFFFFF"
        d="m97.123 106.65c0.209-0.712 0.614 0.189 1.44 0 0.146 1.266-1.002 1.238-1.92 1.44-0.257-0.69 1.87-1.17 0.48-1.44z"
    />
	<path
        fill="#FFFFFF"
        d="m96.163 106.65c-1.475 3.08-3.49 1.66 0 0z"
    />
	<path
        fill="#FFFFFF"
        d="m146.56 107.61c0.47-1.591 0.949 0.536 1.44 0.48-0.27 1.39-0.75-0.73-1.44-0.48z"
    />
	<path
        fill="#FFFFFF"
        d="m138.4 109.05c0.438-0.535 0.892-0.151 2.399-0.48 0.04 2.19-1.41 0.97-2.4 0.48z"
    />
	<path
        fill="#FFFFFF"
        d="m59.203 163.29c-1.266 3.1 4.761 5.382 3.36 8.64-3.556-0.765-2.793-5.847-6.72-6.24-0.146 3.191 3.211 7.024 4.32 10.561-2.501 0.741-1.581-1.939-3.36-1.92-0.051-4.269-3.461-5.18-3.84-9.12-0.134-0.986-1.282-0.958-1.92-1.44 3.105-2.271-3.762-1.996-1.44-4.8-1.357-0.396-1.244 0.677-2.4 0.48-13.433-9.928-23.049-23.671-35.52-34.561-0.558 0.078-0.854-0.106-0.96-0.48-1.793-0.043-1.368-0.538-2.88 0-1.292-1.248 0.587-1.448 0.48-2.88-1.875 0.365-2.034 2.446-4.32 2.4-1.046-1.003 0.24-1.37 0-2.88 2.977-0.185 5.128-2.796 8.16-1.44 0.203 1.003-0.329 1.271-0.48 1.92-0.081 1.041 1.703 0.217 2.4 0.48 0.478 2.722 3.198 3.201 5.28 4.32 9.424 12.176 19.064 24.136 32.16 32.64-0.197 1.156 0.876 1.043 0.48 2.4 2.167-0.021 2.801-2.104 4.8-0.96v2.399c-1.405 0.432-1.475 0.432-2.88 0-0.134 1.095 0.116 1.805 0.96 1.92 2.473-0.407 3.169-2.591 5.28-3.359-0.403-0.755-4.32-0.43-2.4-1.92 0.169-2.302 1.438 1.024 2.4 0.96 1.821-1.219 4.238-1.842 4.8-4.32 1.966 1.074 4.729 1.352 6.72 2.4-0.839 3.165-4.001-1.466-7.68 0 2.208 2.911 3.883 6.356 7.68 7.68 0.197 1.156-0.876 1.043-0.479 2.399-2.101 0.181-2.308-1.532-2.88-2.88-2.615-1.225-4.168-3.512-6.24-5.279-0.987 3.444 4.637 6.808 4.32 9.6 0.316 1.438 1.026-0.459 1.92 0 0.361 1.217-1.833 2.252-1.92 1.44-2.172-2.95-3.999-6.24-7.201-8.16z"
    />
	<path
        fill="#FFFFFF"
        d="m115.84 127.77c-0.954-2.244-0.694-4.784 0.96-4.8-1.773-1.51-4.271 3.858-7.68 3.84 0.383-0.896 0.802-1.758 0.96-2.88 4.703-2.135 10.254-3.242 16.32-1.92 1.553 0.593 0.366-1.553 1.92-0.96-0.069 2.309 3.046 1.434 3.359 3.36-1.595-0.485-3.826-0.333-4.319-1.92-1.601 1.789 0.893 3.566 3.359 2.88 0.411 2.011-2.148 1.051-2.88 1.92 0.656 0.613 0.656 2.266 0 2.88-2.699-0.602-7.428-0.847-10.08 0 0.153-1.113-0.077-1.843-0.48-2.4-1.4-0.121-1.656 0.904-2.4 1.44 0.472 1.128 2.403 0.796 2.4 2.4-1.453-0.147-1.715-1.485-3.84-0.96-6.088 4.792-11.556 10.204-14.88 17.76 2.17-8.55 7.68-17.92 17.28-20.64zm2.4-3.36c-0.11-0.851 0.483-2.404-0.96-1.92-0.13 1.1 0.12 1.81 0.96 1.92zm-0.48 1.92c1.966 1.558 6.423-0.244 9.601 0.96 1.44-3.74-8.4-3.67-9.6-0.96z"
    />
	<path
        fill="#FFFFFF"
        d="m229.6 123.93c-1.357 2.002-3.105 3.615-3.359 6.72-10.823 9.017-17.555 22.125-29.76 29.76-1.511 0.229-1.877-0.684-2.881-0.96 0.296 1.601 1.409 1.639 0.48 3.359-0.897 0.939-1.758 0.148-2.88 0-0.396 1.357 0.677 1.244 0.479 2.4-0.557 0.402-1.286 0.633-2.399 0.479-1.418 0.418 1.113 0.719 0.479 1.92-2.751 2.05-3.473 6.127-5.279 9.12-2.09-3.084 3.038-6.739 3.359-10.56-3.983 1.296-4.589 5.971-7.68 8.16-1.99-3.212 3.858-5.759 4.32-9.601-3.713 1.248-4.741 5.18-8.16 6.721v1.92c-2.407 0.793-2.217 4.184-5.28 4.319-0.078 0.559 0.106 0.854 0.48 0.96-3.891 0.013 0.39-2.317 1.439-3.84 0.682-0.987 0.648-2.754 1.44-3.84 2.607-3.575 6.821-4.654 7.68-9.12-4.616 1.464-6.377 5.783-10.08 8.16 0.357-1.478-1.317-0.923-0.96-2.4 2.901-1.897 6.257-3.343 7.2-7.199-1.284-1.961-5.073 0.691-6.72 1.439-0.206-0.914-1.034-1.206-0.961-2.399 3.451 0.41 4.71-1.371 7.2-1.92-0.047 3.053 3.183 2.658 4.8 3.84 0.335 0.244 0.096 1.622 0.48 1.92 0.934 0.723 3.691 0.641 3.84 2.399 0.428-0.372 1.084-0.516 1.92-0.479 3.168-5.932 8.998-8.412 13.92-13.44 0.851-0.869 1.534-2.077 2.4-2.88 2.238-2.074 5.367-4.174 7.68-6.72 0.42-0.462 0.103-1.402 0.48-1.92 0.963-1.321 2.72-2.442 3.84-3.84 1.127-1.407 1.883-3.128 2.88-4.32 0.308-0.367 1.13-0.145 1.44-0.48 2.031-2.197 3.233-4.952 5.279-7.2 1.13 0.01 1.42-0.82 2.88-0.48z"
    />
	<path
        fill="#FFFFFF"
        d="m138.4 126.81c-0.861-0.061-1.013 0.588-1.921 0.48-0.034-2.192 1.412-0.962 2.4-0.48-0.09 0.55-0.48 0.27-0.48 0z"
    />
	<path
        fill="#FFFFFF"
        d="m131.68 129.69c7.916 2.164 10.271 9.889 14.4 15.84-1.344 0.065-1.826-1.954-2.4-2.88-0.685-1.105-1.283-2.971-1.92-3.84-2.71-3.7-8.04-5.2-10.08-9.12z"
    />
	<path
        fill="#FFFFFF"
        d="m117.28 137.85c4.816-1.049 8.355 1.806 10.56 0.48-0.063 1.183-0.072 2.312 0.48 2.88h3.359c0.113 3.084-1.965 0.994-3.84 1.92 0.108 2.692-0.719 3.507 0.48 5.28 1.127-0.153 1.802-0.758 3.359-0.48-0.061 0.861 0.588 1.013 0.48 1.92-2.74-0.668-4.044 0.464-4.8 2.88-0.907 0.213-2.893-0.653-2.4 0.96-1.856-1.024-4.663-1.097-7.68-0.96 0.861-4.221-4.724-1.996-5.28-4.8 1.354-0.885 3.471 0.787 5.28 0.96 1.041 0.081 0.218-1.702 0.48-2.4 1.467-0.347 1.75 0.491 2.88 0.48-2.063 1.248 0.263 0.917 0.48 2.4 2.419-0.307 3.298 0.028 4.8-0.48 0.751-2.831-4.075-0.084-3.84-2.4 1.466 0.614 4.008 0.152 4.32 1.92 2.255-0.966-0.278-3.333-0.48-4.8-2.784 0.3-6.641 0.088-7.68 1.44-2.059-0.375 0.435-2.322-0.96-3.36-0.219 1.7-2.272 1.567-4.32 1.44-0.14-3.31 6.8-1.13 4.32-5.28zm0.48 2.4c2.542 0.118 6.024 1.639 8.641-0.48-2.02 0.25-7.12-1.22-8.64 0.48z"
    />
	<path
        fill="#FFFFFF"
        d="m126.88 159.45c-3.105 0.066-8.863 1.613-11.04-0.48 0.116-0.845 0.826-1.094 1.92-0.96 0.348-1.468-0.828-1.412-0.48-2.88-0.986 0.134-0.958 1.282-1.44 1.92-1.264-1.536-2.83 0.042-4.32-1.44 0.141-0.979 1.299-0.94 1.44-1.919 4.438 1.721 13.699 1.853 18.72 0.48 0.403 0.557 0.634 1.287 0.48 2.399-2.02 0.52-4.54 0.13-5.28 2.88zm0-4.32c-0.762 0.717-0.702 2.736 0.96 2.4 0.08-1.19-0.25-1.99-0.96-2.4z"
    />
	<path
        fill="#FFFFFF"
        d="m187.84 156.09c-2.188 0.052-1.297 3.183-4.319 2.4 0.077-0.559-0.106-0.854-0.48-0.96 0.957-1.809 3.992-3.262 5.28-0.961-0.25 0.74-0.5 0.03-0.48-0.48z"
    />
	<path
        fill="#FFFFFF"
        d="m99.522 195.45c-0.437 2.283-2.959 2.48-5.28 2.88 0.279-1.321 1.195-2.005 1.44-3.36-1.892-0.922-2.571 1.137-1.92 3.36-2.155-0.235-3.597 0.243-5.28 0.479-0.319-1.28-1.442-1.758-2.4-2.399-1.074-5.547 2.061-7.819 1.92-11.04 2.129-0.111 2.12-2.36 4.32-2.4 0.146-3.152-0.171-4.885 0.96-6.24-1.062-2.617-2.756-4.604-5.28-5.76 1.164-2.475-1.835-3.563-2.88-5.28 1.427-3.053 1.985-6.975 4.32-9.12 3.293-0.327 7.513-0.636 12-0.96 4.003 1.996 5.418 5.798 8.16 10.08 1.267 1.979 3.042 3.85 2.88 6.24-5 0.761-6.046 5.474-7.2 10.08-0.71-0.556-1.209-0.556-1.92 0 2.528 8.672 6.588 15.812 16.8 16.8 0.403 0.558 0.633 1.287 0.48 2.4 2.221 0.361 0.667-1.834 1.44-1.92h1.92c0.134 1.254 0.162 2.402-1.44 1.92 0.298 1.301 2.005 1.194 1.92 2.88 1.507-0.329 1.961 0.056 2.4-0.48 0.837 0.724-0.491 2.071 0.96 2.881 1.534-0.506 0-2.172 1.44-3.36 1.646-0.435 4.116-0.043 4.319-1.92 1.795 1.572 0.196 3.195 0 5.28 2.536 2.264 6.999 2.602 7.2 7.199-5.885 1.594-7.422-4.961-12.96-5.279-0.791-0.81-1.043-2.157-1.92-2.88-1.132 0.132 0.044 1.788 0.48 1.92-6.293-1.951-12.959 2.679-18.24 4.8-1.309-0.441 0.67-1.501 0-2.88 1.426-1.135 4.518-0.602 4.32-3.36 0.331-1.291-0.992-0.928-1.44-1.439 0.819-0.461 1.052-1.509 1.44-2.4 1.988 1.185 2.027 3.581 1.44 6.24 1.853-1.027 2.52-3.24 3.84-4.801 1.273-0.007 2.827 0.267 2.88-0.96 0.21-3.116-4.222-1.837-5.76-1.92-1.868-1.331-4.185-2.215-5.76-3.84-4.167-0.538-7.323 0.099-10.08-2.399 0.774-2.986-0.061-6.872-3.36-7.2 0.872 1.236 3.759 5.434 1.92 9.6 1.265 0.15 0.38-1.86 1.922-1.44zm-10.56-27.36c2.652 0.121 1.738-3.298 0.48-4.32 0.857-1.222 2.374-1.786 1.92-4.319 0.834-1.086 3.395-0.445 3.84-1.92-6.14-1.6-9.327 6.7-6.24 10.56zm10.56-10.56c0.037 1.562 2.175 1.024 3.36 1.439-0.39-1.62-2.06-1.97-3.358-1.44zm-3.359 17.28c-0.359 2.974-4.457 5.931-1.44 8.641 0.946-2.415 2.326-4.395 3.84-6.24-1.999-0.036 0.04-3.166 0.48-3.84-1.554-1.166-1.374-4.066-2.4-5.761h-1.44c0.003 2.93 1.277 4.57 0.96 7.2zm-5.281 12h3.84c-0.532-1.96-3.455-1.83-3.84 0zm-2.88 2.88c0.358 2.63 3.392 1.325 4.8 1.921 0.986 0.453 0.407 2.473 1.92 2.399 1.047 0.087 1.527-0.393 1.44-1.439-1.873-1.57-4.889-4.27-8.16-2.88zm0.96 4.8c0.539 0.102 0.747 0.532 0.96 0.96 1.71 0.109 2.51-0.69 2.4-2.4-1.176-1.03-3.55-0.35-3.36 1.44zm34.558 11.52h0.96v-0.96h-0.96v0.96zm-11.52 4.32c0.053-0.907 1.587-0.333 1.44-1.44-0.56-1.16-3.01 0.64-1.44 1.44zm23.04-1.44h-1.92c-0.1 1.57 2.26 1.9 1.92 0z"
    />
	<path
        d="m94.722 204.09c-1.715 0.364-2.562 1.598-2.88 3.36-1.004-0.437-1.463-1.417-1.44-2.88 0.886-1.328 5.452-1.554 5.76 0.479-0.963 0.17-1.501-0.09-1.44-0.96z "
    />
	<path
        fill="#FFFFFF"
        d="m165.76 220.89c1.354-1.009 3.326 1.456 5.28 1.44-1.637-3.486-10.984-3.413-9.12-12 5.49 4.245 12.556 8.23 18.24 9.6-0.312 0.488-1.104 0.496-0.96 1.44 1.281 1.324 1.043-0.567 2.399-0.48 0.705 1.132 1.014 0.894 0.48 2.4 3.841 1.279 6.998 3.241 9.12 6.24 17.022 6.817 23.047 24.633 43.68 27.84-1.9 0.819-5.259 0.181-5.28 2.88-1.573-1.627-2.883-3.517-4.8-4.8-0.537 1.83 1.656 5.054 4.32 5.279-0.61 1.149-1.753 1.768-1.44 3.841-2.465 0.368-3.646-0.832-5.279 0-11.72-14.041-26.729-24.791-42.24-35.04 0.053-0.907 1.587-0.334 1.439-1.44-6.52 0.39-9.95-5.45-15.84-7.2zm47.52 31.2c0.648 0.151 0.916 0.684 1.92 0.48v-1.44c-1.09-0.13-1.8 0.12-1.92 0.96z"
    />
	<path
        fill="#FFFFFF"
        d="m96.643 240.57c0.057-1.482 2.047 2.187 1.92-0.48 0.63 0.17 0.755 0.845 1.44 0.96-0.436 0.423-1.417 0.083-2.88 0.48 0.081-0.55-0.103-0.85-0.477-0.96z"
    />
	<path
        fill="#FFFFFF"
        d="m90.882 246.33c-0.045-1.875-1.94-1.9-2.88-2.88 1.342-2.927 5.575-0.083 7.68-1.92v3.84c-2.575-1.652-1.745 2.206-4.32 1.92 1.477 1.423 3.207 1.043 2.88 3.359 0.533-1.706 1.669-2.811 2.4-4.319 3.064 0.885-1.169 3.677 1.92 4.8 0.92-2.28 0.225-6.175 4.32-5.28 0.065 1.955-2.335 5.024 0 6.24 1.064-1.335-0.04-4.84 1.44-5.76 2.669 0.461 4.271 2.581 4.32 4.319 1.082-2.446 6.334 0.755 8.64 0v2.4c-6.198 1.198-8.189-2.486-11.52 0 0.271 0.999 1.372 1.552 0.48 2.4-2.176-1.41-1.123 1.248-2.88 1.439-1.265-1.062 0.367-3.196-0.48-3.84-0.386 0.254-0.779 0.501-1.44 0.48-1.408 0.407 0.625 1.208 0 2.399-2.05 0.13-2.088-1.752-3.36-2.399-1.395 0.798-5.887 3.041-6.72 0-2.178 0.596 0.83 1.396-0.48 2.399-5.763-0.116-9.798 3.287-14.88 4.8-1.245 0.371-2.694 0.083-3.84 0.48-3.328 1.153-6.133 3.317-9.6 4.8-1.458 0.623-3.293 0.718-4.8 1.44-3.554 1.703-7.882 4.226-12 5.76-5.473 2.039-10.226 3.22-14.4 5.76-1.183 0.72-2.11 2.181-3.36 2.88-0.341 0.191-1.129-0.23-1.44 0-2.037 1.515-3.049 4.841-6.24 4.32-0.212-0.428-0.421-0.858-0.96-0.96 2.366-6.745-2.602-7.939-3.36-13.92 2.573-3.081 11.067 1.028 15.36 0.96 1.773-0.028 2.898-1.005 4.32-1.44 1.262-0.386 3.509 0.562 3.84-1.439 1.72 0.112 3.524-0.376 6.24-1.44 4.39-1.72 9.737-3.785 14.4-5.76 8.325-3.524 17.433-7.732 23.04-12 2-1.522 3.076-4.098 5.76-4.32-0.528 3.177-0.795 6.21 1.44 7.681-0.351-1.42-1.575-4.96 0.482-7.2zm-70.08 30.72c3.03 1.823 7.111 1.199 10.08-0.479-3.32 0.27-7.571-0.85-10.08 0.48z"
    />
	<path
        fill="#FFFFFF"
        d="m91.842 257.37c0.115 2.092-2.794 2.062-3.84 2.399-10.271 3.318-21.6 7.156-31.68 11.521-3.229 1.397-6.255 3.239-10.56 4.32 12.957-6.563 27.055-11.985 41.76-16.801 1.683 0.06 2.682-3.04 4.32-1.44z"
    />
	<path
        fill="#FFFFFF"
        d="m118.24 264.09c1.848-0.088 0.948-0.581 0.479-2.88 1.286 0.314 1.825 1.375 2.88 1.92 0.203 1.003-0.329 1.271-0.48 1.92 0.527 0.92 3.531-1.122 2.88 1.92-2.34 0.16-4.06-1.2-5.76-2.88z"
    />
	<path
        fill="#FFFFFF"
        d="m44.322 275.61c2.23 0.679-1.724 1.689-2.88 2.399-1.445 0.889-2.799 1.542-4.32 2.4-4.171 2.353-6.914 5.853-13.44 5.76 0.354-1.086 1.83-1.051 1.92-2.4 7.579 0.34 12.863-5.23 18.72-8.16z"
    />
	<path
        fill="#FFFFFF"
        d="m136.48 286.65c-1.517-0.076-2.896-0.017-3.359 0.961-0.84-0.83 2.78-3.89 3.36-0.96z"
    />
	<path
        fill="#FFFFFF"
        d="m135.04 287.61c-0.352 0.447-0.873 0.727-1.44 0.96-1.2-0.2 0.8-1.03 1.44-0.96z"
    />
	<path
        fill="#FFFFFF"
        d="m127.84 291.45c0.812 0.086-0.224 2.281-1.439 1.92 0.14-0.97 1.3-0.94 1.44-1.92z"
    />
	<path
        fill="#FFFFFF"
        d="m124.48 294.33c0.78 1.04-3.27 4.79 0 0z"
    />
	<path
        fill="#FFFFFF"
        d="m124.48 298.17c-1.256 0.664-1.697 2.144-2.88 2.88-0.061-0.861 0.587-1.013 0.48-1.92-2.218-0.458-0.398 3.122-2.4 2.88-0.347-1.467 0.491-1.749 0.48-2.88-1.047-0.087-1.527 0.393-1.44 1.44-2.29-1.52 3.86-2.38 5.76-2.4z"
    />
	<path
        fill="#FFFFFF"
        d="m116.8 161.37c3.015 0.757 11.637-0.562 16.32 0.479 0.061 0.861-0.588 1.013-0.48 1.92-1.325 0.665-3.792-0.452-3.359 2.88-3.822-1.168-8.668 0.283-12-0.479-0.562 0.077-0.405 0.875-0.48 1.439-1.06-0.06-0.204-2.036-0.48-2.88-1.545-0.105-2.031 0.85-3.84 0.48 0.18-3.35 4.63 0.25 4.32-3.84zm10.56 4.32c-0.293-1.147 0.603-3.482-0.48-3.84-1.37 0.96-2.09 3.53 0.48 3.84z"
    />
	<path
        fill="#FFFFFF"
        d="m229.12 264.57c1.112-8.223 9.926-5.477 9.12 0.479-0.125 0.922-1.168 3.443-2.88 3.84-3.87 0.9-3.95-2.65-6.24-4.32z"
    />
</g>
<metadata>
<rdf:RDF>
<cc:Work>
<dc:format>image/svg+xml</dc:format>
<dc:type rdf:resource="http://purl.org/dc/dcmitype/StillImage"/>
<cc:license rdf:resource="http://creativecommons.org/licenses/publicdomain/"/>
<dc:publisher>
<cc:Agent rdf:about="http://openclipart.org/">
<dc:title>Openclipart</dc:title>
</cc:Agent>
</dc:publisher>
<dc:title>skeleton</dc:title>
<dc:date>2006-11-04T20:11:26</dc:date>
<dc:description>a skeleton image commonly used as a paper door decoration from "Scan This Book"</dc:description>
<dc:source>https://openclipart.org/detail/1258/skeleton-by-johnny_automatic</dc:source>
<dc:creator>
<cc:Agent>
<dc:title>johnny_automatic</dc:title>
</cc:Agent>
</dc:creator>
<dc:subject><rdf:Bag>
<rdf:li>bones</rdf:li>
<rdf:li>decoration</rdf:li>
<rdf:li>externalsource</rdf:li>
<rdf:li>halloween</rdf:li>
<rdf:li>holiday</rdf:li>
<rdf:li>human</rdf:li>
<rdf:li>skeleton</rdf:li>
</rdf:Bag>
</dc:subject>
</cc:Work>
<cc:License rdf:about="http://creativecommons.org/licenses/publicdomain/">
<cc:permits rdf:resource="http://creativecommons.org/ns#Reproduction"/>
<cc:permits rdf:resource="http://creativecommons.org/ns#Distribution"/>
<cc:permits rdf:resource="http://creativecommons.org/ns#DerivativeWorks"/>
</cc:License>
</rdf:RDF>
</metadata>
</svg>
